<svg xmlns="http://www.w3.org/2000/svg" width="30" height="31.045" viewBox="0 0 30 31.04511" fill="#ff8c00"><path class="st0" d="M29.537 30.168c-2.072-2.54-4.735-4.087-7.947-4.694-3-.568-5.338-2.102-6.955-4.71-.094-.15-.232-.273-.5-.583 0 .562.01.887-.004 1.21-.024.555.108 1.464-.14 1.586-.478.235-1.19.097-1.78-.012A9.223 9.223 0 0 1 4.89 11.91c1.02-4.904 4.89-7.657 9.96-7.31 3.903.267 8.535 4.038 8.182 9.792-.027.44-.192.548-.624.52-.74-.048-1.484-.013-2.226-.013 3.076.78 4.922 2.648 5.484 5.86 2.023-3.086 2.44-6.35 1.756-9.745C25.885 3.383 18.767-.978 11.582.187 1.56 1.812-2.897 12.867 1.993 21.024c3.02 5.033 8.686 7.25 14.6 6.44 1.756-.24 3.57-.267 5.34-.156 2.836.178 5.198 1.55 7.334 3.346.174.147.375.26.563.39.056-.055.113-.11.17-.168-.153-.237-.286-.49-.463-.708z"/><path class="st0" d="M20.122 22.777c.002.718.672 1.356 1.67 1.334.134-.156.523-.42.604-.757.13-.55-.846-1.41-1.482-1.398-.523.01-.795.298-.792.822zm3.501-3.05c-.12.055-.258.302-.227.423.156.61.347 1.22 1.1 1.54.22-.776.086-1.365-.403-1.85-.103-.103-.35-.167-.47-.113z"/></svg>