<svg width="1183" height="272" viewBox="0 0 1183 272" version="1.1" xmlns="http://www.w3.org/2000/svg" xmlns:xlink="http://www.w3.org/1999/xlink">
<g id="Canvas" fill="none">
<g id="qbt_logo_full">
<g id="&#208;&#161;&#208;&#187;&#208;&#190;&#208;&#185; 2">
<g id="Layer 1">
<g id="Group">
<g id="Vector">
<path d="M 15.6299 0L 2.01415e-05 0L 2.01415e-05 70.6047L 15.6299 70.6047L 15.6299 0Z" transform="translate(431.128 12.0146)" fill="black"/>
</g>
<g id="Vector_2">
<path d="M 41.8648 70.6047L 53.3548 14.3249L 64.8598 70.6047L 92.0997 70.6047L 106.62 3.43321e-07L 89.9847 3.43321e-07L 78.4797 56.3848L 66.9748 3.43321e-07L 39.7498 3.43321e-07L 28.1399 56.5798L 16.6499 3.43321e-07L -1.46484e-05 3.43321e-07L 14.52 70.6047L 41.8648 70.6047Z" transform="translate(454.108 12.0146)" fill="black"/>
</g>
<g id="Vector_3">
<path d="M 15.6299 0L -1.83105e-05 0L -1.83105e-05 70.6047L 15.6299 70.6047L 15.6299 0Z" transform="translate(567.823 12.0146)" fill="black"/>
</g>
<g id="Vector_4">
<path d="M 1.09863e-05 3.20433e-06L 1.09863e-05 70.6047L 50.5798 70.6047L 50.3998 54.9748L 15.4649 54.9748L 15.6449 3.20433e-06L 1.09863e-05 3.20433e-06Z" transform="translate(420.853 100.514)" fill="black"/>
</g>
<g id="Vector_5">
<path d="M 64.3047 64.201C 71.4647 57.2011 75.0447 48.2411 75.0447 37.3211C 75.0447 26.4012 71.4647 17.4412 64.3047 10.4412C 57.0018 3.72653 47.443 -1.25013e-06 37.5223 -1.25013e-06C 27.6016 -1.25013e-06 18.0429 3.72653 10.74 10.4412C 3.58 17.4412 5.49314e-06 26.4012 5.49314e-06 37.3211C 5.49314e-06 48.2411 3.54499 57.2411 10.635 64.321C 17.7249 71.251 26.6849 74.716 37.5149 74.716C 42.457 74.8474 47.3751 73.9843 51.9772 72.178C 56.5793 70.3717 60.7714 67.659 64.3047 64.201L 64.3047 64.201ZM 15.6449 37.3211C 15.5635 34.4414 16.0754 31.5757 17.1489 28.9023C 18.2224 26.2288 19.8345 23.8049 21.8849 21.7812C 23.9377 19.7298 26.3888 18.1205 29.0872 17.0525C 31.7856 15.9845 34.6742 15.4804 37.5748 15.5712C 40.4587 15.4694 43.3336 15.948 46.0288 16.9787C 48.7241 18.0094 51.1848 19.5711 53.2648 21.5712C 57.2486 25.7734 59.4691 31.3433 59.4691 37.1336C 59.4691 42.924 57.2486 48.4939 53.2648 52.6961C 51.2115 54.7468 48.7603 56.3556 46.062 57.4235C 43.3637 58.4915 40.4754 58.996 37.5748 58.9061C 34.691 59.0079 31.8162 58.5293 29.1209 57.4986C 26.4256 56.4679 23.9649 54.9061 21.8849 52.9061C 19.823 50.8815 18.2037 48.451 17.1296 45.7684C 16.0555 43.0857 15.55 40.2093 15.6449 37.3211L 15.6449 37.3211Z" transform="translate(473.113 98.2183)" fill="black"/>
</g>
<g id="Vector_6">
<path d="M 58.6348 68.6494C 64.7595 64.4668 69.4429 58.4947 72.0447 51.5495L 57.6148 45.1895C 55.9442 49.2392 53.1621 52.7338 49.5898 55.2695C 45.0877 58.2174 39.6587 59.407 34.3364 58.6119C 29.014 57.8168 24.1699 55.0924 20.7259 50.9574C 17.2819 46.8224 15.4785 41.5654 15.659 36.187C 15.8395 30.8086 17.9914 25.6844 21.7049 21.7896C 23.7144 19.7554 26.123 18.159 28.7793 17.1006C 31.4356 16.0422 34.2821 15.5448 37.1399 15.6396C 41.3603 15.5536 45.5025 16.7858 48.9898 19.1646C 52.4627 21.6134 55.2011 24.9638 56.9098 28.8546L 71.4297 22.7046C 68.803 15.8535 64.1183 9.98447 58.0198 5.90466C 51.7626 1.89314 44.4505 -0.15947 37.0198 0.00967787C 32.1514 -0.0993996 27.311 0.774205 22.7879 2.57829C 18.2648 4.38238 14.1519 7.07992 10.695 10.5096C 3.56498 17.5096 -9.15524e-06 26.4696 -9.15524e-06 37.3895C -9.15524e-06 48.3095 3.54497 57.3095 10.6349 64.3894C 17.7249 71.3194 26.6849 74.7844 37.5149 74.7844C 45.0135 74.9242 52.378 72.7849 58.6348 68.6494L 58.6348 68.6494Z" transform="translate(554.473 98.2095)" fill="black"/>
</g>
<g id="Vector_7">
<path d="M 10.665 64.2544C 17.7549 71.1844 26.7149 74.6494 37.5449 74.6494C 45.0141 74.82 52.3604 72.7285 58.6198 68.6494C 64.7445 64.4668 69.4279 58.4947 72.0297 51.5495L 57.5998 45.1895C 55.9292 49.2392 53.1471 52.7337 49.5748 55.2695C 45.0723 58.2037 39.6491 59.3825 34.3348 58.582C 29.0205 57.7815 24.1852 55.0575 20.7468 50.927C 17.3085 46.7966 15.5066 41.5474 15.6832 36.1761C 15.8598 30.8047 18.0027 25.6852 21.7049 21.7896C 23.7144 19.7554 26.123 18.159 28.7793 17.1006C 31.4356 16.0422 34.2821 15.5448 37.1398 15.6396C 41.3603 15.5536 45.5026 16.7858 48.9898 19.1646C 52.4627 21.6134 55.2011 24.9638 56.9098 28.8546L 71.4297 22.7046C 68.8031 15.8535 64.1183 9.98447 58.0198 5.90465C 51.7627 1.89314 44.4506 -0.15947 37.0199 0.00967787C 32.1515 -0.0993996 27.311 0.774205 22.7879 2.57829C 18.2648 4.38238 14.1519 7.07992 10.6949 10.5096C 3.56496 17.5096 1.64794e-05 26.4696 1.64794e-05 37.3895C 1.64794e-05 48.3095 3.55498 57.2644 10.665 64.2544Z" transform="translate(695.967 98.2095)" fill="black"/>
</g>
<g id="Vector_8">
<path d="M 15.63 43.0648L 50.9398 43.0648L 50.9398 70.6047L 66.5697 70.6047L 66.5697 -4.57762e-07L 50.9398 -4.57762e-07L 50.9398 27.5399L 15.63 27.5399L 15.63 -4.57762e-07L 4.39451e-05 -4.57762e-07L 4.39451e-05 70.6047L 15.63 70.6047L 15.63 43.0648Z" transform="translate(776.292 100.229)" fill="black"/>
</g>
<g id="Vector_9">
<path d="M 23.3999 54.4648L 55.9348 54.4648L 62.2947 70.6047L 79.4847 70.6047L 52.2598 -4.57762e-07L 27.2399 -4.57762e-07L 3.29589e-05 70.6047L 17.145 70.6047L 23.3999 54.4648ZM 39.7349 11.49L 50.0248 38.8198L 29.3549 38.8198L 39.7349 11.49Z" transform="translate(848.562 100.229)" fill="black"/>
</g>
<g id="Vector_10">
<path d="M 15.63 0L -4.0283e-05 0L -4.0283e-05 70.6047L 15.63 70.6047L 15.63 0Z" transform="translate(933.236 100.229)" fill="black"/>
</g>
<g id="Vector_11">
<path d="M 15.6299 14.3249L 44.5798 70.6047L 70.3048 70.6047L 70.3048 -4.57762e-07L 54.6598 -4.57762e-07L 54.6598 56.8948L 25.4099 -4.57762e-07L 3.29589e-05 -4.57762e-07L 3.29589e-05 70.6047L 15.6299 70.6047L 15.6299 14.3249Z" transform="translate(958.436 100.229)" fill="black"/>
</g>
<g id="Vector_12">
<path d="M -7.32419e-06 15.6299L 22.4699 15.6299L 22.4699 70.6047L 38.0998 70.6047L 38.0998 15.6299L 61.0197 15.6299L 61.0197 -4.11986e-06L -7.32419e-06 -4.11986e-06L -7.32419e-06 15.6299Z" transform="translate(350.054 188.444)" fill="black"/>
</g>
<g id="Vector_13">
<path d="M 15.6299 43.0648L 61.5298 43.0648L 61.5298 27.5399L 15.6299 27.5399L 15.6299 15.6299L 62.0247 15.6299L 62.0247 -4.11986e-06L -2.19726e-05 -4.11986e-06L -2.19726e-05 70.6047L 62.5347 70.6047L 62.5347 54.9748L 15.6299 54.9748L 15.6299 43.0648Z" transform="translate(420.163 188.444)" fill="black"/>
</g>
<g id="Vector_14">
<path d="M 49.5898 55.2845C 45.0866 58.2467 39.65 59.4466 34.3183 58.6552C 28.9865 57.8638 24.133 55.1365 20.6843 50.9939C 17.2356 46.8514 15.4333 41.5839 15.6216 36.197C 15.8099 30.8101 17.9755 25.6812 21.7049 21.7896C 23.7144 19.7554 26.123 18.1589 28.7793 17.1006C 31.4355 16.0422 34.282 15.5448 37.1398 15.6396C 41.3604 15.5526 45.503 16.7849 48.9898 19.1646C 52.4632 21.6128 55.2018 24.9634 56.9098 28.8546L 71.4297 22.7046C 68.8031 15.8535 64.1183 9.98447 58.0198 5.90465C 51.7626 1.89313 44.4506 -0.159474 37.0199 0.00967421C 32.1515 -0.0994033 27.311 0.774213 22.7879 2.5783C 18.2648 4.38239 14.1519 7.0799 10.695 10.5096C 3.56501 17.5096 1.46484e-05 26.4696 1.46484e-05 37.3895C 1.46484e-05 48.3095 3.545 57.3095 10.635 64.3894C 17.7249 71.3194 26.6849 74.7844 37.5148 74.7844C 44.9841 74.955 52.3305 72.8636 58.5898 68.7844C 64.7145 64.6019 69.3979 58.6297 71.9997 51.6845L 57.5698 45.3245C 55.8923 49.3247 53.1279 52.775 49.5898 55.2845L 49.5898 55.2845Z" transform="translate(489.388 186.424)" fill="black"/>
</g>
<g id="Vector_15">
<path d="M 50.9398 27.5399L 15.6449 27.5399L 15.6449 -4.11986e-06L 2.19726e-05 -4.11986e-06L 2.19726e-05 70.6047L 15.6449 70.6047L 15.6449 43.0648L 50.9398 43.0648L 50.9398 70.6047L 66.5847 70.6047L 66.5847 -4.11986e-06L 50.9398 -4.11986e-06L 50.9398 27.5399Z" transform="translate(567.958 188.444)" fill="black"/>
</g>
<g id="Vector_16">
<path d="M 54.6748 56.8948L 25.4249 -4.11986e-06L 2.01415e-05 -4.11986e-06L 2.01415e-05 70.6047L 15.6299 70.6047L 15.6299 14.3249L 44.5798 70.6047L 70.3047 70.6047L 70.3047 -4.11986e-06L 54.6748 -4.11986e-06L 54.6748 56.8948Z" transform="translate(644.503 188.444)" fill="black"/>
</g>
<g id="Vector_17">
<path d="M 37.5149 0.0187444C 32.5763 -0.112575 27.6616 0.749142 23.0623 2.55279C 18.463 4.35644 14.2727 7.06527 10.74 10.5187C 3.57999 17.5187 -5.49314e-06 26.4787 -5.49314e-06 37.3986C -5.49314e-06 48.3186 3.54498 57.3185 10.6349 64.3985C 17.7349 71.1885 26.6949 74.5835 37.5149 74.5835C 42.4534 74.7148 47.3681 73.8531 51.9674 72.0494C 56.5667 70.2458 60.757 67.5369 64.2898 64.0835C 71.4497 57.0835 75.0297 48.1236 75.0297 37.2036C 75.0297 26.2836 71.4497 17.3237 64.2898 10.3237C 60.7409 6.90536 56.5434 4.23239 51.9448 2.46252C 47.3463 0.692646 42.4398 -0.138282 37.5149 0.0187444ZM 53.2048 52.8185C 51.152 54.8699 48.7009 56.4792 46.0025 57.5472C 43.304 58.6153 40.4155 59.1194 37.5149 59.0285C 34.631 59.1304 31.7561 58.6517 29.0609 57.621C 26.3656 56.5903 23.905 55.0286 21.8249 53.0285C 17.8412 48.8264 15.6206 43.2565 15.6206 37.4661C 15.6206 31.6757 17.8412 26.1058 21.8249 21.9037C 23.8777 19.8523 26.3288 18.243 29.0272 17.1749C 31.7256 16.1069 34.6142 15.6028 37.5149 15.6937C 40.3987 15.5918 43.2736 16.0705 45.9689 17.1011C 48.6641 18.1318 51.1248 19.6936 53.2048 21.6937C 57.1886 25.8958 59.4091 31.4657 59.4091 37.2561C 59.4091 43.0465 57.1886 48.6164 53.2048 52.8185L 53.2048 52.8185Z" transform="translate(722.382 186.416)" fill="black"/>
</g>
<g id="Vector_18">
<path d="M 37.5149 0.0130406C 32.5763 -0.118279 27.6616 0.743438 23.0623 2.54708C 18.463 4.35073 14.2727 7.05957 10.7399 10.513C 3.57996 17.513 1.83105e-05 26.4729 1.83105e-05 37.3929C 1.83105e-05 48.3129 3.54495 57.3128 10.6349 64.3928C 17.7249 71.3228 26.6849 74.7877 37.5149 74.7877C 42.4535 74.9191 47.368 74.0574 51.9673 72.2537C 56.5666 70.4501 60.757 67.7412 64.2897 64.2878C 71.4497 57.2878 75.0297 48.3279 75.0297 37.4079C 75.0297 26.4879 71.4497 17.528 64.2897 10.528C 60.7582 7.07188 56.5684 4.36026 51.9691 2.55402C 47.3697 0.747774 42.4545 -0.116306 37.5149 0.0130406L 37.5149 0.0130406ZM 53.2048 52.8128C 51.152 54.8642 48.7009 56.4735 46.0025 57.5415C 43.3041 58.6096 40.4156 59.1137 37.5149 59.0228C 34.6311 59.1247 31.7561 58.646 29.0608 57.6153C 26.3656 56.5846 23.9049 55.0229 21.8249 53.0228C 17.8411 48.8207 15.6206 43.2508 15.6206 37.4604C 15.6206 31.67 17.8411 26.1001 21.8249 21.898C 23.8777 19.8466 26.3288 18.2373 29.0272 17.1692C 31.7257 16.1012 34.6142 15.5971 37.5149 15.688C 40.3987 15.5861 43.2736 16.0648 45.9688 17.0954C 48.6641 18.1261 51.1247 19.6879 53.2048 21.688C 57.1919 25.8884 59.4149 31.4589 59.4149 37.2504C 59.4149 43.0419 57.1919 48.6124 53.2048 52.8128Z" transform="translate(858.672 186.421)" fill="black"/>
</g>
<g id="Vector_19">
<path d="M 37.1249 15.624C 46.0649 15.624 52.4848 19.694 56.3848 27.834L 70.9047 21.684C 68.3297 15.0119 63.6614 9.35423 57.5998 5.55907C 51.4023 1.80102 44.2665 -0.123345 37.0199 0.00909411C 32.1515 -0.0999834 27.311 0.773633 22.7879 2.57772C 18.2648 4.38181 14.1519 7.07933 10.695 10.5091C 3.56503 17.509 3.6621e-05 26.469 3.6621e-05 37.3889C 3.6621e-05 48.3089 3.50002 57.2689 10.5 64.2688C 13.8978 67.7068 17.964 70.4122 22.4478 72.2181C 26.9315 74.024 31.7377 74.8921 36.5699 74.7688C 40.2297 74.8926 43.8779 74.2939 47.3062 73.007C 50.7344 71.7201 53.8754 69.7702 56.5497 67.2688L 56.5497 72.8188L 70.6647 72.8188L 70.6647 33.279L 37.4248 33.279L 37.4248 47.9039L 56.1898 47.9039C 52.1898 55.3039 45.8349 59.0039 37.1249 59.0039C 34.2723 59.1084 31.4284 58.6302 28.7668 57.5986C 26.1052 56.5669 23.682 55.0036 21.6449 53.0039C 17.7692 48.7296 15.6224 43.1662 15.6224 37.3965C 15.6224 31.6267 17.7692 26.0633 21.6449 21.789C 23.6583 19.7465 26.0737 18.1439 28.7382 17.0827C 31.4028 16.0216 34.2585 15.5249 37.1249 15.624L 37.1249 15.624Z" transform="translate(941.096 186.44)" fill="black"/>
</g>
<g id="Vector_20">
<path d="M 15.63 -4.11986e-06L 4.39451e-05 -4.11986e-06L 4.39451e-05 70.6047L 15.63 70.6047L 15.63 -4.11986e-06Z" transform="translate(1022.29 188.444)" fill="black"/>
</g>
<g id="Vector_21">
<path d="M 15.6299 43.0648L 61.5298 43.0648L 61.5298 27.5399L 15.6299 27.5399L 15.6299 15.6299L 62.0397 15.6299L 62.0397 -4.11986e-06L -3.6621e-06 -4.11986e-06L -3.6621e-06 70.6047L 62.5348 70.6047L 62.5348 54.9748L 15.6299 54.9748L 15.6299 43.0648Z" transform="translate(1047.84 188.444)" fill="black"/>
</g>
<g id="Vector_22">
<path d="M 59.7448 35.8957C 54.8648 32.3957 48.2249 30.3107 39.8249 29.6407L 27.7199 28.6357C 21.13 28.0957 17.8349 26.0457 17.8349 22.4857C 17.8349 17.9158 22.475 15.6308 31.7549 15.6308C 34.238 15.6189 36.7127 15.9213 39.1198 16.5308C 41.0863 16.995 42.9972 17.6688 44.8198 18.5408C 46.2345 19.2621 47.5716 20.1266 48.8098 21.1208C 49.6388 21.7477 50.4162 22.4399 51.1348 23.1907C 51.4748 23.5907 51.7448 23.8908 51.9448 24.0908L 64.0497 14.6108L 62.9398 13.1108C 61.7815 11.7601 60.4955 10.5244 59.0998 9.42081C 57.1438 7.83238 55.0676 6.39809 52.8898 5.13083C 49.9905 3.51468 46.888 2.29385 43.6649 1.50084C 39.7778 0.48078 35.7735 -0.0235441 31.7549 0.000848783C 22.9449 0.000848783 15.785 2.12083 10.275 6.36081C 7.66771 8.2396 5.55408 10.7217 4.11479 13.5951C 2.6755 16.4684 1.95334 19.6476 2.01 22.8607C 1.87142 25.7738 2.42591 28.6783 3.62801 31.3354C 4.8301 33.9925 6.64547 36.3265 8.92495 38.1457C 13.5349 41.8157 19.8049 43.9857 27.7348 44.6557L 39.8398 45.6607C 42.6467 45.7734 45.4127 46.3723 48.0148 47.4307C 48.9327 47.7849 49.7162 48.4186 50.2545 49.2422C 50.7928 50.0658 51.0588 51.0377 51.0148 52.0206C 51.0148 56.6606 45.6998 58.9806 35.0698 58.9806C 32.3831 58.9823 29.707 58.6446 27.1049 57.9756C 24.882 57.4468 22.7204 56.6877 20.6549 55.7106C 18.9878 54.876 17.3879 53.9131 15.8699 52.8306C 14.8326 52.1424 13.8313 51.4014 12.8699 50.6106L 11.8049 49.6056L -2.92968e-05 59.6856L 1.21496 61.1856C 2.42141 62.5724 3.77427 63.8247 5.24995 64.9206C 7.34542 66.5684 9.55053 68.0719 11.85 69.4206C 14.9719 71.0934 18.3151 72.3156 21.7799 73.0506C 26.0735 74.0771 30.4754 74.5808 34.8899 74.5506C 44.7098 74.5506 52.5298 72.4156 58.3498 68.1456C 61.1027 66.2615 63.3426 63.7209 64.8668 60.7536C 66.3911 57.7863 67.1517 54.4858 67.0798 51.1506C 67.0698 44.4707 64.6247 39.3857 59.7448 35.8957Z" transform="translate(1115.22 186.448)" fill="black"/>
</g>
<g id="Vector_23">
<path d="M 15.4649 54.9748L 15.63 -4.11986e-06L -2.56347e-05 -4.11986e-06L -2.56347e-05 70.6047L 50.5648 70.6047L 50.3848 54.9748L 15.4649 54.9748Z" transform="translate(805.752 188.444)" fill="black"/>
</g>
<g id="Vector_24">
<path d="M 57.0748 34.4399C 60.2968 30.5209 61.977 25.5603 61.7997 20.4899C 61.9044 17.7104 61.3986 14.9416 60.3179 12.3786C 59.2372 9.81556 57.608 7.52053 55.5448 5.65498C 51.3748 1.885 45.9298 -2.28881e-06 39.2098 -2.28881e-06L -4.57762e-06 -2.28881e-06L -4.57762e-06 70.6197L 41.9999 70.6197C 48.7198 70.6197 54.1648 68.7197 58.3348 64.9197C 60.3958 63.0429 62.023 60.7394 63.1033 58.1696C 64.1835 55.5999 64.6908 52.8255 64.5898 50.0398C 64.5358 47.0515 63.8362 44.1102 62.5391 41.4176C 61.242 38.725 59.3779 36.3447 57.0748 34.4399ZM 15.6299 15.6449L 37.9798 15.6449C 43.4298 15.6449 46.1548 17.6449 46.1548 21.6449C 46.1548 25.6449 43.4298 27.5949 37.9798 27.4949L 15.6299 27.4949L 15.6299 15.6449ZM 40.7548 54.9898L 15.6299 54.9898L 15.6299 43.0948L 40.7548 43.0948C 46.2648 43.0948 49.0198 45.0948 49.0198 49.0948C 49.0198 53.0948 46.2648 55.0598 40.7548 54.9898Z" transform="translate(349.799 100.274)" fill="black"/>
</g>
<g id="Vector_25">
<path d="M 15.63 58.4548L 27.0299 44.2498L 47.2198 70.6047L 67.2297 70.6047L 37.3498 31.3949L 62.5498 -4.57762e-07L 41.5049 -4.57762e-07L 15.63 31.9049L 15.63 -4.57762e-07L -3.6621e-06 -4.57762e-07L -3.6621e-06 70.6047L 15.63 70.6047L 15.63 58.4548Z" transform="translate(634.213 100.229)" fill="black"/>
</g>
<g id="Vector_26">
<path d="M 37.6199 74.7259C 43.7746 74.7946 49.8589 73.4123 55.3798 70.6909L 65.0697 80.2759L 76.1697 69.2659L 67.6197 60.686C 72.6969 53.9888 75.342 45.7623 75.1197 37.3611C 75.1197 26.3611 71.5347 17.3911 64.3647 10.4512C 57.056 3.73012 47.4891 -4.43302e-10 37.5598 -4.4329e-10C 27.6306 -4.43285e-10 18.0637 3.73012 10.755 10.4512C 3.58498 17.4511 -2.74657e-06 26.4211 -2.74657e-06 37.3611C -2.74657e-06 48.301 3.54999 57.301 10.65 64.361C 17.7599 71.2709 26.7499 74.7259 37.6199 74.7259ZM 21.8699 21.8661C 23.9302 19.808 26.3912 18.1948 29.1004 17.1266C 31.8096 16.0584 34.7093 15.5579 37.6199 15.6561C 40.506 15.554 43.3832 16.0324 46.0809 17.0631C 48.7787 18.0937 51.242 19.6556 53.3248 21.6561C 55.3882 23.6907 57.0058 26.1323 58.0749 28.8256C 59.1439 31.519 59.6411 34.4052 59.5347 37.3011C 59.6139 40.1712 59.1037 43.027 58.0356 45.6921C 56.9675 48.3572 55.3642 50.775 53.3248 52.796C 51.2705 54.8505 48.8173 56.4627 46.1164 57.5333C 43.4154 58.6039 40.5239 59.1102 37.6199 59.021C 34.7336 59.124 31.8562 58.646 29.1583 57.6153C 26.4604 56.5846 23.9972 55.0222 21.9149 53.021C 19.8515 50.9864 18.2339 48.5449 17.1649 45.8515C 16.0958 43.1582 15.5986 40.2719 15.7049 37.3761C 15.6179 34.5067 16.12 31.65 17.1804 28.9823C 18.2408 26.3147 19.8368 23.8927 21.8699 21.8661L 21.8699 21.8661Z" transform="translate(347.879 9.97852)" fill="black"/>
</g>
</g>
<g id="Vector_27">
<path d="M 271.064 101.535L 169.499 0L 135.539 34.0049L 101.535 0L 0 101.535L 34.0049 135.539L 0 169.499L 101.535 271.034L 135.539 236.999L 169.499 271.064L 271.064 169.499L 236.999 135.539L 271.064 101.535ZM 234.944 135.539L 135.539 234.944L 36.1199 135.539L 135.539 36.1199L 234.944 135.539Z" fill="#FF8C00"/>
</g>
</g>
</g>
</g>
</g>
</svg>

