<svg xmlns="http://www.w3.org/2000/svg" viewBox="0 0 100 31.31879" fill="#2d2d2d"><path class="st0" d="M10.51 11.888h1.275c.13 0 .193-.07.193-.208V2.173c0-.14-.064-.21-.193-.21H10.51c-.128 0-.192.07-.192.21v9.507c0 .14.064.208.193.208zm11.734 0H23.7c.118 0 .193-.06.22-.18L26.537 2.2c.046-.157-.014-.236-.18-.236h-1.37c-.112 0-.18.06-.21.18l-1.148 4.61a45.39 45.39 0 0 0-.666 3.135h-.04c-.25-1.175-.526-2.3-.832-3.373l-1.204-4.234c-.027-.12-.102-.18-.22-.18h-1.36c-.118 0-.193.06-.22.18l-1.19 4.234a51.895 51.895 0 0 0-.846 3.372h-.04a49.957 49.957 0 0 0-.665-3.137l-1.15-4.608c-.028-.12-.1-.18-.22-.18h-1.358c-.168 0-.227.078-.18.235l2.616 9.508c.027.12.102.18.22.18h1.454c.12 0 .194-.06.222-.18l1.302-4.372a32.72 32.72 0 0 0 .706-3.11h.056a26.13 26.13 0 0 0 .72 3.11l1.287 4.372c.027.12.102.18.22.18zm7.414-.208V2.173c0-.14-.064-.21-.194-.21H28.19c-.128 0-.193.07-.193.21v9.507c0 .14.065.208.194.208h1.274c.13 0 .194-.07.194-.208zm5.456.208h3.6c1.06 0 1.892-.26 2.49-.784.602-.523.9-1.25.9-2.186 0-1.12-.47-1.883-1.41-2.29.654-.398.982-1.046.982-1.943 0-.86-.26-1.53-.782-2.006-.52-.477-1.248-.716-2.18-.716h-3.6c-.13 0-.194.07-.194.21v9.506c0 .14.064.208.194.208zm1.467-8.425h2.078c.397 0 .717.107.962.32s.367.522.367.93c0 .416-.12.73-.36.943-.24.213-.563.32-.97.32h-2.076V3.463zm0 3.97h2.106c.572 0 1 .132 1.288.396.286.262.43.62.43 1.074 0 .99-.57 1.485-1.705 1.485h-2.12V7.432zm10.066 4.58c.102-.01.152-.083.152-.222v-1.026c0-.14-.07-.208-.208-.208a7.57 7.57 0 0 1-.526.027c-.314 0-.545-.1-.693-.298-.148-.2-.22-.525-.22-.978V2.173c0-.14-.07-.21-.21-.21h-1.19c-.138 0-.208.07-.208.21v7.19c0 .85.2 1.512.603 1.984.4.472.97.708 1.71.708.286 0 .55-.015.79-.042zm4.203.042c.96 0 1.726-.252 2.3-.757s.857-1.187.857-2.047V7.39c0-.868-.286-1.562-.858-2.08-.574-.52-1.34-.778-2.3-.778-.96 0-1.726.26-2.298.777-.573.518-.86 1.212-.86 2.08v1.86c0 .86.287 1.544.86 2.048s1.338.757 2.298.757zM49.313 7.39c0-.462.132-.813.395-1.053s.644-.36 1.142-.36c.49 0 .868.12 1.136.366.267.245.4.595.4 1.048v1.86c0 .445-.13.783-.393 1.014-.264.23-.645.347-1.143.347-1.024 0-1.537-.452-1.537-1.36V7.39zm11.52 3.887c.102-.073.115-.166.042-.277l-.582-.833c-.065-.11-.162-.13-.29-.056-.508.334-1.044.5-1.607.5-.48 0-.852-.117-1.114-.353-.264-.236-.395-.566-.395-.992V7.32c0-.433.13-.766.395-.998.262-.23.638-.346 1.127-.346.384 0 .75.1 1.11.255v.56c0 .075.07.136.156.136h.91c.087 0 .157-.06.157-.137V5.352c0-.008-.007-.013-.01-.02 0-.008-.007-.015-.01-.023a.125.125 0 0 0-.046-.062c-.015-.016-.016-.036-.038-.05a4.217 4.217 0 0 0-2.272-.666c-.95 0-1.703.252-2.256.756-.554.505-.83 1.182-.83 2.033v1.93c0 .852.276 1.532.83 2.04.553.51 1.31.765 2.27.765.905 0 1.722-.26 2.45-.777zm7.457.543c.018-.048.004-.108-.042-.182L65.285 7.78l2.673-2.846c.055-.064.073-.12.055-.166-.02-.046-.075-.07-.167-.07H66.42c-.11 0-.193.033-.248.098l-2.438 2.65V2.174c0-.14-.07-.21-.207-.21h-1.19c-.14 0-.21.07-.21.21v9.507c0 .14.07.208.21.208h1.19c.138 0 .207-.07.207-.208V9.404l.485-.5 2.172 2.86c.047.082.135.124.264.124h1.467c.093 0 .148-.023.167-.07zm10.47-7.288a4.56 4.56 0 0 0-1.497.236v-2.6A2.19 2.19 0 0 0 75.076 0h-2.69A2.19 2.19 0 0 0 70.2 2.192v.446c0 .523.17 1.053.574 1.386.167.138.432.328.734.535-.765.06-1.394.297-1.867.728-.553.505-.83 1.182-.83 2.033v1.93c0 .852.277 1.532.83 2.04.554.51 1.31.765 2.27.765.904 0 1.72-.258 2.447-.774a.205.205 0 0 0 .047-.28l-.582-.833c-.065-.11-.162-.13-.292-.056a2.87 2.87 0 0 1-1.605.5c-.48 0-.852-.117-1.115-.353s-.394-.566-.394-.992V7.32c0-.433.13-.766.394-.998.263-.23.64-.346 1.128-.346.384 0 .75.1 1.108.254v.56c0 .075.07.136.156.136h.91c.088 0 .158-.06.158-.137V5.46c0-.252-.54-.53-1.12-.95-.756-.55-1.6-1.28-1.6-1.874v-.393c0-.56.452-1.015 1.012-1.015h2.047c.577 0 1.045.47 1.045 1.05v.5h.002v8.9c0 .115.093.208.208.208h1.19a.208.208 0 0 0 .208-.208V6.225c.333-.166.776-.25 1.33-.25.534 0 .932.13 1.19.39.26.258.387.707.387 1.346v3.97a.21.21 0 0 0 .21.208h1.203c.13 0 .194-.07.194-.208V7.67c0-1.065-.277-1.854-.83-2.368-.555-.513-1.284-.77-2.188-.77zm7.393 0c-1.098 0-2.002.245-2.713.735-.064.056-.064.135 0 .236l.555.847c.073.12.165.14.276.055.5-.296 1.09-.443 1.773-.443.508 0 .865.11 1.073.326.208.217.312.575.312 1.075v.264a10.796 10.796 0 0 0-1.385-.11c-.923 0-1.66.186-2.208.56-.55.376-.824.93-.824 1.66 0 .805.292 1.393.873 1.762.58.37 1.32.555 2.215.555.96 0 1.888-.14 2.783-.417a.24.24 0 0 0 .153-.236V7.35c0-.945-.255-1.65-.768-2.117-.512-.467-1.216-.7-2.112-.7zm1.275 5.954c-.462.11-.905.167-1.33.167-.443 0-.798-.076-1.066-.23a.753.753 0 0 1-.4-.7c0-.61.484-.916 1.453-.916.396 0 .845.037 1.343.11v1.57zM91.44 1.91a.894.894 0 0 0-.65.256.863.863 0 0 0-.264.645c0 .26.088.477.264.653.175.176.392.264.65.264s.473-.088.645-.264a.9.9 0 0 0 .255-.652.878.878 0 0 0-.9-.9zm.596 2.79H90.83c-.137 0-.207.063-.207.193v6.787c0 .14.07.208.208.208h1.206c.13 0 .194-.07.194-.208V4.893c0-.13-.065-.194-.194-.194zm7.112.588c-.567-.504-1.354-.756-2.36-.756s-1.925.18-2.755.54c-.102.047-.152.13-.152.25v6.358c0 .14.07.208.208.208h1.19c.14 0 .208-.07.208-.208V6.128a5.125 5.125 0 0 1 1.302-.152c.535 0 .937.127 1.204.38.268.256.402.693.402 1.313v4.01c0 .14.07.208.208.208h1.204c.13 0 .194-.07.194-.208V7.64c0-1.063-.284-1.847-.852-2.352zM7.657 19.966v-1.138c0-.14-.07-.21-.208-.21H.207c-.138 0-.208.07-.208.21v1.138c0 .13.07.194.208.194h2.797v8.175c0 .14.064.208.194.208H4.47c.13 0 .195-.07.195-.208V20.16H7.45c.138 0 .207-.064.207-.194zm2.676 1.221c-.85 0-1.57.236-2.16.708-.59.472-.885 1.185-.885 2.137v1.97c0 .87.293 1.54.88 2.007s1.302.7 2.152.7c1.07 0 2.007-.32 2.81-.958.12-.092.134-.19.042-.292l-.568-.763c-.075-.102-.166-.115-.277-.04-.628.424-1.278.637-1.952.637-.453 0-.81-.11-1.074-.326-.26-.217-.393-.535-.393-.95v-.39h4.21c.138 0 .207-.064.207-.194v-1.402c0-.952-.29-1.665-.866-2.137-.576-.472-1.285-.708-2.125-.708zm1.427 3.192H8.907v-.362c0-.943.475-1.416 1.426-1.416.416 0 .758.117 1.025.348.268.23.402.588.402 1.068v.36zm7.81 2.443c-.065-.11-.162-.13-.29-.056-.508.334-1.044.5-1.607.5-.48 0-.852-.118-1.114-.354-.265-.235-.396-.566-.396-.992v-1.944c0-.434.13-.767.395-1 .26-.23.638-.345 1.127-.345.384 0 .75.102 1.108.256v.55c0 .076.07.138.157.138h.91c.087 0 .158-.062.158-.137V22c0-.006-.007-.01-.008-.015 0-.004-.004-.007-.005-.01a.126.126 0 0 0-.06-.08c-.013-.014-.013-.03-.03-.042a4.217 4.217 0 0 0-2.272-.666c-.95 0-1.703.252-2.256.756-.555.505-.832 1.182-.832 2.033v1.93c0 .85.277 1.53.83 2.04.554.51 1.312.764 2.272.764.904 0 1.72-.26 2.45-.777.102-.074.115-.167.042-.278l-.582-.833zm4.937-5.635c-.546 0-1.044.08-1.495.236v-2.595c0-.14-.07-.21-.208-.21h-1.19c-.14 0-.21.07-.21.21v9.507c0 .14.07.208.21.208h1.19c.138 0 .208-.07.208-.208V22.88c.332-.166.775-.25 1.328-.25.535 0 .933.13 1.19.39.26.258.39.707.39 1.346v3.97c0 .138.068.207.207.207h1.205c.128 0 .193-.07.193-.208v-4.01c0-1.065-.277-1.854-.83-2.368-.554-.513-1.283-.77-2.188-.77zm7.533 0c-1.007 0-1.925.18-2.756.54-.1.048-.152.13-.152.25v6.358c0 .14.07.208.207.208h1.19c.14 0 .208-.07.208-.208v-5.552c.387-.102.82-.152 1.3-.152.536 0 .94.128 1.206.382.268.255.402.692.402 1.312v4.01c0 .14.07.21.207.21h1.205c.13 0 .193-.07.193-.21v-4.038c0-1.064-.283-1.848-.85-2.353-.567-.504-1.355-.756-2.36-.756zm7.777 0c-.96 0-1.726.26-2.3.777-.57.52-.857 1.213-.857 2.082v1.86c0 .86.286 1.543.858 2.047s1.34.757 2.3.757c.96 0 1.725-.252 2.298-.757s.858-1.187.858-2.047v-1.86c0-.87-.286-1.563-.858-2.082-.573-.518-1.34-.777-2.3-.777zm1.537 4.72c0 .443-.132.78-.394 1.012-.264.23-.645.346-1.143.346-1.024 0-1.537-.453-1.537-1.36v-1.86c0-.463.132-.814.395-1.054.263-.24.644-.36 1.142-.36.49 0 .868.12 1.136.366.267.245.4.595.4 1.048v1.86zm6.094 1.303a7.57 7.57 0 0 1-.526.028c-.314 0-.545-.1-.693-.298-.148-.2-.22-.525-.22-.978v-7.134c-.002-.14-.07-.21-.21-.21h-1.19c-.138 0-.208.07-.208.21v7.19c0 .85.2 1.512.603 1.984.4.472.97.708 1.71.708.285 0 .55-.014.79-.042.1-.01.15-.083.15-.222V27.42c0-.14-.068-.21-.207-.21zm4.26-6.023c-.96 0-1.727.26-2.3.777-.57.52-.858 1.213-.858 2.082v1.86c0 .86.287 1.543.86 2.047s1.338.757 2.298.757 1.726-.252 2.298-.757.86-1.187.86-2.047v-1.86c0-.87-.287-1.563-.86-2.082-.572-.518-1.338-.777-2.298-.777zm1.536 4.72c0 .443-.13.78-.394 1.012-.264.23-.644.346-1.142.346-1.025 0-1.537-.453-1.537-1.36v-1.86c0-.463.133-.814.395-1.054.264-.24.645-.36 1.143-.36.49 0 .867.12 1.135.366.267.245.4.595.4 1.048v1.86zm8.856-4.179a7.01 7.01 0 0 0-2.77-.54c-.96 0-1.733.238-2.32.714-.585.476-.878 1.228-.878 2.255v1.305c0 .934.282 1.647.845 2.137s1.278.735 2.146.735a3.78 3.78 0 0 0 1.537-.305c.018.684-.093 1.165-.333 1.443-.24.277-.627.416-1.163.416a3.112 3.112 0 0 1-1.87-.625c-.11-.084-.202-.065-.276.055l-.58.86c-.066.12-.052.214.04.278.738.574 1.64.86 2.7.86 2.05 0 3.074-1.077 3.074-3.233v-6.12c0-.12-.05-.2-.152-.237zm-1.454 4.844c-.277.232-.733.347-1.37.347-1.016 0-1.523-.487-1.523-1.458v-1.305c0-.564.138-.96.414-1.186.277-.226.674-.34 1.19-.34.556 0 .985.05 1.29.153v3.79zm4.684-5.218h-1.207c-.137 0-.207.064-.207.194v6.787c0 .14.07.208.207.208h1.206c.127 0 .193-.07.193-.208v-6.787c0-.13-.066-.194-.194-.194zm-.597-2.79a.894.894 0 0 0-.65.257.863.863 0 0 0-.264.646c0 .26.087.476.263.652a.88.88 0 0 0 .65.264.862.862 0 0 0 .644-.264.9.9 0 0 0 .256-.652.878.878 0 0 0-.9-.902zm5.283 2.623c-.85 0-1.57.236-2.16.708-.59.472-.885 1.185-.885 2.137v1.97c0 .87.293 1.54.88 2.007.585.466 1.303.7 2.153.7 1.07 0 2.006-.32 2.81-.958.12-.092.134-.19.04-.292l-.567-.763c-.074-.102-.165-.115-.277-.04-.628.424-1.278.637-1.952.637-.453 0-.81-.11-1.074-.326-.263-.217-.394-.535-.394-.95v-.39h4.21c.138 0 .206-.064.206-.194v-1.402c0-.952-.288-1.665-.865-2.137-.576-.472-1.284-.708-2.124-.708zm1.427 3.192H68.59v-.362c0-.943.475-1.416 1.426-1.416.416 0 .757.117 1.024.348.27.23.403.588.403 1.068v.36zm7.622.416a4.485 4.485 0 0 0-.795-.346 7.96 7.96 0 0 0-.9-.21c-.555-.11-.95-.222-1.185-.332a.57.57 0 0 1-.353-.556c0-.23.11-.416.333-.555.22-.14.53-.208.927-.208.477 0 .935.12 1.383.307v.503c0 .076.07.138.157.138h.91c.087 0 .157-.062.157-.138v-1.436c0-.01-.01-.014-.01-.022-.003-.012-.012-.022-.017-.033a.125.125 0 0 0-.047-.053c-.016-.014-.02-.033-.042-.045-.784-.426-1.587-.64-2.41-.64s-1.515.184-2.082.55c-.568.365-.852.91-.852 1.63 0 .324.067.613.2.868.135.254.294.458.48.61.183.153.415.29.697.41s.524.208.728.264c.203.055.434.106.692.152.405.075.722.167.95.278.224.11.338.29.338.54 0 .26-.12.46-.36.598-.24.14-.55.208-.928.208a3.395 3.395 0 0 1-1.714-.47v-.582c0-.076-.07-.138-.156-.138h-.912c-.086 0-.156.062-.156.138v1.436c0 .005.004.008.005.013.002.014.012.026.02.04.01.02.02.038.042.052.013.01.014.027.032.037.82.602 1.757.903 2.81.903.866 0 1.573-.197 2.117-.59.545-.394.817-.965.817-1.715 0-.38-.073-.703-.22-.97a1.598 1.598 0 0 0-.66-.64zM4.528 12.055c.822 0 1.537-.172 2.146-.514l.858.903c.084.11.18.11.29 0l.68-.666c.092-.092.092-.19 0-.292l-.803-.832c.478-.64.72-1.458.72-2.457V5.642c0-1.212-.343-2.156-1.026-2.83-.683-.676-1.64-1.014-2.866-1.014-1.228 0-2.183.338-2.866 1.013C.98 3.487.638 4.43.638 5.643v2.554c0 1.212.34 2.158 1.024 2.84.683.68 1.638 1.02 2.866 1.02zm-2.188-6.4c0-1.526.73-2.29 2.188-2.29.71 0 1.253.195 1.626.584.374.388.56.957.56 1.706v2.54c0 .426-.077.82-.234 1.18l-.004.003-.746-.784c-.175-.184-.29-.137-.29.118v1.565a2.406 2.406 0 0 1-.94.192c-1.44-.018-2.16-.777-2.16-2.276v-2.54z"/></svg>