<svg xmlns="http://www.w3.org/2000/svg" viewBox="0 0 528.1328125 238.2769012" fill="#cbcccd"><path class="st0" d="M463.6 9.928h-4.965v4.964h9.928V9.928zm29.784 4.964h4.964V9.928h-4.964V4.964h-4.964V0h-19.856v4.964h9.928v4.964h4.964v4.964h4.964zm-89.354 4.964v4.964h19.857v4.965h24.82V24.82h-14.893v-4.964H413.96v-4.964h-19.856v4.964h4.964zm74.462-4.964h-9.928v4.964h14.892v-4.964zM364.317 24.82h24.823v-4.964h-34.75v4.964h4.963zm-44.677 9.93h29.785v-4.965h-39.713v4.964h4.964zm64.534-4.965v4.964h29.784v-4.965h-24.82zm-19.857 9.928h14.894V34.75h-9.929v-4.965H354.39v4.964h4.963v4.963z"/><path class="st0" d="M443.743 34.75h-24.82v4.963h-9.929v4.964h39.713v4.964h19.857v-4.963h19.856v-4.964h4.964V34.75h-34.75v-4.965h34.748v-9.929h-9.928v4.964H453.67v4.965h-4.963v4.964zm-119.138 4.963h4.964v4.964h-4.965zm24.82 0h-4.964v4.964h14.892v-4.964h-4.964zm44.677 4.964h-4.964v4.964h14.892v-4.963h-4.964zM518.205 59.57v-4.965h-4.965v4.964h-9.928v9.927h9.928v4.965h-14.892v4.964h19.857v-4.964h9.927v-4.965h-4.964v-4.964h4.963V59.57h-4.964zm-129.067 4.963V59.57h-29.784v4.963h24.821v4.964h9.928v-4.964zm104.246 4.964h4.964v4.964h-4.964zM354.39 79.426v-4.964h-9.929v4.964h4.965zm-71.98 4.964v-4.964h-9.928v4.964h4.964zm37.23 0v4.964h29.785V84.39h-24.82z"/><path class="st0" d="M498.348 84.39h-29.784V69.497H463.6V54.604h-19.856V49.64H428.85v4.965h9.929v4.964h-14.892v4.963h-14.893v4.964h-14.892v4.965h24.821v4.964H379.21v4.964h19.856v4.964h-39.712v4.964h14.893v4.964h-24.821v4.964h34.749v4.964H344.46v4.964h64.535v-4.964h4.964v4.964h-4.964v4.964h9.929v-4.964h14.893v-4.964h-4.964v-4.964h-9.927v-4.964h-9.929v-4.964h4.964v-4.964h14.893V84.39h4.965v-4.964h9.927v9.928h9.928v4.964h-4.963v4.964h4.964v4.964h4.965v4.964h4.964v-4.964h14.886v-4.964h9.928v-4.964h9.928v-4.964h9.928V84.39h-9.928zm-24.82 4.964v4.964H463.6v-4.964h9.928zm-24.82-29.785v4.963h-4.965V59.57h4.964zm-49.642 49.64h-9.928v-4.964h14.892v4.964h-4.964zm-94.318-14.891v-4.964h-9.928v4.964h4.964zm19.857 29.785h4.964v4.964h-4.965z"/><path class="st0" d="M448.707 124.103h-14.893v-4.965h-9.927v4.965h-29.785v-4.965H329.57v4.965h9.927v4.964h-9.928v4.964h-9.93v4.965h14.892v-4.964h34.748v-4.963h9.93v-4.964h9.928v4.964h14.893v4.964h49.641v-4.963h-4.963zm-218.42 14.892h-24.821v4.964h24.821zm114.173 0h-4.963v4.964h14.893v-4.965h-4.965zm94.32 0h-4.965v4.964h-9.927v-4.965h-4.964v4.964h-9.929v4.963h4.964v4.964h-14.893v4.964h29.784v-4.963h9.929v-4.964h4.963v-4.964h4.964v-4.965h-4.964zm-54.606 9.928h4.964v4.964h-4.964zm-49.641 0h-4.964v4.964h-9.93v-4.964h-14.891v4.964h-9.928v4.964h19.856v4.965h-29.784v4.964h-4.964v4.964h-4.964v4.964h-19.857v4.964h9.929v4.964h-4.964v4.964h-4.963v4.964h-14.893v14.892h9.927v4.964h-9.929v14.892h4.964v4.964h19.856v-4.964h-4.964v-19.858h4.965v-4.964H270v-4.964h-9.929v-4.964h14.893V193.6h4.964v-4.964h9.928v-4.964h-9.928v-4.964h19.856v-4.964h9.928v-4.965h9.928v-4.965h4.965v-4.964h9.927v-4.963h9.928v-4.964h-4.963zm-76.653 14.892h14.892v-4.964H247.95v4.965h4.964zm22.048-39.712h4.964v4.964h-4.964zm-93.448-9.929h-49.641v4.964h59.568v-4.964h-4.964z"/><path class="st0" d="M324.605 114.174h-19.857v4.964h24.822v-4.964zm79.425 49.641h-14.892v4.964h-9.928v4.964h-9.929v4.964h-4.963v9.928h4.964v4.964h9.93v4.964h14.89v4.964h-4.964v4.964h4.964v4.964h14.892v-9.928h-4.964v-4.964h-4.964v-9.928h-4.964v-14.891h4.964v-4.965h14.892v-4.965h-9.928zm-14.892 19.857h-9.928v-4.964h9.928v4.964z"/><path class="st0" d="M369.28 198.564v4.964h9.93v-4.964h-4.964zm-158.85 14.892h4.964v4.964h-4.964zm24.82 0h-4.963v4.964h9.929v-4.964z"/></svg>