<svg xmlns="http://www.w3.org/2000/svg" viewBox="0 0 480.5678101 164.5992432" fill="#cbcccd"><path class="st0" d="M246.382 47.506h33.455V44.16H239.69v3.346h3.346zm50.183 3.346v-3.346h-6.692v3.346h3.345zm-80.293 0h6.692v-3.346H209.58v3.346h3.347zm83.638 0h3.345v3.345h-3.345zm-23.418 0H256.42v3.345h20.073zm-40.147 3.345h10.038v-3.345h-16.727v3.345H233zm-43.491 0h3.345v-3.345h-10.037v3.345h3.345zm117.093 0H306.6v3.346h6.692v-3.346zm-30.11 3.346h13.383v-3.346h-13.384zm-30.109-3.346h3.346v3.346h-3.346zm-43.492 3.346h13.384v-3.346h-20.072v3.346h3.345z"/><path class="st0" d="M319.983 60.888v3.346h10.036v-3.346h-6.689v-3.345h-10.04v3.345h3.346z"/><path class="st0" d="M296.565 60.888h3.345v3.346h13.383v-3.346h-10.035v-3.345h-6.693zm-90.329 0h3.345v3.346h-3.344zm-60.219 0h3.345v3.346h-3.345zm20.073 3.346h3.346v3.345h-3.346zm173.966 6.691v3.345h10.037v-3.345h-6.691V67.58h-10.036v3.345h3.346zm-90.328-3.345h3.346v3.345h-3.346zm76.946 3.345V67.58H313.29v3.345h10.037v3.345h10.035v-3.345h-3.345zm-177.312 0h-16.726v3.345h23.419v-3.345h-3.345zm167.276 3.345h-20.072v3.346h26.765V74.27h-3.347zm-210.768 0v3.346h10.038V74.27h-6.691zm220.804 6.69h16.729v-3.344H323.33v3.345zM209.58 77.616h3.346v3.346h-3.345zm-46.836 0v3.345h10.037v-3.344h-6.69zM99.18 80.96v-3.344h-6.69v3.345h3.344zm147.202 0h-3.346v3.347h30.11V80.96h-23.418zm-16.727 0H233v3.346h-3.345zm-43.492 3.347h16.727V80.96h-23.42v3.347h3.345zm-33.455 0h3.345v3.346h-3.345zm-40.148 0h-6.689v3.345h20.075v-3.345h-10.037zm321.17 6.691h3.346v-3.346H427.04v3.346h3.345z"/><path class="st0" d="M313.292 90.998h20.072v-3.346h30.111v-3.345h6.691v3.345h6.692v3.346h10.037v-3.346h33.455v-3.345h-26.764V80.96h-23.419v-3.344h-20.075v3.345h3.345v3.347h-56.872v3.345H306.6v3.346h3.347zm-23.418 0h3.345v-3.346h-13.383v3.346h6.692zm-16.728-3.346h3.346v3.345h-3.346zm150.548 3.346H390.24v3.346h36.8v-3.346z"/><path class="st0" d="M356.784 90.998h-16.728v3.346h20.073v-3.346zm-210.767 0H129.29v3.346h16.728zm173.966 3.346H306.6v-3.346h-10.035v3.346h6.691v3.345h20.074v-3.346zm-43.491 3.346h10.036v-3.346h-20.072v3.345h6.692zm-23.419 0h3.345v3.344h-3.345zm-133.82 0h-6.692v3.344h13.384V97.69h-3.346zm-20.073 0h3.345v3.344H99.18zm-16.728 3.344H92.49V97.69H75.76v3.344h3.346zm381.388 0h3.345v3.346h-3.345zm-204.076 3.346v3.345H269.8v-3.345h-6.69zm-56.874 0v3.345h20.075v-3.345h-16.727zm-30.11 0h-3.345v3.345h23.42v-3.345h-16.728zm-23.418 0h-3.345v3.345h10.036v-3.345h-3.345zM233 111.07h10.037v-3.345H226.31v3.346h3.345zm-107.056-3.345h-6.691v3.346h6.691zm-30.11 0H85.796v3.346h23.419v-3.345H99.18zm-36.801 0h3.345v3.346h-3.345zm214.113 6.691v-3.345h-26.764v3.346H269.8zm-56.874 3.346h6.692v-3.346h-36.801v3.346h26.764z"/><path class="st0" d="M477.222 117.762h-16.726v-3.346h10.034v-3.345h6.692v-3.345h-3.345v-3.345h-6.69v6.689h-3.346v-3.345h-6.691v-3.345h-23.42v-3.346h6.692V97.69h13.382v-3.346h-6.691v-3.346h-10.037v3.346H427.04v3.345h-40.147v-3.346h-10.037v-3.346H366.82v3.346h-6.69v3.345h-36.8v3.344h80.291v3.346h-6.691v3.345h-3.345v3.346h-3.346v-3.345h3.345v-3.345H286.527v3.345h16.728v3.346h-23.419v3.346h10.037v3.346h-16.728v3.346h30.11v3.345h-50.183v3.346h10.036v3.344H222.96v3.346h36.803v3.345H233v3.345h123.785v3.346h-66.911v3.346h-46.838v-3.346h-20.073v3.346h-10.036v3.345h167.275v-3.345h6.692v3.345h3.345v3.346h3.345v3.345h6.692v3.346h10.037v3.345h13.381v-3.346h10.037v-3.346h3.346v-3.345h3.346v-3.346h6.69v-3.345h26.764v-3.346h6.691v-3.346h-3.346v-3.345H457.15v-3.345h6.69v-3.346h-20.074v10.038h-3.345v6.692h-3.346v3.345h-3.345v3.346h-6.69v-3.346h6.69v-3.345h3.346v-3.346h-3.345v-3.346h6.692v-20.073h-3.346v-3.346h-3.345v3.346h-3.345v3.345h-3.345v3.346h-3.346v-3.347h3.346v-6.689h6.688v-3.346h-3.345v-3.345H403.62v3.346h3.347v3.346h-3.346v-3.346h-3.344v3.346h-3.346v3.346h3.346v3.345h6.692v3.346h3.345v3.344h-10.035V127.8h-3.346v-6.692h-10.037v-3.346h6.69v-3.346h3.345v-3.345h6.689v-3.345h6.692v-3.345h20.072v3.345h10.038v3.346h3.345v-3.345h10.037v3.346h-10.037v3.346h-3.345v3.346h3.345v3.346h36.801v-3.346h-3.346zm-207.42 20.073h-3.347v-3.345h3.346v3.345zm36.8-16.727h3.345v3.345H306.6v-3.345zm-16.728 6.69h3.345v3.346h-3.346V127.8zm36.8 6.692H313.29v3.345h-33.455v-3.345h20.072v-3.346h26.764v3.346zm6.69-10.037h-3.344v-3.345h3.345v3.345zm6.692 10.037h-3.345v-3.346h3.346v3.346zm20.073-20.074H313.29v-3.345h46.837v3.346zm16.727 10.037h-3.346v-3.345h3.347v3.345zm53.528 6.69V127.8h6.692v3.344h-3.345v3.346h-3.345v-3.346zm-13.382-10.035v-6.692h3.346v10.037h-3.347v-3.345zm-6.69 20.072v-3.345h3.345v-6.691h6.693v6.691h3.344v-6.691h3.346v6.691h3.345v3.345h-3.345v-3.345h-3.346v6.691h3.346v3.346h-3.346v-3.346h-3.345v-3.346h-3.347v-3.345h-3.345v3.345h-3.346v10.037h-3.345v3.346h10.037v-3.346h6.69v3.346h-3.345v3.345h-13.382v-3.345h-3.346v-3.346h-3.344v-6.691h3.345v-3.346h6.692zm-16.728-3.345v-3.345h13.384v3.345h-6.691v3.345h-6.692v-3.345z"/><path class="st0" d="M263.11 117.762h-6.69v3.346h13.38v-3.346h-3.345zm-23.42 0h-10.035v3.346h20.074v-3.346h-6.692zm-36.8 3.346h-13.383v3.345h20.073v-3.345h-3.344zm-33.455 0h3.345v3.346h-3.345zm-30.109 0h3.345v3.346h-3.344zm334.551 3.345h-3.346v3.346h10.038v-3.347h-3.346zm-16.727 0h-10.037v3.346h16.727v-3.347h-3.345zm-331.206 0h3.346v3.345h-3.346zm70.256 6.691V127.8h-6.692v3.344h3.346zm277.677 0h3.346v3.345h-3.346zm-357.97 0h-36.8v3.346H122.6v-3.346h-3.345zm83.638 6.691h-6.692v3.345h13.381v-3.345h-3.346zm0 6.691h-6.692v3.346h13.381v-3.346h-3.346zm-63.565 0v3.346h6.69v-3.346h-3.344zm-10.036 3.346v3.345h6.69v-3.345h-3.346zm-13.384-3.346h-6.689v3.346h13.384v-3.346h-3.346zm291.06 3.346h3.347v3.346h-3.346zm-224.148 6.691h-3.346v3.345h10.037v-3.345h-3.346zm-30.11 3.345h-3.345v3.346h10.036v-3.346h-3.345zm20.073 3.346H159.4v3.345h16.727v-3.346h-3.345zM3.345 87.652H0v3.346h10.037v-3.346H6.69zM49.436 55.87h3.345v3.346h-3.344zm78.18-1.673h10.037v-3.345h-16.727v3.345h3.346zm-20.073 0h3.346v-3.345H100.85v3.345h3.346z"/></svg>