<?xml version="1.0" standalone="no"?>
<!DOCTYPE svg PUBLIC "-//W3C//DTD SVG 1.1//EN" "http://www.w3.org/Graphics/SVG/1.1/DTD/svg11.dtd" >
<svg xmlns="http://www.w3.org/2000/svg">
<metadata>
Generated by SVGconv.
Copyright   : Copyright (c) 2014-2016 by Vyacheslav Kirilenko, Gayane Bagdasaryan. All rights reserved.
Designer    : Vyacheslav Kirilenko, Gayane Bagdasaryan
Foundry     : Vyacheslav Kirilenko, Gayane Bagdasaryan
Foundry URL : http://www.brownfox.org
</metadata>
<defs>
<font id="Formular-Medium" horiz-adv-x="584" >
<font-face units-per-em="1000" ascent="983" descent="240" />
<missing-glyph horiz-adv-x="522" />
<glyph unicode="&#13;" horiz-adv-x="278" />
<glyph unicode="&#32;" horiz-adv-x="278" />
<glyph unicode="&#33;" horiz-adv-x="331" d="M226 714v-292l-21 -220h-78l-21 220v292zM100 0v134h131l0 -134z" />
<glyph unicode="&#34;" horiz-adv-x="433" d="M75 714h104v-271h-104zM254 714h104v-271l-104 0z" />
<glyph unicode="&#35;" horiz-adv-x="622" d="M187 513l34 187h90l-33 -187h124l34 187h90l-34 -187h98v-88h-112l-27 -151h100v-88h-115l-33 -186h-92l34 186h-124l-33 -186h-92l34 186h-98v88h113l28 151h-102v88zM236 274h124l27 151l-124 0z" />
<glyph unicode="&#36;" horiz-adv-x="641" d="M396 401q85 -15 137 -64q52 -49 52 -137q0 -40 -15.5 -77q-15.5 -37 -45 -66q-29.5 -29 -73 -48q-43.5 -19 -100.5 -22l0 -85h-66v86q-107 8 -167.5 66.5q-60.5 58.5 -71.5 152.5l115 0q10 -53 44 -82q34 -29 80 -35l0 228l-42 10q-84 19 -128.5 64q-44.5 45 -44.5 120q0 39 14.5 74q14.5 35 42 62.5q27.5 27.5 67.5 45q40 17.5 91 20.5l0 84h67v-86q90 -8 147 -61.5q57 -53.5 67 -134.5l-114 0q-8 38 -33 64q-25 26 -67 31l0 -200zM352 307v-219q25 1 46.5 9q21.5 8 37.5 22.5q16 14.5 25 33.5q9 19 9 42q0 45 -27.5 71q-27.5 26 -74.5 37zM185 516q0 -42 23 -61.5q23 -19.5 77 -32.5l0 191q-44 -3 -72 -29t-28 -68z" />
<glyph unicode="&#37;" horiz-adv-x="880" d="M184 0l424 700h88l-423 -700zM206 714q41 0 71.5 -15q30.5 -15 51 -40.5q20.5 -25.5 31 -60q10.5 -34.5 10.5 -73.5q0 -40 -10.5 -74.5q-10.5 -34.5 -31 -60q-20.5 -25.5 -51 -40q-30.5 -14.5 -71.5 -14.5q-41 0 -71.5 14.5q-30.5 14.5 -51 40q-20.5 25.5 -30.5 60q-10 34.5 -10 74.5q0 39 10 73.5q10 34.5 30.5 60q20.5 25.5 51 40.5q30.5 15 71.5 15zt0 0zM206 409q43 0 63 32.5q20 32.5 20 83.5q0 50 -20 83q-20 33 -63 33q-42 0 -62 -33q-20 -33 -20 -83q0 -51 20 -83.5q20 -32.5 62 -32.5zt0 0zM673 365q41 0 71.5 -15q30.5 -15 51 -40.5q20.5 -25.5 31 -60q10.5 -34.5 10.5 -73.5q0 -40 -10.5 -74.5q-10.5 -34.5 -31 -60q-20.5 -25.5 -51 -40q-30.5 -14.5 -71.5 -14.5q-41 0 -71.5 14.5q-30.5 14.5 -51 40q-20.5 25.5 -31 60q-10.5 34.5 -10.5 74.5q0 39 10.5 73.5q10.5 34.5 31 60q20.5 25.5 51 40.5q30.5 15 71.5 15zt0 0zM673 60q42 0 62.5 32.5q20.5 32.5 20.5 83.5q0 50 -20.5 83q-20.5 33 -62.5 33q-43 0 -63 -33q-20 -33 -20 -83q0 -51 20 -83.5t63 -32.5z" />
<glyph unicode="&#38;" horiz-adv-x="743" d="M647 342q-8 -54 -27 -104.5q-19 -50.5 -48 -92.5l142 -145h-139l-62 63h-20q-43 -37 -94.5 -56.5q-51.5 -19.5 -106.5 -19.5q-52 0 -95.5 13q-43.5 13 -75 39q-31.5 26 -49 64q-17.5 38 -17.5 88q0 37 11 66.5q11 29.5 29 53q18 23.5 40 42q22 18.5 45 33.5l0 20q-32 37 -50.5 69.5q-18.5 32.5 -18.5 77.5q0 35 12.5 64.5q12.5 29.5 36 51q23.5 21.5 56 33.5q32.5 12 73.5 12q40 0 74.5 -11q34.5 -11 60 -31.5q25.5 -20.5 40 -50q14.5 -29.5 14.5 -66.5q0 -29 -9.5 -52.5q-9.5 -23.5 -27 -44q-17.5 -20.5 -42 -40.5q-24.5 -20 -54.5 -41l152 -157q16 26 26 58q10 32 15 64zM296 84q81 0 137 60l-173 179l-29 -19q-64 -43 -64 -110q0 -54 36 -82q36 -28 93 -28zt0 0zM318 465q26 20 41 39.5q15 19.5 15 47.5q0 33 -24 52q-24 19 -58 19q-34 0 -55.5 -18.5q-21.5 -18.5 -21.5 -53.5q0 -30 16.5 -52.5q16.5 -22.5 34.5 -39.5l19 -18z" />
<glyph unicode="&#39;" horiz-adv-x="254" d="M75 714h104v-271l-104 0z" />
<glyph unicode="&#40;" horiz-adv-x="310" d="M148 312q0 -76 13.5 -141.5q13.5 -65.5 36 -121.5q22.5 -56 51 -103q28.5 -47 58.5 -87l-104 0q-31 37 -59.5 83.5q-28.5 46.5 -50.5 103q-22 56.5 -35 123q-13 66.5 -13 143.5q0 76 12.5 141.5q12.5 65.5 34 121q21.5 55.5 49 101.5q27.5 46 57.5 83l104 0q-29 -39 -56.5 -86q-27.5 -47 -49 -102.5q-21.5 -55.5 -35 -119.5t-13.5 -139z" />
<glyph unicode="&#41;" horiz-adv-x="310" d="M162 312q0 -76 -13.5 -141.5q-13.5 -65.5 -36 -121.5q-22.5 -56 -51 -103q-28.5 -47 -58.5 -87l104 0q31 37 59.5 83.5q28.5 46.5 50.5 103q22 56.5 35 123q13 66.5 13 143.5q0 76 -12.5 141.5q-12.5 65.5 -34 121q-21.5 55.5 -49 101.5q-27.5 46 -57.5 83l-104 0q29 -39 56.5 -86q27.5 -47 49 -102.5q21.5 -55.5 35 -119.5t13.5 -139z" />
<glyph unicode="&#42;" horiz-adv-x="486" d="M284 714l-6 -164l155 57l26 -79l-158 -46l101 -129l-67 -50l-93 136l-91 -136l-67 50l100 129l-157 46l26 79l154 -57l-5 164z" />
<glyph unicode="&#43;" horiz-adv-x="678" d="M290 542h97v-207h208v-96h-208v-207h-97v207h-207v96l207 0z" />
<glyph unicode="&#44;" horiz-adv-x="279" d="M74 0v134h131v-151l-66 -112h-73l66 112l0 17z" />
<glyph unicode="&#45;" horiz-adv-x="384" d="M48 230v99h288l0 -99z" />
<glyph unicode="&#46;" horiz-adv-x="277" d="M73 0v134h131l0 -134z" />
<glyph unicode="&#47;" horiz-adv-x="423" d="M-2 -141l302 900h96l-299 -900z" />
<glyph unicode="&#48;" horiz-adv-x="636" d="M318 714q57 0 105.5 -21q48.5 -21 84 -65.5q35.5 -44.5 56 -113.5q20.5 -69 20.5 -164q0 -95 -20.5 -163.5q-20.5 -68.5 -56 -113q-35.5 -44.5 -84 -65.5q-48.5 -21 -105.5 -21q-57 0 -105.5 21q-48.5 21 -84.5 65.5q-36 44.5 -56 113q-20 68.5 -20 163.5q0 95 20 164q20 69 56 113.5q36 44.5 84.5 65.5q48.5 21 105.5 21zt0 0zM318 91q42 0 70.5 20.5q28.5 20.5 46 55.5q17.5 35 25 82.5q7.5 47.5 7.5 100.5q0 54 -7.5 101q-7.5 47 -25 82.5q-17.5 35.5 -46 56q-28.5 20.5 -70.5 20.5q-42 0 -70.5 -20.5q-28.5 -20.5 -46 -56q-17.5 -35.5 -25 -82.5q-7.5 -47 -7.5 -101q0 -53 7.5 -100.5q7.5 -47.5 25 -82.5q17.5 -35 46 -55.5t70.5 -20.5z" />
<glyph unicode="&#49;" horiz-adv-x="518" d="M56 102h162v479h-20l-143 -94v117l144 96h135v-598h149v-102l-427 0z" />
<glyph unicode="&#50;" horiz-adv-x="595" d="M49 498q3 54 22 94.5q19 40.5 51 67.5q32 27 75.5 40.5q43.5 13.5 95.5 13.5q51 0 94 -14q43 -14 74.5 -42q31.5 -28 49.5 -68.5q18 -40.5 18 -94.5q0 -71 -40.5 -132q-40.5 -61 -100.5 -109l-162 -132v-20h325v-102h-499v121l250 199q19 15 39 33.5q20 18.5 35.5 40.5q15.5 22 25.5 47q10 25 10 53q0 58 -34 87q-34 29 -88 29q-51 0 -85 -27q-34 -27 -40 -85l-116 0z" />
<glyph unicode="&#51;" horiz-adv-x="587" d="M506 700v-119l-152 -131v-21q39 -2 73.5 -16.5q34.5 -14.5 59.5 -40.5q25 -26 39.5 -63.5q14.5 -37.5 14.5 -86.5q0 -55 -19 -98.5q-19 -43.5 -53 -74q-34 -30.5 -81.5 -46.5q-47.5 -16 -103.5 -16q-56 0 -102.5 16.5q-46.5 16.5 -79.5 46q-33 29.5 -52.5 69q-19.5 39.5 -21.5 86.5l117 0q5 -54 44 -84q39 -30 95 -30q65 0 103 35q38 35 38 96q0 60 -36 96q-36 36 -104 36q-38 0 -63 -6l0 102l151 131v20h-297l0 99z" />
<glyph unicode="&#52;" horiz-adv-x="623" d="M581 259v-102h-91v-157h-113v157h-340v127l307 416h146v-441zM380 259v309h-20l-208 -289l0 -20z" />
<glyph unicode="&#53;" horiz-adv-x="610" d="M333 474q50 0 92 -17.5q42 -17.5 72 -49q30 -31.5 46.5 -74.5q16.5 -43 16.5 -94q0 -57 -18.5 -103.5q-18.5 -46.5 -51.5 -79.5q-33 -33 -79 -51q-46 -18 -101 -18q-60 0 -106 16.5q-46 16.5 -78 46q-32 29.5 -50 69q-18 39.5 -21 86.5l116 0q7 -57 42.5 -85.5q35.5 -28.5 92.5 -28.5q63 0 100 39q37 39 37 106q0 66 -37 105q-37 39 -98 39q-41 0 -72 -14q-31 -14 -53 -45l-112 0l31 379h417v-99h-325l-13 -173h20q23 19 53 32.5t79 13.5z" />
<glyph unicode="&#54;" horiz-adv-x="608" d="M341 461q48 0 89 -17q41 -17 72 -47q31 -30 48.5 -72.5q17.5 -42.5 17.5 -93.5q0 -50 -17 -94.5q-17 -44.5 -49 -77.5q-32 -33 -78 -52.5q-46 -19.5 -104 -19.5q-58 0 -107 18.5q-49 18.5 -85 59.5q-36 41 -56 107.5q-20 66.5 -20 161.5q0 81 16 150.5q16 69.5 50 120.5q34 51 86 80q52 29 123 29q46 0 84.5 -13.5q38.5 -13.5 67 -37.5q28.5 -24 46.5 -56q18 -32 24 -69l-115 0q-11 36 -36.5 56.5q-25.5 20.5 -72.5 20.5q-72 0 -114 -56q-42 -56 -47 -161l20 0q9 10 22.5 21q13.5 11 33 20.5q19.5 9.5 44.5 15.5q25 6 57 6zt0 0zM318 87q57 0 95 35.5q38 35.5 38 104.5q0 69 -38.5 103q-38.5 34 -95.5 34q-57 0 -95.5 -34.5q-38.5 -34.5 -38.5 -101.5q0 -68 39 -104.5t96 -36.5z" />
<glyph unicode="&#55;" horiz-adv-x="561" d="M221 0h-124l292 579v20h-341v101h462l0 -120z" />
<glyph unicode="&#56;" horiz-adv-x="622" d="M464 360q17 -6 36 -20q19 -14 35 -34.5q16 -20.5 26.5 -48.5q10.5 -28 10.5 -63q0 -43 -17.5 -80.5q-17.5 -37.5 -51 -65.5q-33.5 -28 -82 -44.5q-48.5 -16.5 -110.5 -16.5q-62 0 -111 16.5q-49 16.5 -82.5 44.5q-33.5 28 -51 65.5q-17.5 37.5 -17.5 80.5q0 35 10.5 63q10.5 28 26.5 48.5q16 20.5 35 34.5q19 14 36 20l0 20q-14 6 -29 18.5q-15 12.5 -27.5 31q-12.5 18.5 -21 42.5q-8.5 24 -8.5 54q0 41 17 75.5q17 34.5 48.5 59.5q31.5 25 75.5 39q44 14 99 14q54 0 98.5 -14q44.5 -14 75.5 -39q31 -25 48 -59.5q17 -34.5 17 -75.5q0 -30 -8.5 -54q-8.5 -24 -21.5 -42.5q-13 -18.5 -28 -31q-15 -12.5 -28 -18.5zM311 620q-54 0 -90.5 -27.5q-36.5 -27.5 -36.5 -75.5q0 -48 36.5 -76q36.5 -28 90.5 -28q54 0 90 28q36 28 36 76q0 48 -36 75.5q-36 27.5 -90 27.5zt0 0zM311 87q70 0 108 33q38 33 38 85q0 52 -38 85q-38 33 -108 33q-71 0 -108.5 -33q-37.5 -33 -37.5 -85q0 -52 37.5 -85t108.5 -33z" />
<glyph unicode="&#57;" horiz-adv-x="608" d="M267 240q-48 0 -89 17q-41 17 -72 47q-31 30 -48.5 72.5q-17.5 42.5 -17.5 93.5q0 50 17 94.5q17 44.5 49 77.5q32 33 78 52.5q46 19.5 104 19.5q58 0 107 -18.5q49 -18.5 85 -59.5q36 -41 56 -107.5q20 -66.5 20 -161.5q0 -81 -16 -150.5q-16 -69.5 -50 -120.5q-34 -51 -86 -80q-52 -29 -123 -29q-46 0 -84.5 13.5q-38.5 13.5 -67 37.5q-28.5 24 -46.5 56q-18 32 -24 69l115 0q11 -36 36.5 -56.5q25.5 -20.5 72.5 -20.5q72 0 114 56q42 56 47 161l-20 0q-9 -10 -22.5 -21q-13.5 -11 -33 -20.5q-19.5 -9.5 -44.5 -15.5q-25 -6 -57 -6zt0 0zM290 614q-57 0 -95 -35.5q-38 -35.5 -38 -104.5q0 -69 38.5 -103q38.5 -34 95.5 -34q57 0 95.5 34.5q38.5 34.5 38.5 101.5q0 68 -39 104.5t-96 36.5z" />
<glyph unicode="&#58;" horiz-adv-x="276" d="M72 0v134h131v-134zM72 375v134h131l0 -134z" />
<glyph unicode="&#59;" horiz-adv-x="276" d="M72 0v134h131v-151l-66 -112h-73l66 112v17zM72 375v134h131l0 -134z" />
<glyph unicode="&#60;" horiz-adv-x="670" d="M587 21l-504 226v79l504 226v-100l-351 -156v-20l351 -155z" />
<glyph unicode="&#61;" horiz-adv-x="676" d="M593 136h-510v97h510zM593 340h-510v97l510 0z" />
<glyph unicode="&#62;" horiz-adv-x="670" d="M83 121l350 155v20l-350 156v100l504 -226v-79l-504 -226z" />
<glyph unicode="&#63;" horiz-adv-x="563" d="M274 727q55 0 98 -15q43 -15 72.5 -41.5q29.5 -26.5 44.5 -63q15 -36.5 15 -79.5q0 -37 -9.5 -63.5q-9.5 -26.5 -26 -48q-16.5 -21.5 -39 -39.5q-22.5 -18 -47.5 -37q-18 -13 -30 -23q-12 -10 -19.5 -21.5q-7.5 -11.5 -11 -25.5q-3.5 -14 -3.5 -34v-34h-115v34q0 31 6 54q6 23 18.5 42.5q12.5 19.5 32.5 38q20 18.5 48 40.5q18 13 32.5 25q14.5 12 25 25q10.5 13 16.5 29q6 16 6 38q0 19 -7 37q-7 18 -21.5 31.5q-14.5 13.5 -35.5 22q-21 8.5 -48 8.5q-55 0 -86.5 -27.5q-31.5 -27.5 -33.5 -90.5l-115 0q1 48 17 88q16 40 45.5 69q29.5 29 72 45q42.5 16 98.5 16zt0 0zM194 0v134h131l0 -134z" />
<glyph unicode="&#64;" horiz-adv-x="976" d="M700 -114q-57 -36 -122.5 -56q-65.5 -20 -143.5 -20q-89 0 -160 28q-71 28 -120.5 78q-49.5 50 -76 120.5q-26.5 70.5 -26.5 156.5q0 107 36 199q36 92 101.5 159q65.5 67 156 105q90.5 38 198.5 38q78 0 147.5 -24q69.5 -24 122 -69q52.5 -45 83 -110q30.5 -65 30.5 -147q0 -62 -16 -118q-16 -56 -46 -98.5q-30 -42.5 -74 -67.5q-44 -25 -101 -25q-46 0 -71 15.5q-25 15.5 -37 43.5l-18 0q-18 -21 -49 -40q-31 -19 -80 -19q-75 0 -118 45q-43 45 -43 130q0 49 15.5 95.5q15.5 46.5 43.5 81.5q28 35 67.5 56.5q39.5 21.5 88.5 21.5q40 0 67.5 -15.5q27.5 -15.5 37.5 -32.5l18 0l8 34h92l-44 -254q-2 -10 -3.5 -24q-1.5 -14 -1.5 -25q0 -27 11 -39q11 -12 37 -12q25 0 51.5 15q26.5 15 48.5 44.5q22 29.5 36 74.5q14 45 14 105q0 66 -21 121q-21 55 -62.5 94q-41.5 39 -103 61q-61.5 22 -141.5 22q-84 0 -159.5 -31q-75.5 -31 -132.5 -87.5q-57 -56.5 -90 -135.5q-33 -79 -33 -175q0 -66 17.5 -127q17.5 -61 56 -107q38.5 -46 100 -73.5q61.5 -27.5 150.5 -27.5q65 0 123 18q58 18 109 51zM458 113q27 0 49.5 13q22.5 13 39 35.5q16.5 22.5 25.5 53.5q9 31 9 67q0 33 -7.5 54q-7.5 21 -20 32q-12.5 11 -27.5 15q-15 4 -30 4q-28 0 -50.5 -14.5q-22.5 -14.5 -38 -38q-15.5 -23.5 -24 -53.5q-8.5 -30 -8.5 -62q0 -50 20.5 -78t62.5 -28z" />
<glyph unicode="&#65;" horiz-adv-x="705" d="M496 205h-291l-65 -205h-122l237 714h194l238 -714h-125zM239 312h222l-91 285l-41 0z" />
<glyph unicode="&#66;" horiz-adv-x="713" d="M565 364q21 -9 38.5 -25q17.5 -16 31 -37q13.5 -21 21 -46q7.5 -25 7.5 -52q0 -44 -15 -81q-15 -37 -45 -64.5q-30 -27.5 -76 -43q-46 -15.5 -108 -15.5h-332v714h323q58 0 101.5 -15q43.5 -15 72.5 -40q29 -25 43.5 -59q14.5 -34 14.5 -71q0 -48 -20.5 -87q-20.5 -39 -56.5 -58zM399 421q66 0 93 25q27 25 27 70q0 45 -27 69.5q-27 24.5 -93 24.5h-192v-189zM403 104q75 0 106 29q31 29 31 79q0 51 -31 79q-31 28 -106 28h-196l0 -215z" />
<glyph unicode="&#67;" horiz-adv-x="728" d="M679 216q-9 -51 -33 -93q-24 -42 -61 -72q-37 -30 -86.5 -47q-49.5 -17 -110.5 -17q-81 0 -143.5 27.5q-62.5 27.5 -105 77q-42.5 49.5 -65 117q-22.5 67.5 -22.5 148.5q0 81 22.5 148.5q22.5 67.5 65.5 117q43 49.5 105.5 77q62.5 27.5 143.5 27.5q57 0 104.5 -15q47.5 -15 83.5 -43q36 -28 60 -66.5q24 -38.5 34 -86.5l-126 0q-17 51 -55 76.5q-38 25.5 -101 25.5q-55 0 -95.5 -21q-40.5 -21 -67 -56.5q-26.5 -35.5 -39.5 -83q-13 -47.5 -13 -100.5q0 -53 13 -100.5q13 -47.5 39 -83q26 -35.5 66.5 -56.5q40.5 -21 95.5 -21q66 0 108.5 31.5q42.5 31.5 56.5 88.5z" />
<glyph unicode="&#68;" horiz-adv-x="752" d="M370 714q82 0 144 -25.5q62 -25.5 103 -72.5q41 -47 62 -112.5q21 -65.5 21 -146.5q0 -80 -21 -146q-21 -66 -62 -113q-41 -47 -103 -72.5q-62 -25.5 -144 -25.5h-283v714zM360 109q60 0 101.5 19.5q41.5 19.5 67.5 53.5q26 34 37.5 79q11.5 45 11.5 96q0 51 -11.5 96.5q-11.5 45.5 -37.5 79q-26 33.5 -67.5 53q-41.5 19.5 -101.5 19.5h-153l0 -496z" />
<glyph unicode="&#69;" horiz-adv-x="659" d="M613 109v-109h-526v714h513v-109h-393v-184h311v-107h-311l0 -205z" />
<glyph unicode="&#70;" horiz-adv-x="642" d="M207 605v-196h314v-107h-314v-302h-120v714h513l0 -109z" />
<glyph unicode="&#71;" horiz-adv-x="753" d="M697 388v-78q0 -62 -17 -120q-17 -58 -53.5 -103q-36.5 -45 -95 -72.5q-58.5 -27.5 -141.5 -27.5q-83 0 -146 28q-63 28 -105.5 77.5q-42.5 49.5 -64.5 117q-22 67.5 -22 147.5q0 80 22 147.5q22 67.5 65 117q43 49.5 106.5 77.5q63.5 28 145.5 28q118 0 191.5 -56.5q73.5 -56.5 93.5 -151.5l-125 0q-14 47 -53 73q-39 26 -107 26q-56 0 -96.5 -20.5q-40.5 -20.5 -67.5 -55.5q-27 -35 -40 -83q-13 -48 -13 -102q0 -54 13 -101.5q13 -47.5 39.5 -83.5q26.5 -36 67.5 -56.5q41 -20.5 97 -20.5q46 0 80.5 13.5q34.5 13.5 57.5 38.5q23 25 34.5 60.5q11.5 35.5 12.5 78.5l-195 0l0 102z" />
<glyph unicode="&#72;" horiz-adv-x="770" d="M684 714v-714h-120v312h-357v-312h-120v714h120v-290h357l0 290z" />
<glyph unicode="&#73;" horiz-adv-x="304" d="M212 714v-714h-120l0 714z" />
<glyph unicode="&#74;" horiz-adv-x="593" d="M274 -13q-51 0 -94.5 15.5q-43.5 15.5 -75 45q-31.5 29.5 -50 73q-18.5 43.5 -21.5 100.5l120 0q5 -63 36.5 -94q31.5 -31 85.5 -31q52 0 82.5 34q30.5 34 30.5 104v480h120v-480q0 -117 -62 -182t-172 -65z" />
<glyph unicode="&#75;" horiz-adv-x="736" d="M87 714h120v-324l327 324h145l-217 -225l246 -489h-129l-199 385h-20l-153 -150v-235l-120 0z" />
<glyph unicode="&#76;" horiz-adv-x="637" d="M596 113v-113h-509v714h120l0 -601z" />
<glyph unicode="&#77;" horiz-adv-x="868" d="M87 714h186l152 -318h20l150 318h187v-714h-114v578h-20l-155 -320h-118l-154 320h-20v-578l-114 0z" />
<glyph unicode="&#78;" horiz-adv-x="774" d="M688 714v-714h-167l-300 542h-20v-542h-114v714h167l300 -542h20l0 542z" />
<glyph unicode="&#79;" horiz-adv-x="785" d="M393 727q83 0 146.5 -28.5q63.5 -28.5 106.5 -78.5q43 -50 65 -117.5q22 -67.5 22 -145.5q0 -78 -22 -145.5q-22 -67.5 -65 -117.5q-43 -50 -106.5 -78.5q-63.5 -28.5 -146.5 -28.5q-83 0 -147 28.5q-64 28.5 -107 78.5q-43 50 -65 117.5q-22 67.5 -22 145.5q0 78 22 145.5q22 67.5 65 117.5q43 50 107 78.5q64 28.5 147 28.5zt0 0zM393 96q57 0 98 21q41 21 67.5 56.5q26.5 35.5 39.5 83q13 47.5 13 100.5q0 53 -13 100.5q-13 47.5 -39.5 83q-26.5 35.5 -67.5 56.5q-41 21 -98 21q-57 0 -98.5 -21q-41.5 -21 -68 -56.5q-26.5 -35.5 -39.5 -83q-13 -47.5 -13 -100.5q0 -53 13 -100.5q13 -47.5 39.5 -83q26.5 -35.5 68 -56.5t98.5 -21z" />
<glyph unicode="&#80;" horiz-adv-x="701" d="M401 714q120 0 185 -58.5q65 -58.5 65 -161.5q0 -105 -65 -164q-65 -59 -185 -59h-194v-271h-120v714zM383 377q80 0 113 31q33 31 33 85q0 55 -33 85q-33 30 -113 30h-176l0 -231z" />
<glyph unicode="&#81;" horiz-adv-x="785" d="M393 727q83 0 146.5 -28.5q63.5 -28.5 106.5 -78.5q43 -50 65 -117.5q22 -67.5 22 -145.5q0 -83 -24.5 -153q-24.5 -70 -72.5 -121l94 -155h-117l-57 96q-71 -37 -163 -37q-83 0 -147 28.5q-64 28.5 -107 78.5q-43 50 -65 117.5q-22 67.5 -22 145.5q0 78 22 145.5q22 67.5 65 117.5q43 50 107 78.5q64 28.5 147 28.5zt0 0zM393 96q60 0 105 25l-120 202h112l81 -132q21 34 30.5 76q9.5 42 9.5 90q0 53 -13 100.5q-13 47.5 -39.5 83q-26.5 35.5 -67.5 56.5q-41 21 -98 21q-57 0 -98.5 -21q-41.5 -21 -68 -56.5q-26.5 -35.5 -39.5 -83q-13 -47.5 -13 -100.5q0 -53 13 -100.5q13 -47.5 39.5 -83q26.5 -35.5 68 -56.5t98.5 -21z" />
<glyph unicode="&#82;" horiz-adv-x="718" d="M413 714q116 0 179.5 -57q63.5 -57 63.5 -158q0 -66 -27.5 -113.5q-27.5 -47.5 -79.5 -73.5l110 -312h-122l-101 286q-16 -2 -31.5 -2q-15.5 0 -31.5 0h-166v-284h-120v714zM207 388h189q76 0 107 29.5q31 29.5 31 80.5q0 53 -31 81.5q-31 28.5 -107 28.5l-189 0z" />
<glyph unicode="&#83;" horiz-adv-x="677" d="M483 526q-11 48 -47 72q-36 24 -103 24q-28 0 -53 -6q-25 -6 -43.5 -18q-18.5 -12 -29.5 -30q-11 -18 -11 -43q0 -22 8.5 -37q8.5 -15 23 -25q14.5 -10 33 -16q18.5 -6 39.5 -10q8 -2 26.5 -5.5q18.5 -3.5 39 -7q20.5 -3.5 39.5 -7.5q19 -4 29 -6q41 -9 75.5 -24.5q34.5 -15.5 59 -40.5q24.5 -25 38.5 -59.5q14 -34.5 14 -80.5q0 -44 -17 -83.5q-17 -39.5 -52 -69.5q-35 -30 -87.5 -48q-52.5 -18 -122.5 -18q-65 0 -117.5 16q-52.5 16 -90.5 45.5q-38 29.5 -60.5 70q-22.5 40.5 -27.5 90.5l122 0q6 -33 22 -55.5q16 -22.5 40 -36q24 -13.5 54 -19.5q30 -6 63 -6q67 0 110 28q43 28 43 81q0 25 -8 43q-8 18 -22 30q-14 12 -34 20q-20 8 -44 13q-9 2 -28.5 6q-19.5 4 -41 8q-21.5 4 -41 7.5q-19.5 3.5 -28.5 5.5q-83 16 -130.5 62q-47.5 46 -47.5 126q0 43 17 80q17 37 50 65q33 28 81.5 44q48.5 16 111.5 16q57 0 104 -14.5q47 -14.5 82 -40.5q35 -26 56.5 -63q21.5 -37 27.5 -83z" />
<glyph unicode="&#84;" horiz-adv-x="611" d="M594 608h-228v-608h-120v608h-229v106l577 0z" />
<glyph unicode="&#85;" horiz-adv-x="750" d="M665 714v-455q0 -130 -75 -201q-75 -71 -215 -71q-140 0 -215 71q-75 71 -75 201v455h120v-452q0 -75 43.5 -120.5q43.5 -45.5 126.5 -45.5q84 0 127 45.5q43 45.5 43 120.5l0 452z" />
<glyph unicode="&#86;" horiz-adv-x="687" d="M18 714h127l177 -596h44l177 596h126l-220 -714l-211 0z" />
<glyph unicode="&#87;" horiz-adv-x="902" d="M528 495l113 -355h20l71 574h115l-90 -714h-180l-116 381h-20l-117 -381h-180l-89 714h117l70 -574h20l112 355z" />
<glyph unicode="&#88;" horiz-adv-x="671" d="M349 309h-28l-170 -309h-132l207 376l-178 338h128l146 -273h28l149 273h127l-181 -334l207 -380l-137 0z" />
<glyph unicode="&#89;" horiz-adv-x="661" d="M343 409l171 305h131l-255 -452v-262h-120v262l-255 452h131l171 -305z" />
<glyph unicode="&#90;" horiz-adv-x="656" d="M594 584l-397 -454v-21h412v-109h-563v130l398 454v21h-371v109l521 0z" />
<glyph unicode="&#91;" horiz-adv-x="353" d="M73 -141v900h224v-86h-123v-728h123l0 -86z" />
<glyph unicode="&#92;" horiz-adv-x="423" d="M425 -141l-302 900h-96l299 -900z" />
<glyph unicode="&#93;" horiz-adv-x="353" d="M280 -141v900h-224v-86h123v-728h-123l0 -86z" />
<glyph unicode="&#94;" horiz-adv-x="568" d="M40 283l207 410h72l208 -410h-104l-132 259h-16l-130 -259z" />
<glyph unicode="&#95;" horiz-adv-x="509" d="M-1 -144v78h511l0 -78z" />
<glyph unicode="&#96;" horiz-adv-x="292" d="M40 727h123l89 -145l-100 0z" />
<glyph unicode="&#97;" horiz-adv-x="572" d="M395 49h-20q-23 -29 -60.5 -45.5q-37.5 -16.5 -90.5 -16.5q-44 0 -78.5 13.5q-34.5 13.5 -58 37q-23.5 23.5 -35.5 53.5q-12 30 -12 63q0 30 11 60.5q11 30.5 35 55q24 24.5 62.5 40q38.5 15.5 93.5 15.5h150v15q0 42 -25.5 67.5q-25.5 25.5 -81.5 25.5q-49 0 -74 -18q-25 -18 -28 -47l-112 0q2 36 18 64.5q16 28.5 44 48.5q28 20 65.5 30.5q37.5 10.5 82.5 10.5q49 0 90 -11q41 -11 69.5 -33.5q28.5 -22.5 44.5 -57.5q16 -35 16 -82v-338h-106zM257 79q28 0 53 9.5q25 9.5 43 26.5q18 17 28.5 39.5q10.5 22.5 10.5 48.5v38h-130q-54 0 -81 -21.5q-27 -21.5 -27 -60.5q0 -38 27 -59t76 -21z" />
<glyph unicode="&#98;" horiz-adv-x="629" d="M355 522q52 0 94 -20q42 -20 71 -55.5q29 -35.5 45 -84.5q16 -49 16 -107q0 -58 -15.5 -107q-15.5 -49 -45 -85q-29.5 -36 -71.5 -56q-42 -20 -94 -20q-57 0 -91.5 18.5q-34.5 18.5 -55.5 44.5l-20 0v-50h-110v727h113v-268h20q20 27 54 45q34 18 90 18zt0 0zM329 83q35 0 61 13q26 13 43.5 36q17.5 23 26 54.5q8.5 31.5 8.5 68.5q0 37 -8.5 68q-8.5 31 -26 54q-17.5 23 -43.5 36q-26 13 -61 13q-37 0 -63.5 -14q-26.5 -14 -44 -38q-17.5 -24 -25.5 -55q-8 -31 -8 -64q0 -34 8 -65q8 -31 25.5 -55q17.5 -24 44 -38t63.5 -14z" />
<glyph unicode="&#99;" horiz-adv-x="568" d="M524 163q-6 -39 -24.5 -71.5q-18.5 -32.5 -47.5 -56q-29 -23.5 -67.5 -36q-38.5 -12.5 -84.5 -12.5q-59 0 -106 20q-47 20 -79.5 55.5q-32.5 35.5 -49.5 84.5q-17 49 -17 108q0 58 17 107.5q17 49.5 49.5 84.5q32.5 35 79.5 55q47 20 106 20q94 0 151.5 -46.5q57.5 -46.5 68.5 -121.5l-112 0q-11 33 -36.5 52.5q-25.5 19.5 -70.5 19.5q-38 0 -64.5 -14q-26.5 -14 -43.5 -37q-17 -23 -24.5 -54q-7.5 -31 -7.5 -65q0 -35 8 -66.5q8 -31.5 24.5 -55q16.5 -23.5 43 -37.5q26.5 -14 64.5 -14q48 0 75.5 21q27.5 21 35.5 59z" />
<glyph unicode="&#100;" horiz-adv-x="629" d="M274 522q56 0 90 -18q34 -18 54 -45l20 0v268h113v-727h-110v50h-20q-21 -26 -55.5 -44.5q-34.5 -18.5 -91.5 -18.5q-53 0 -94.5 20q-41.5 20 -71 56q-29.5 36 -45 85q-15.5 49 -15.5 107q0 58 16 107q16 49 45 84.5q29 35.5 71 55.5q42 20 94 20zt0 0zM300 83q37 0 63.5 14q26.5 14 44 38q17.5 24 25.5 55q8 31 8 65q0 33 -8 64q-8 31 -25.5 55q-17.5 24 -44 38q-26.5 14 -63.5 14q-35 0 -61 -13q-26 -13 -43.5 -36q-17.5 -23 -26 -54q-8.5 -31 -8.5 -68q0 -37 8.5 -68.5q8.5 -31.5 26 -54.5q17.5 -23 43.5 -36t61 -13z" />
<glyph unicode="&#101;" horiz-adv-x="583" d="M536 245h-376q2 -78 38 -120q36 -42 105 -42q46 0 73 17q27 17 38 48l115 0q-14 -71 -71 -116q-57 -45 -156 -45q-60 0 -107 20q-47 20 -80 56q-33 36 -50 85.5q-17 49.5 -17 109.5q0 60 17.5 108.5q17.5 48.5 49.5 83q32 34.5 78.5 53.5q46.5 19 105.5 19q57 0 101 -19q44 -19 74 -51q30 -32 45.5 -76q15.5 -44 16.5 -93zM298 432q-60 0 -91.5 -29.5q-31.5 -29.5 -41.5 -73.5l255 0q-5 43 -35.5 73t-86.5 30z" />
<glyph unicode="&#102;" horiz-adv-x="405" d="M229 413v-413h-113v413h-91v96h91v48q0 93 48.5 131.5q48.5 38.5 135.5 38.5h73v-96h-69q-43 0 -59 -22.5q-16 -22.5 -16 -55.5v-44h136l0 -96z" />
<glyph unicode="&#103;" horiz-adv-x="629" d="M551 509v-484q0 -54 -17.5 -97.5q-17.5 -43.5 -49.5 -73.5q-32 -30 -77.5 -46.5q-45.5 -16.5 -101.5 -16.5q-101 0 -165 42q-64 42 -73 122l112 0q8 -38 40 -54.5q32 -16.5 84 -16.5q72 0 103.5 41q31.5 41 31.5 108v35h-20q-18 -26 -52 -44.5q-34 -18.5 -89 -18.5q-53 0 -95 19q-42 19 -72 53.5q-30 34.5 -46 82q-16 47.5 -16 103.5q0 57 16 104.5q16 47.5 46 82q30 34.5 72.5 53.5q42.5 19 94.5 19q57 0 92 -19.5q35 -19.5 52 -43.5l20 0v50zM300 101q36 0 62.5 13q26.5 13 44 35.5q17.5 22.5 26.5 51.5q9 29 9 62q0 33 -9 62.5q-9 29.5 -26.5 52q-17.5 22.5 -44 35.5q-26.5 13 -62.5 13q-66 0 -102.5 -45.5q-36.5 -45.5 -36.5 -117.5q0 -36 9.5 -65.5q9.5 -29.5 27 -51q17.5 -21.5 43.5 -33.5t59 -12z" />
<glyph unicode="&#104;" horiz-adv-x="620" d="M436 0v296q0 62 -29 93.5q-29 31.5 -85 31.5q-30 0 -54.5 -12q-24.5 -12 -41.5 -32q-17 -20 -26 -48q-9 -28 -9 -59v-270h-113v727h113v-268h20q20 26 53.5 44.5q33.5 18.5 87.5 18.5q94 0 145.5 -55q51.5 -55 51.5 -152l0 -315z" />
<glyph unicode="&#105;" horiz-adv-x="272" d="M76 614v113h120v-113zM192 0h-113v509l113 0z" />
<glyph unicode="&#106;" horiz-adv-x="283" d="M-40 -200v96h46q47 0 66 24q19 24 19 66v523h113v-530q0 -46 -13 -80q-13 -34 -37 -56q-24 -22 -57 -32.5q-33 -10.5 -73 -10.5zM87 614v113h120l0 -113z" />
<glyph unicode="&#107;" horiz-adv-x="576" d="M442 0l-131 256h-20l-100 -111v-145h-113v727h113v-443l212 225h132l-148 -161l177 -348z" />
<glyph unicode="&#108;" horiz-adv-x="269" d="M191 727v-727h-113l0 727z" />
<glyph unicode="&#109;" horiz-adv-x="879" d="M629 522q46 0 80 -14.5q34 -14.5 56 -40.5q22 -26 32.5 -63q10.5 -37 10.5 -83v-321h-113v307q0 56 -21.5 85q-21.5 29 -66.5 29q-52 0 -79.5 -36q-27.5 -36 -27.5 -92v-293h-113v306q0 56 -22 85.5q-22 29.5 -66 29.5q-27 0 -47 -11q-20 -11 -33.5 -30.5q-13.5 -19.5 -20.5 -45.5q-7 -26 -7 -56v-278h-113v509h110v-48h20q18 29 51.5 45q33.5 16 78.5 16q91 0 132 -64l20 0q23 31 57.5 47.5t81.5 16.5z" />
<glyph unicode="&#110;" horiz-adv-x="620" d="M436 0v296q0 62 -29 93.5q-29 31.5 -85 31.5q-30 0 -54.5 -12q-24.5 -12 -41.5 -32q-17 -20 -26 -48q-9 -28 -9 -59v-270h-113v509h110v-50h20q20 26 55 44.5q35 18.5 89 18.5q94 0 145.5 -55q51.5 -55 51.5 -152l0 -315z" />
<glyph unicode="&#111;" horiz-adv-x="610" d="M305 522q60 0 107.5 -20q47.5 -20 81 -55.5q33.5 -35.5 51 -84.5q17.5 -49 17.5 -107q0 -59 -17.5 -108q-17.5 -49 -51 -84.5q-33.5 -35.5 -81 -55.5q-47.5 -20 -107.5 -20q-60 0 -107.5 20q-47.5 20 -81 55.5q-33.5 35.5 -51 84.5q-17.5 49 -17.5 108q0 58 17.5 107q17.5 49 51 84.5q33.5 35.5 81 55.5q47.5 20 107.5 20zt0 0zM305 83q37 0 64 14q27 14 45 38q18 24 26.5 55q8.5 31 8.5 65q0 33 -8.5 64q-8.5 31 -26.5 55q-18 24 -45 38q-27 14 -64 14q-37 0 -64 -14q-27 -14 -45 -38q-18 -24 -26.5 -55q-8.5 -31 -8.5 -64q0 -34 8.5 -65q8.5 -31 26.5 -55q18 -24 45 -38t64 -14z" />
<glyph unicode="&#112;" horiz-adv-x="629" d="M355 -13q-56 0 -90 18q-34 18 -54 45l-20 0v-250h-113v709h110v-50h20q21 26 55.5 44.5q34.5 18.5 91.5 18.5q52 0 94 -20q42 -20 71.5 -56q29.5 -36 45 -85q15.5 -49 15.5 -107q0 -58 -16 -107q-16 -49 -45 -84.5q-29 -35.5 -71 -55.5q-42 -20 -94 -20zt0 0zM329 426q-37 0 -63.5 -14q-26.5 -14 -44 -38q-17.5 -24 -25.5 -55q-8 -31 -8 -65q0 -33 8 -64q8 -31 25.5 -55q17.5 -24 44 -38q26.5 -14 63.5 -14q35 0 61 13q26 13 43.5 36q17.5 23 26 54q8.5 31 8.5 68q0 37 -8.5 68.5q-8.5 31.5 -26 54.5q-17.5 23 -43.5 36t-61 13z" />
<glyph unicode="&#113;" horiz-adv-x="629" d="M274 -13q-52 0 -94 20q-42 20 -71 55.5q-29 35.5 -45 84.5q-16 49 -16 107q0 58 15.5 107q15.5 49 45 85q29.5 36 71 56q41.5 20 94.5 20q57 0 91.5 -18.5q34.5 -18.5 55.5 -44.5l20 0v50h110v-709h-113v250h-20q-20 -27 -54 -45q-34 -18 -90 -18zt0 0zM300 426q-35 0 -61 -13q-26 -13 -43.5 -36q-17.5 -23 -26 -54.5q-8.5 -31.5 -8.5 -68.5q0 -37 8.5 -68q8.5 -31 26 -54q17.5 -23 43.5 -36q26 -13 61 -13q37 0 63.5 14q26.5 14 44 38q17.5 24 25.5 55q8 31 8 64q0 34 -8 65q-8 31 -25.5 55q-17.5 24 -44 38t-63.5 14z" />
<glyph unicode="&#114;" horiz-adv-x="419" d="M391 404h-43q-78 0 -117.5 -43q-39.5 -43 -39.5 -123v-238h-113v509h110v-60h20q16 21 49 40.5q33 19.5 92 19.5l42 0z" />
<glyph unicode="&#115;" horiz-adv-x="531" d="M329 308q37 -6 66.5 -18q29.5 -12 50.5 -31q21 -19 32.5 -46q11.5 -27 11.5 -64q0 -32 -14 -61q-14 -29 -41.5 -51.5q-27.5 -22.5 -68.5 -36q-41 -13.5 -95 -13.5q-111 0 -168 45.5q-57 45.5 -65 121.5l113 0q7 -39 39.5 -56q32.5 -17 78.5 -17q46 0 77 15.5q31 15.5 31 50.5q0 29 -20.5 43q-20.5 14 -65.5 23q-3 1 -17 3.5q-14 2.5 -30.5 5.5q-16.5 3 -31 5.5q-14.5 2.5 -18.5 3.5q-29 6 -54 16.5q-25 10.5 -43 27q-18 16.5 -28.5 39q-10.5 22.5 -10.5 53.5q0 32 12.5 60q12.5 28 38 49q25.5 21 64.5 33.5q39 12.5 93 12.5q92 0 146.5 -41q54.5 -41 62.5 -108l-113 0q-5 31 -35.5 43q-30.5 12 -65.5 12q-35 0 -62.5 -12.5q-27.5 -12.5 -27.5 -40.5q0 -24 18.5 -35q18.5 -11 54.5 -17z" />
<glyph unicode="&#116;" horiz-adv-x="421" d="M365 509v-96h-134v-251q0 -31 17 -47.5q17 -16.5 59 -16.5h58v-98h-62q-43 0 -77 6q-34 6 -58 22q-24 16 -37 44.5q-13 28.5 -13 72.5v268h-93v96h93v148h113l0 -148z" />
<glyph unicode="&#117;" horiz-adv-x="617" d="M184 509v-296q0 -125 112 -125q30 0 54.5 12q24.5 12 41 32q16.5 20 25.5 47.5q9 27.5 9 59.5v270h113v-509h-110v50h-20q-20 -26 -54.5 -44.5q-34.5 -18.5 -88.5 -18.5q-94 0 -144.5 55q-50.5 55 -50.5 152l0 315z" />
<glyph unicode="&#118;" horiz-adv-x="559" d="M21 509h117l122 -402h42l118 402h117l-159 -509l-199 0z" />
<glyph unicode="&#119;" horiz-adv-x="723" d="M426 366l75 -233h20l53 376h108l-74 -509h-152l-84 256h-20l-85 -256h-153l-73 509h109l54 -376h20l76 233z" />
<glyph unicode="&#120;" horiz-adv-x="577" d="M303 200h-28l-117 -200h-124l154 261l-139 248h121l106 -188h28l108 188h119l-140 -245l152 -264l-125 0z" />
<glyph unicode="&#121;" horiz-adv-x="566" d="M128 -200l105 250l-216 459h120l142 -307h26l129 307h119l-308 -709z" />
<glyph unicode="&#122;" horiz-adv-x="535" d="M49 0v116l283 277v20h-266v96h414v-115l-282 -278v-20h288l0 -96z" />
<glyph unicode="&#123;" horiz-adv-x="409" d="M188 299q26 -8 43.5 -34.5q17.5 -26.5 17.5 -74.5v-143q0 -54 22 -78q22 -24 67 -24h34v-86h-48q-80 0 -128 45q-48 45 -48 126v139q0 46 -14 70.5q-14 24.5 -53 24.5h-19v90h19q39 0 53 24.5q14 24.5 14 70.5v139q0 81 48 126q48 45 128 45h48v-86h-34q-45 0 -67 -24q-22 -24 -22 -78v-143q0 -48 -17.5 -74.5q-17.5 -26.5 -43.5 -34.5z" />
<glyph unicode="&#124;" horiz-adv-x="261" d="M83 759h95v-900l-95 0z" />
<glyph unicode="&#125;" horiz-adv-x="409" d="M221 299q-26 -8 -43.5 -34.5q-17.5 -26.5 -17.5 -74.5v-143q0 -54 -22 -78q-22 -24 -67 -24h-34v-86h48q80 0 128 45q48 45 48 126v139q0 46 14 70.5q14 24.5 53 24.5h19v90h-19q-39 0 -53 24.5q-14 24.5 -14 70.5v139q0 81 -48 126q-48 45 -128 45h-48v-86h34q45 0 67 -24q22 -24 22 -78v-143q0 -48 17.5 -74.5q17.5 -26.5 43.5 -34.5z" />
<glyph unicode="&#126;" horiz-adv-x="671" d="M588 377q0 -86 -39 -133q-39 -47 -100 -47q-35 0 -66.5 15q-31.5 15 -61.5 34q-23 15 -45 26.5q-22 11.5 -45 11.5q-33 0 -48.5 -24q-15.5 -24 -15.5 -63l-84 0q0 87 39 133.5q39 46.5 99 46.5q39 0 71.5 -16.5q32.5 -16.5 61.5 -35.5q23 -14 44 -24.5q21 -10.5 41 -10.5q33 0 48.5 24q15.5 24 15.5 63z" />
<glyph unicode="&#160;" horiz-adv-x="278" />
<glyph unicode="&#161;" horiz-adv-x="331" d="M106 -200v287l21 220h78l21 -220v-287zM231 509v-134h-131l0 134z" />
<glyph unicode="&#162;" horiz-adv-x="568" d="M262 -10q-51 6 -90.5 28q-39.5 22 -67 56.5q-27.5 34.5 -42 80.5q-14.5 46 -14.5 100q0 54 14.5 99.5q14.5 45.5 42 80q27.5 34.5 67 56.5q39.5 22 90.5 28l0 70h68v-69q81 -8 130 -53q49 -45 60 -113l-112 0q-9 27 -28 45q-19 18 -50 24l0 -338q34 6 54.5 26q20.5 20 27.5 52l112 0q-6 -36 -22 -66.5q-16 -30.5 -41 -53q-25 -22.5 -58 -36.5q-33 -14 -73 -18l0 -69h-68zM161 256q0 -30 5.5 -57.5q5.5 -27.5 18 -50q12.5 -22.5 31.5 -38.5q19 -16 46 -23l0 334q-54 -14 -77.5 -60t-23.5 -105z" />
<glyph unicode="&#163;" horiz-adv-x="641" d="M606 102v-102h-553v102h18q39 0 54.5 23.5q15.5 23.5 15.5 65.5v88h-88v93h88v119q0 51 14.5 92q14.5 41 42.5 70q28 29 68.5 45q40.5 16 93.5 16q103 0 158.5 -57q55.5 -57 58.5 -152l-116 0q-2 49 -25 77q-23 28 -74 28q-55 0 -80 -32.5q-25 -32.5 -25 -86.5v-119h215v-93h-215v-80q0 -26 -4.5 -44q-4.5 -18 -21.5 -33l0 -20z" />
<glyph unicode="&#164;" horiz-adv-x="723" d="M517 71q-32 -25 -71.5 -38.5q-39.5 -13.5 -83.5 -13.5q-44 0 -83.5 13.5q-39.5 13.5 -72.5 38.5l-68 -67l-55 54l67 68q-24 33 -38 73q-14 40 -14 84q0 44 13.5 83q13.5 39 38.5 72l-67 68l55 55l68 -67q33 24 72.5 37.5q39.5 13.5 83.5 13.5q44 0 83.5 -13.5q39.5 -13.5 71.5 -37.5l68 67l55 -55l-67 -69q24 -32 37.5 -71q13.5 -39 13.5 -83q0 -44 -13.5 -83.5q-13.5 -39.5 -37.5 -72.5l67 -69l-55 -54zM362 94q38 0 71 14.5q33 14.5 57 39.5q24 25 38 59.5q14 34.5 14 75.5q0 40 -14 74q-14 34 -38 59q-24 25 -57 39.5q-33 14.5 -71 14.5q-38 0 -71 -14.5q-33 -14.5 -58 -39.5q-25 -25 -39 -59q-14 -34 -14 -74q0 -41 14 -75.5q14 -34.5 39 -59.5q25 -25 58 -39.5t71 -14.5z" />
<glyph unicode="&#165;" horiz-adv-x="634" d="M93 373h94l-163 327h118l161 -327h28l161 327h119l-163 -327h93v-63h-124l-34 -67h158v-63h-166v-180h-116v180h-166v63h159l-34 67l-125 0z" />
<glyph unicode="&#166;" horiz-adv-x="261" d="M83 759h95v-348h-95zM83 207h95v-348l-95 0z" />
<glyph unicode="&#167;" horiz-adv-x="612" d="M226 379q-10 -4 -21.5 -11q-11.5 -7 -21 -18q-9.5 -11 -16 -25.5q-6.5 -14.5 -6.5 -32.5q0 -35 19.5 -55q19.5 -20 59.5 -32l147 -43q9 4 20 11.5q11 7.5 21 18q10 10.5 16.5 24.5q6.5 14 6.5 32q0 35 -19 55q-19 20 -59 32zM556 265q0 -27 -8.5 -49.5q-8.5 -22.5 -21 -40q-12.5 -17.5 -28 -29.5q-15.5 -12 -29.5 -18l0 -20q19 -16 32.5 -42.5q13.5 -26.5 13.5 -67.5q0 -36 -15.5 -67.5q-15.5 -31.5 -43.5 -55q-28 -23.5 -68 -36.5q-40 -13 -89 -13q-47 0 -87 13q-40 13 -69 38.5q-29 25.5 -46 63.5q-17 38 -19 87l105 0q2 -51 32 -80.5q30 -29.5 88 -29.5q55 0 80.5 25q25.5 25 25.5 57q0 59 -70 79l-133 38q-77 23 -113.5 59.5q-36.5 36.5 -36.5 99.5q0 27 8.5 49.5q8.5 22.5 21.5 40q13 17.5 29 29q16 11.5 30 16.5l0 20q-21 17 -34 43.5q-13 26.5 -13 68.5q0 37 15 68q15 31 42.5 54q27.5 23 67 36q39.5 13 89.5 13q47 0 86.5 -13q39.5 -13 68.5 -38q29 -25 46 -62.5q17 -37.5 19 -86.5l-105 0q-2 50 -31.5 79q-29.5 29 -88.5 29q-54 0 -79 -24.5q-25 -24.5 -25 -56.5q0 -59 70 -79l133 -39q78 -23 114 -59.5t36 -98.5z" />
<glyph unicode="&#168;" horiz-adv-x="370" d="M228 614v113h104v-113zM38 614v113h105l0 -113z" />
<glyph unicode="&#169;" horiz-adv-x="854" d="M600 297q-5 -30 -18 -55q-13 -25 -34 -43.5q-21 -18.5 -49 -29q-28 -10.5 -63 -10.5q-44 0 -78.5 15q-34.5 15 -57.5 41.5q-23 26.5 -35 62.5q-12 36 -12 78q0 42 12 78.5q12 36.5 35 63q23 26.5 57.5 41.5q34.5 15 78.5 15q67 0 109.5 -36q42.5 -36 51.5 -93l-76 0q-14 62 -85 62q-28 0 -48.5 -10q-20.5 -10 -33.5 -27.5q-13 -17.5 -19 -41.5q-6 -24 -6 -52q0 -55 25.5 -92q25.5 -37 81.5 -37q38 0 60.5 18.5q22.5 18.5 28.5 51.5zM427 727q78 0 145.5 -28.5q67.5 -28.5 117 -78q49.5 -49.5 78 -117.5q28.5 -68 28.5 -146q0 -78 -28.5 -146q-28.5 -68 -78 -117.5q-49.5 -49.5 -117 -78q-67.5 -28.5 -145.5 -28.5q-78 0 -145.5 28.5q-67.5 28.5 -117 78q-49.5 49.5 -78 117.5q-28.5 68 -28.5 146q0 78 28.5 146q28.5 68 78.5 117.5q50 49.5 117 78q67 28.5 145 28.5zt0 0zM427 46q66 0 122 24q56 24 97.5 65.5q41.5 41.5 64.5 98.5q23 57 23 123q0 66 -23 123q-23 57 -64.5 99q-41.5 42 -97.5 65.5q-56 23.5 -122 23.5q-66 0 -122 -23.5q-56 -23.5 -97 -65.5q-41 -42 -64 -99q-23 -57 -23 -123q0 -66 23 -123q23 -57 64 -99q41 -42 97 -65.5t122 -23.5z" />
<glyph unicode="&#170;" horiz-adv-x="434" d="M297 370h-13q-18 -20 -46 -32q-28 -12 -66 -12q-33 0 -58.5 10.5q-25.5 10.5 -42.5 27.5q-17 17 -25.5 40q-8.5 23 -8.5 47q0 22 7.5 44q7.5 22 25 40q17.5 18 45.5 29q28 11 69 11h110v14q0 30 -19.5 47q-19.5 17 -58.5 17q-69 0 -75 -49l-81 0q3 54 45 85.5q42 31.5 108 31.5q72 0 116.5 -33q44.5 -33 44.5 -102v-251h-77zM193 394q42 0 71.5 25.5q29.5 25.5 29.5 65.5v31h-93q-38 0 -61 -16.5q-23 -16.5 -23 -43.5q0 -30 21.5 -46t54.5 -16z" />
<glyph unicode="&#171;" horiz-adv-x="611" d="M158 277l167 -180h-123l-147 154v70l147 155h123l-167 -180zM389 277l167 -180h-123l-147 154v70l147 155h123l-167 -180z" />
<glyph unicode="&#172;" horiz-adv-x="682" d="M504 303h-421v96h516v-295l-95 0z" />
<glyph unicode="&#173;" horiz-adv-x="383" d="M47 230v99h288l0 -99z" />
<glyph unicode="&#174;" horiz-adv-x="854" d="M462 547q63 0 97 -30.5q34 -30.5 34 -85.5q0 -70 -56 -100l59 -165h-76l-53 149h-108v-149h-74v381zM451 379q36 0 51.5 13.5q15.5 13.5 15.5 37.5q0 25 -15.5 38q-15.5 13 -51.5 13h-92v-102zM427 727q78 0 145.5 -28.5q67.5 -28.5 117 -78q49.5 -49.5 78 -117.5q28.5 -68 28.5 -146q0 -78 -28.5 -146q-28.5 -68 -78 -117.5q-49.5 -49.5 -117 -78q-67.5 -28.5 -145.5 -28.5q-78 0 -145.5 28.5q-67.5 28.5 -117 78q-49.5 49.5 -78 117.5q-28.5 68 -28.5 146q0 78 28.5 146q28.5 68 78.5 117.5q50 49.5 117 78q67 28.5 145 28.5zt0 0zM427 46q66 0 122 24q56 24 97.5 65.5q41.5 41.5 64.5 98.5q23 57 23 123q0 66 -23 123q-23 57 -64.5 99q-41.5 42 -97.5 65.5q-56 23.5 -122 23.5q-66 0 -122 -23.5q-56 -23.5 -97 -65.5q-41 -42 -64 -99q-23 -57 -23 -123q0 -66 23 -123q23 -57 64 -99q41 -42 97 -65.5t122 -23.5z" />
<glyph unicode="&#175;" horiz-adv-x="372" d="M40 628v77h292l0 -77z" />
<glyph unicode="&#176;" horiz-adv-x="468" d="M430 523q0 -42 -15 -78.5q-15 -36.5 -41.5 -63q-26.5 -26.5 -62.5 -41.5q-36 -15 -78 -15q-42 0 -78 15q-36 15 -62 41.5q-26 26.5 -41 63q-15 36.5 -15 78.5q0 42 15 78.5q15 36.5 41 63q26 26.5 62 41.5q36 15 78 15q42 0 78 -15q36 -15 62.5 -41.5q26.5 -26.5 41.5 -63q15 -36.5 15 -78.5zt0 0zM233 399q26 0 47.5 9.5q21.5 9.5 37.5 26q16 16.5 24.5 39.5q8.5 23 8.5 49q0 26 -8.5 49q-8.5 23 -24.5 40q-16 17 -37.5 26.5q-21.5 9.5 -47.5 9.5q-26 0 -47.5 -9.5q-21.5 -9.5 -37.5 -26.5q-16 -17 -24.5 -40q-8.5 -23 -8.5 -49q0 -26 8.5 -49q8.5 -23 24.5 -39.5q16 -16.5 37.5 -26t47.5 -9.5z" />
<glyph unicode="&#177;" horiz-adv-x="678" d="M83 96h512v-96h-512zM290 557h97v-157h208v-96h-208v-157h-97v157h-206v96l206 0z" />
<glyph unicode="&#178;" horiz-adv-x="366" d="M329 401v-68h-292v81l114 78q15 10 30.5 22q15.5 12 27.5 25q12 13 19.5 27q7.5 14 7.5 30q0 28 -16.5 41.5q-16.5 13.5 -42.5 13.5q-29 0 -46 -14.5q-17 -14.5 -18 -45.5l-78 0q2 66 42 98q40 32 102 32q60 0 98 -31q38 -31 38 -91q0 -42 -21.5 -72.5q-21.5 -30.5 -53.5 -53.5l-81 -58l0 -14z" />
<glyph unicode="&#179;" horiz-adv-x="369" d="M237 568q37 -5 65.5 -33.5q28.5 -28.5 28.5 -78.5q0 -30 -11 -54q-11 -24 -30.5 -41q-19.5 -17 -47 -26q-27.5 -9 -59.5 -9q-33 0 -60.5 9.5q-27.5 9.5 -47 27q-19.5 17.5 -30.5 41q-11 23.5 -12 51.5l77 0q3 -29 23.5 -44q20.5 -15 49.5 -15q32 0 51 16q19 16 19 45q0 29 -18.5 46q-18.5 17 -50.5 17q-13 0 -21.5 -1q-8.5 -1 -15.5 -3l0 63l68 53v14h-155v68h254v-77l-77 -56l0 -13z" />
<glyph unicode="&#180;" horiz-adv-x="292" d="M140 582h-102l89 145l126 0z" />
<glyph unicode="&#181;" horiz-adv-x="624" d="M191 509v-296q0 -125 112 -125q30 0 54.5 12q24.5 12 41 32q16.5 20 25.5 47.5q9 27.5 9 59.5v270h113v-509h-110v50h-20q-20 -26 -54.5 -44.5q-34.5 -18.5 -88.5 -18.5q-45 0 -82 14l0 -201h-113l0 709z" />
<glyph unicode="&#182;" horiz-adv-x="684" d="M256 -177v491q-45 0 -85 11.5q-40 11.5 -70 36q-30 24.5 -47.5 62q-17.5 37.5 -17.5 90.5q0 52 16 90q16 38 45 62.5q29 24.5 69.5 36q40.5 11.5 89.5 11.5h382v-82h-80v-809h-98v809h-106l0 -809z" />
<glyph unicode="&#183;" horiz-adv-x="276" d="M72 264v134h131l0 -134z" />
<glyph unicode="&#184;" horiz-adv-x="280" d="M154 24l-31 -82h13q12 9 36 9q28 0 48.5 -22q20.5 -22 20.5 -60q0 -17 -6 -33q-6 -16 -18.5 -28.5q-12.5 -12.5 -32 -20.5q-19.5 -8 -47.5 -8q-47 0 -71 23q-24 23 -26 52l63 0q3 -10 11.5 -17q8.5 -7 24.5 -7q16 0 26 9.5q10 9.5 10 26.5q0 17 -10 26.5q-10 9.5 -26 9.5q-19 0 -31 -12l-58 0l51 134z" />
<glyph unicode="&#185;" horiz-adv-x="333" d="M296 401v-68h-259v68h92v228h-14l-78 -45v75l95 55h76l0 -313z" />
<glyph unicode="&#186;" horiz-adv-x="450" d="M225 721q44 0 79 -15q35 -15 59 -41.5q24 -26.5 37 -62.5q13 -36 13 -78q0 -42 -13 -78q-13 -36 -37 -63q-24 -27 -59 -42q-35 -15 -79 -15q-44 0 -79 15q-35 15 -59 42q-24 27 -37 63q-13 36 -13 78q0 42 13 78q13 36 37 62.5q24 26.5 59 41.5q35 15 79 15zt0 0zM225 398q27 0 47.5 10.5q20.5 10.5 34 28q13.5 17.5 20 40.5q6.5 23 6.5 47q0 24 -6.5 47q-6.5 23 -20 40q-13.5 17 -34 27.5q-20.5 10.5 -47.5 10.5q-27 0 -47.5 -10.5q-20.5 -10.5 -34 -27.5q-13.5 -17 -20 -40q-6.5 -23 -6.5 -47q0 -24 6.5 -47q6.5 -23 20 -40.5q13.5 -17.5 34 -28t47.5 -10.5z" />
<glyph unicode="&#187;" horiz-adv-x="611" d="M453 296l-167 180h123l147 -155v-70l-147 -154h-123l167 180zM222 296l-167 180h123l147 -155v-70l-147 -154h-123l167 180z" />
<glyph unicode="&#188;" horiz-adv-x="870" d="M186 0l424 700h88l-423 -700zM296 401v-68h-259v68h92v228h-14l-78 -45v75l95 55h76v-313zM833 149v-68h-49v-81h-77v81h-186v76l169 224h94v-232zM709 149v142h-14l-95 -128l0 -14z" />
<glyph unicode="&#189;" horiz-adv-x="886" d="M186 0l424 700h88l-423 -700zM296 401v-68h-259v68h92v228h-14l-78 -45v75l95 55h76v-313zM849 68v-68h-292v81l114 78q15 10 30.5 22q15.5 12 27.5 25q12 13 19.5 27q7.5 14 7.5 30q0 28 -16.5 41.5q-16.5 13.5 -42.5 13.5q-29 0 -46 -14.5q-17 -14.5 -18 -45.5l-78 0q2 66 42 98q40 32 102 32q60 0 98 -31q38 -31 38 -91q0 -42 -21.5 -72.5q-21.5 -30.5 -53.5 -53.5l-81 -58l0 -14z" />
<glyph unicode="&#190;" horiz-adv-x="875" d="M190 0l424 700h88l-423 -700zM838 149v-68h-49v-81h-77v81h-186v76l169 224h94v-232zM714 149v142h-14l-95 -128v-14zM236 568q37 -5 65.5 -33.5q28.5 -28.5 28.5 -78.5q0 -30 -11 -54q-11 -24 -30.5 -41q-19.5 -17 -47 -26q-27.5 -9 -59.5 -9q-33 0 -60.5 9.5q-27.5 9.5 -47 27q-19.5 17.5 -30.5 41q-11 23.5 -12 51.5l77 0q3 -29 23.5 -44q20.5 -15 49.5 -15q32 0 51 16q19 16 19 45q0 29 -18.5 46q-18.5 17 -50.5 17q-13 0 -21.5 -1q-8.5 -1 -15.5 -3l0 63l68 53v14h-155v68h254v-77l-77 -56l0 -13z" />
<glyph unicode="&#191;" horiz-adv-x="559" d="M229 375v134h131v-134zM281 -209q-56 0 -98.5 15q-42.5 15 -72 41.5q-29.5 26.5 -44.5 63q-15 36.5 -15 79.5q0 37 9.5 63.5q9.5 26.5 26 48q16.5 21.5 38.5 39.5q22 18 48 37q18 13 30 23q12 10 19.5 21.5q7.5 11.5 11 25.5q3.5 14 3.5 34v25h115v-25q0 -32 -6 -54.5q-6 -22.5 -18.5 -42q-12.5 -19.5 -32.5 -38q-20 -18.5 -48 -40.5q-18 -14 -32.5 -25.5q-14.5 -11.5 -25 -24.5q-10.5 -13 -16.5 -29q-6 -16 -6 -38q0 -19 7 -37q7 -18 21.5 -31.5q14.5 -13.5 35.5 -22q21 -8.5 48 -8.5q55 0 86.5 27.5q31.5 27.5 33.5 90.5l115 0q-1 -48 -17 -88q-16 -40 -45.5 -69q-29.5 -29 -72.5 -45t-98 -16z" />
<glyph unicode="&#192;" horiz-adv-x="705" d="M496 205h-291l-65 -205h-122l237 714h194l238 -714h-125zM239 312h222l-91 285h-41zM187 896h129l89 -129l-106 0z" />
<glyph unicode="&#193;" horiz-adv-x="705" d="M496 205h-291l-65 -205h-122l237 714h194l238 -714h-125zM239 312h222l-91 285h-41zM401 767h-105l88 129l130 0z" />
<glyph unicode="&#194;" horiz-adv-x="705" d="M496 205h-291l-65 -205h-122l237 714h194l238 -714h-125zM239 312h222l-91 285h-41zM516 767h-100l-55 60h-20l-54 -60h-98l111 129l105 0z" />
<glyph unicode="&#195;" horiz-adv-x="705" d="M496 205h-291l-65 -205h-122l237 714h194l238 -714h-125zM239 312h222l-91 285h-41zM422 838q21 0 28.5 18q7.5 18 7.5 44l61 0q0 -65 -24.5 -101q-24.5 -36 -73.5 -36q-27 0 -46 11.5q-19 11.5 -38 23.5q-15 10 -28 18.5q-13 8.5 -30 8.5q-21 0 -28.5 -18q-7.5 -18 -7.5 -44l-61 0q0 65 24.5 101q24.5 36 73.5 36q28 0 49.5 -12q21.5 -12 39.5 -25q14 -10 26.5 -17.5t26.5 -7.5z" />
<glyph unicode="&#196;" horiz-adv-x="705" d="M496 205h-291l-65 -205h-122l237 714h194l238 -714h-125zM239 312h222l-91 285h-41zM397 790v106h104v-106zM207 790v106h105l0 -106z" />
<glyph unicode="&#197;" horiz-adv-x="705" d="M353 878q24 0 44.5 -8.5q20.5 -8.5 35.5 -23.5q15 -15 24 -35.5q9 -20.5 9 -44.5q0 -31 -16 -58l236 -708h-123l-66 205h-293l-65 -205h-120l236 710q-16 26 -16 56q0 24 9 44.5q9 20.5 24.5 35.5q15.5 15 36.5 23.5q21 8.5 44 8.5zt0 0zM238 312h224l-91 285h-43zM353 714q22 0 37.5 15q15.5 15 15.5 37q0 23 -15.5 38.5q-15.5 15.5 -37.5 15.5q-22 0 -37.5 -15.5q-15.5 -15.5 -15.5 -38.5q0 -22 15.5 -37t37.5 -15z" />
<glyph unicode="&#198;" horiz-adv-x="1028" d="M507 206h-261l-107 -206h-132l380 714h582v-109h-342v-184h260v-107h-260v-205h355v-109h-475zM302 312h205v293l-52 0z" />
<glyph unicode="&#199;" horiz-adv-x="728" d="M679 216q-9 -51 -32.5 -93q-23.5 -42 -60 -72q-36.5 -30 -85.5 -47q-49 -17 -109 -17l-17 -45h13q12 9 36 9q29 0 49 -22q20 -22 20 -60q0 -17 -6 -33q-6 -16 -18.5 -28.5q-12.5 -12.5 -32 -20.5q-19.5 -8 -47.5 -8q-47 0 -71 23q-24 23 -26 52l63 0q3 -10 11.5 -17q8.5 -7 24.5 -7q16 0 26 9.5q10 9.5 10 26.5q0 17 -10 26.5q-10 9.5 -26 9.5q-19 0 -31 -12l-58 0l37 100q-69 7 -122.5 37.5q-53.5 30.5 -90 79q-36.5 48.5 -55.5 112q-19 63.5 -19 138.5q0 81 22.5 148.5q22.5 67.5 65.5 117q43 49.5 105.5 77q62.5 27.5 143.5 27.5q57 0 104.5 -15q47.5 -15 83.5 -43q36 -28 60 -66.5q24 -38.5 34 -86.5l-126 0q-17 51 -55 76.5q-38 25.5 -101 25.5q-55 0 -95.5 -21q-40.5 -21 -67 -56.5q-26.5 -35.5 -39.5 -83q-13 -47.5 -13 -100.5q0 -53 13 -100.5q13 -47.5 39 -83q26 -35.5 66.5 -56.5q40.5 -21 95.5 -21q66 0 108.5 31.5q42.5 31.5 56.5 88.5z" />
<glyph unicode="&#200;" horiz-adv-x="659" d="M613 109v-109h-526v714h513v-109h-393v-184h311v-107h-311v-205zM201 896h129l89 -129l-106 0z" />
<glyph unicode="&#201;" horiz-adv-x="659" d="M613 109v-109h-526v714h513v-109h-393v-184h311v-107h-311v-205zM358 767h-105l88 129l130 0z" />
<glyph unicode="&#202;" horiz-adv-x="659" d="M613 109v-109h-526v714h513v-109h-393v-184h311v-107h-311v-205zM508 767h-100l-55 60h-20l-54 -60h-98l111 129l105 0z" />
<glyph unicode="&#203;" horiz-adv-x="659" d="M613 109v-109h-526v714h513v-109h-393v-184h311v-107h-311v-205zM384 790v106h104v-106zM194 790v106h105l0 -106z" />
<glyph unicode="&#204;" horiz-adv-x="305" d="M212 714v-714h-120v714zM-11 896h129l89 -129l-106 0z" />
<glyph unicode="&#205;" horiz-adv-x="305" d="M212 714v-714h-120v714zM205 767h-105l88 129l130 0z" />
<glyph unicode="&#206;" horiz-adv-x="305" d="M212 714v-714h-120v714zM317 767h-100l-55 60h-20l-54 -60h-98l111 129l105 0z" />
<glyph unicode="&#207;" horiz-adv-x="305" d="M212 714v-714h-120v714zM196 790v106h104v-106zM6 790v106h105l0 -106z" />
<glyph unicode="&#208;" horiz-adv-x="765" d="M20 412h80v302h283q82 0 144 -25.5q62 -25.5 103 -72.5q41 -47 62 -112.5q21 -65.5 21 -146.5q0 -80 -21 -146q-21 -66 -62 -113q-41 -47 -103 -72.5q-62 -25.5 -144 -25.5h-283v318h-80zM373 109q60 0 101.5 19.5q41.5 19.5 67.5 53.5q26 34 37.5 79q11.5 45 11.5 96q0 51 -11.5 96.5q-11.5 45.5 -37.5 79q-26 33.5 -67.5 53q-41.5 19.5 -101.5 19.5h-153v-193h205v-94h-205l0 -209z" />
<glyph unicode="&#209;" horiz-adv-x="774" d="M688 714v-714h-167l-300 542h-20v-542h-114v714h167l300 -542h20v542zM459 838q21 0 28.5 18q7.5 18 7.5 44l61 0q0 -65 -24.5 -101q-24.5 -36 -73.5 -36q-27 0 -46 11.5q-19 11.5 -38 23.5q-15 10 -28 18.5q-13 8.5 -30 8.5q-21 0 -28.5 -18q-7.5 -18 -7.5 -44l-61 0q0 65 24.5 101q24.5 36 73.5 36q28 0 49.5 -12q21.5 -12 39.5 -25q14 -10 26.5 -17.5t26.5 -7.5z" />
<glyph unicode="&#210;" horiz-adv-x="785" d="M393 727q83 0 146.5 -28.5q63.5 -28.5 106.5 -78.5q43 -50 65 -117.5q22 -67.5 22 -145.5q0 -78 -22 -145.5q-22 -67.5 -65 -117.5q-43 -50 -106.5 -78.5q-63.5 -28.5 -146.5 -28.5q-83 0 -147 28.5q-64 28.5 -107 78.5q-43 50 -65 117.5q-22 67.5 -22 145.5q0 78 22 145.5q22 67.5 65 117.5q43 50 107 78.5q64 28.5 147 28.5zt0 0zM393 96q57 0 98 21q41 21 67.5 56.5q26.5 35.5 39.5 83q13 47.5 13 100.5q0 53 -13 100.5q-13 47.5 -39.5 83q-26.5 35.5 -67.5 56.5q-41 21 -98 21q-57 0 -98.5 -21q-41.5 -21 -68 -56.5q-26.5 -35.5 -39.5 -83q-13 -47.5 -13 -100.5q0 -53 13 -100.5q13 -47.5 39.5 -83q26.5 -35.5 68 -56.5q41.5 -21 98.5 -21zt0 0zM235 896h129l89 -129l-106 0z" />
<glyph unicode="&#211;" horiz-adv-x="785" d="M393 727q83 0 146.5 -28.5q63.5 -28.5 106.5 -78.5q43 -50 65 -117.5q22 -67.5 22 -145.5q0 -78 -22 -145.5q-22 -67.5 -65 -117.5q-43 -50 -106.5 -78.5q-63.5 -28.5 -146.5 -28.5q-83 0 -147 28.5q-64 28.5 -107 78.5q-43 50 -65 117.5q-22 67.5 -22 145.5q0 78 22 145.5q22 67.5 65 117.5q43 50 107 78.5q64 28.5 147 28.5zt0 0zM393 96q57 0 98 21q41 21 67.5 56.5q26.5 35.5 39.5 83q13 47.5 13 100.5q0 53 -13 100.5q-13 47.5 -39.5 83q-26.5 35.5 -67.5 56.5q-41 21 -98 21q-57 0 -98.5 -21q-41.5 -21 -68 -56.5q-26.5 -35.5 -39.5 -83q-13 -47.5 -13 -100.5q0 -53 13 -100.5q13 -47.5 39.5 -83q26.5 -35.5 68 -56.5q41.5 -21 98.5 -21zt0 0zM442 767h-105l88 129l130 0z" />
<glyph unicode="&#212;" horiz-adv-x="785" d="M393 727q83 0 146.5 -28.5q63.5 -28.5 106.5 -78.5q43 -50 65 -117.5q22 -67.5 22 -145.5q0 -78 -22 -145.5q-22 -67.5 -65 -117.5q-43 -50 -106.5 -78.5q-63.5 -28.5 -146.5 -28.5q-83 0 -147 28.5q-64 28.5 -107 78.5q-43 50 -65 117.5q-22 67.5 -22 145.5q0 78 22 145.5q22 67.5 65 117.5q43 50 107 78.5q64 28.5 147 28.5zt0 0zM393 96q57 0 98 21q41 21 67.5 56.5q26.5 35.5 39.5 83q13 47.5 13 100.5q0 53 -13 100.5q-13 47.5 -39.5 83q-26.5 35.5 -67.5 56.5q-41 21 -98 21q-57 0 -98.5 -21q-41.5 -21 -68 -56.5q-26.5 -35.5 -39.5 -83q-13 -47.5 -13 -100.5q0 -53 13 -100.5q13 -47.5 39.5 -83q26.5 -35.5 68 -56.5q41.5 -21 98.5 -21zt0 0zM557 767h-100l-55 60h-20l-54 -60h-98l111 129l105 0z" />
<glyph unicode="&#213;" horiz-adv-x="785" d="M393 727q83 0 146.5 -28.5q63.5 -28.5 106.5 -78.5q43 -50 65 -117.5q22 -67.5 22 -145.5q0 -78 -22 -145.5q-22 -67.5 -65 -117.5q-43 -50 -106.5 -78.5q-63.5 -28.5 -146.5 -28.5q-83 0 -147 28.5q-64 28.5 -107 78.5q-43 50 -65 117.5q-22 67.5 -22 145.5q0 78 22 145.5q22 67.5 65 117.5q43 50 107 78.5q64 28.5 147 28.5zt0 0zM393 96q57 0 98 21q41 21 67.5 56.5q26.5 35.5 39.5 83q13 47.5 13 100.5q0 53 -13 100.5q-13 47.5 -39.5 83q-26.5 35.5 -67.5 56.5q-41 21 -98 21q-57 0 -98.5 -21q-41.5 -21 -68 -56.5q-26.5 -35.5 -39.5 -83q-13 -47.5 -13 -100.5q0 -53 13 -100.5q13 -47.5 39.5 -83q26.5 -35.5 68 -56.5q41.5 -21 98.5 -21zt0 0zM465 838q21 0 28.5 18q7.5 18 7.5 44l61 0q0 -65 -24.5 -101q-24.5 -36 -73.5 -36q-27 0 -46 11.5q-19 11.5 -38 23.5q-15 10 -28 18.5q-13 8.5 -30 8.5q-21 0 -28.5 -18q-7.5 -18 -7.5 -44l-61 0q0 65 24.5 101q24.5 36 73.5 36q28 0 49.5 -12q21.5 -12 39.5 -25q14 -10 26.5 -17.5t26.5 -7.5z" />
<glyph unicode="&#214;" horiz-adv-x="785" d="M393 727q83 0 146.5 -28.5q63.5 -28.5 106.5 -78.5q43 -50 65 -117.5q22 -67.5 22 -145.5q0 -78 -22 -145.5q-22 -67.5 -65 -117.5q-43 -50 -106.5 -78.5q-63.5 -28.5 -146.5 -28.5q-83 0 -147 28.5q-64 28.5 -107 78.5q-43 50 -65 117.5q-22 67.5 -22 145.5q0 78 22 145.5q22 67.5 65 117.5q43 50 107 78.5q64 28.5 147 28.5zt0 0zM393 96q57 0 98 21q41 21 67.5 56.5q26.5 35.5 39.5 83q13 47.5 13 100.5q0 53 -13 100.5q-13 47.5 -39.5 83q-26.5 35.5 -67.5 56.5q-41 21 -98 21q-57 0 -98.5 -21q-41.5 -21 -68 -56.5q-26.5 -35.5 -39.5 -83q-13 -47.5 -13 -100.5q0 -53 13 -100.5q13 -47.5 39.5 -83q26.5 -35.5 68 -56.5q41.5 -21 98.5 -21zt0 0zM436 790v106h104v-106zM246 790v106h105l0 -106z" />
<glyph unicode="&#215;" horiz-adv-x="650" d="M83 463l67 67l175 -175l175 174l67 -66l-174 -176l174 -176l-67 -67l-175 175l-174 -173l-67 66l173 175z" />
<glyph unicode="&#216;" horiz-adv-x="785" d="M393 727q61 0 111.5 -16q50.5 -16 90.5 -45l39 48h101l-83 -102q40 -50 60.5 -115q20.5 -65 20.5 -140q0 -78 -22 -145.5q-22 -67.5 -65 -117.5q-43 -50 -106.5 -78.5q-63.5 -28.5 -146.5 -28.5q-62 0 -112.5 15.5q-50.5 15.5 -90.5 44.5l-39 -47h-101l83 101q-41 50 -61 115.5q-20 65.5 -20 140.5q0 78 22 145.5q22 67.5 65 117.5q43 50 107 78.5q64 28.5 147 28.5zt0 0zM393 96q57 0 98 21q41 21 67.5 56.5q26.5 35.5 39.5 83q13 47.5 13 100.5q0 45 -9 85.5q-9 40.5 -28 74.5l-311 -380q25 -20 57 -30.5q32 -10.5 73 -10.5zt0 0zM174 357q0 -45 9 -86q9 -41 28 -74l311 380q-25 20 -57 30.5q-32 10.5 -72 10.5q-57 0 -98.5 -21q-41.5 -21 -68 -56.5q-26.5 -35.5 -39.5 -83t-13 -100.5z" />
<glyph unicode="&#217;" horiz-adv-x="750" d="M665 714v-455q0 -130 -75 -201q-75 -71 -215 -71q-140 0 -215 71q-75 71 -75 201v455h120v-452q0 -75 43.5 -120.5q43.5 -45.5 126.5 -45.5q84 0 127 45.5q43 45.5 43 120.5v452zM225 896h129l89 -129l-106 0z" />
<glyph unicode="&#218;" horiz-adv-x="750" d="M665 714v-455q0 -130 -75 -201q-75 -71 -215 -71q-140 0 -215 71q-75 71 -75 201v455h120v-452q0 -75 43.5 -120.5q43.5 -45.5 126.5 -45.5q84 0 127 45.5q43 45.5 43 120.5v452zM405 767h-105l88 129l130 0z" />
<glyph unicode="&#219;" horiz-adv-x="750" d="M665 714v-455q0 -130 -75 -201q-75 -71 -215 -71q-140 0 -215 71q-75 71 -75 201v455h120v-452q0 -75 43.5 -120.5q43.5 -45.5 126.5 -45.5q84 0 127 45.5q43 45.5 43 120.5v452zM539 767h-100l-55 60h-20l-54 -60h-98l111 129l105 0z" />
<glyph unicode="&#220;" horiz-adv-x="750" d="M665 714v-455q0 -130 -75 -201q-75 -71 -215 -71q-140 0 -215 71q-75 71 -75 201v455h120v-452q0 -75 43.5 -120.5q43.5 -45.5 126.5 -45.5q84 0 127 45.5q43 45.5 43 120.5v452zM418 790v106h104v-106zM228 790v106h105l0 -106z" />
<glyph unicode="&#221;" horiz-adv-x="661" d="M343 409l171 305h131l-255 -452v-262h-120v262l-255 452h131l171 -305zM367 767h-105l88 129l130 0z" />
<glyph unicode="&#222;" horiz-adv-x="665" d="M375 570q115 0 177.5 -56.5q62.5 -56.5 62.5 -156.5q0 -100 -62.5 -156.5q-62.5 -56.5 -177.5 -56.5h-168v-144h-120v714h120v-144zM357 250q75 0 105.5 28.5q30.5 28.5 30.5 79.5q0 51 -30.5 78.5q-30.5 27.5 -105.5 27.5h-150l0 -214z" />
<glyph unicode="&#223;" horiz-adv-x="631" d="M466 383q27 -6 49.5 -21.5q22.5 -15.5 39 -38.5q16.5 -23 26 -52q9.5 -29 9.5 -62q0 -101 -62 -155q-62 -54 -165 -54h-65v96h46q27 0 51 6q24 6 42 19.5q18 13.5 29 36.5q11 23 11 57q0 59 -37 91.5q-37 32.5 -111 32.5h-14v96h14q60 0 85 29.5q25 29.5 25 68.5q0 47 -28.5 73.5q-28.5 26.5 -77.5 26.5q-58 0 -85.5 -34.5q-27.5 -34.5 -27.5 -100.5v-498h-113v413h-90v96h91q0 103 60 161.5q60 58.5 168 58.5q48 0 87.5 -13.5q39.5 -13.5 67.5 -38.5q28 -25 43.5 -59q15.5 -34 15.5 -75q0 -51 -23 -88.5q-23 -37.5 -61 -51.5l0 -20z" />
<glyph unicode="&#224;" horiz-adv-x="572" d="M395 49h-20q-23 -29 -60.5 -45.5q-37.5 -16.5 -90.5 -16.5q-44 0 -78.5 13.5q-34.5 13.5 -58 37q-23.5 23.5 -35.5 53.5q-12 30 -12 63q0 30 11 60.5q11 30.5 35 55q24 24.5 62.5 40q38.5 15.5 93.5 15.5h150v15q0 42 -25.5 67.5q-25.5 25.5 -81.5 25.5q-49 0 -74 -18q-25 -18 -28 -47l-112 0q2 36 18 64.5q16 28.5 44 48.5q28 20 65.5 30.5q37.5 10.5 82.5 10.5q49 0 90 -11q41 -11 69.5 -33.5q28.5 -22.5 44.5 -57.5q16 -35 16 -82v-338h-106zM257 79q28 0 53 9.5q25 9.5 43 26.5q18 17 28.5 39.5q10.5 22.5 10.5 48.5v38h-130q-54 0 -81 -21.5q-27 -21.5 -27 -60.5q0 -38 27 -59q27 -21 76 -21zt0 0zM144 727h123l89 -145l-100 0z" />
<glyph unicode="&#225;" horiz-adv-x="572" d="M395 49h-20q-23 -29 -60.5 -45.5q-37.5 -16.5 -90.5 -16.5q-44 0 -78.5 13.5q-34.5 13.5 -58 37q-23.5 23.5 -35.5 53.5q-12 30 -12 63q0 30 11 60.5q11 30.5 35 55q24 24.5 62.5 40q38.5 15.5 93.5 15.5h150v15q0 42 -25.5 67.5q-25.5 25.5 -81.5 25.5q-49 0 -74 -18q-25 -18 -28 -47l-112 0q2 36 18 64.5q16 28.5 44 48.5q28 20 65.5 30.5q37.5 10.5 82.5 10.5q49 0 90 -11q41 -11 69.5 -33.5q28.5 -22.5 44.5 -57.5q16 -35 16 -82v-338h-106zM257 79q28 0 53 9.5q25 9.5 43 26.5q18 17 28.5 39.5q10.5 22.5 10.5 48.5v38h-130q-54 0 -81 -21.5q-27 -21.5 -27 -60.5q0 -38 27 -59q27 -21 76 -21zt0 0zM318 582h-102l89 145l126 0z" />
<glyph unicode="&#226;" horiz-adv-x="572" d="M395 49h-20q-23 -29 -60.5 -45.5q-37.5 -16.5 -90.5 -16.5q-44 0 -78.5 13.5q-34.5 13.5 -58 37q-23.5 23.5 -35.5 53.5q-12 30 -12 63q0 30 11 60.5q11 30.5 35 55q24 24.5 62.5 40q38.5 15.5 93.5 15.5h150v15q0 42 -25.5 67.5q-25.5 25.5 -81.5 25.5q-49 0 -74 -18q-25 -18 -28 -47l-112 0q2 36 18 64.5q16 28.5 44 48.5q28 20 65.5 30.5q37.5 10.5 82.5 10.5q49 0 90 -11q41 -11 69.5 -33.5q28.5 -22.5 44.5 -57.5q16 -35 16 -82v-338h-106zM257 79q28 0 53 9.5q25 9.5 43 26.5q18 17 28.5 39.5q10.5 22.5 10.5 48.5v38h-130q-54 0 -81 -21.5q-27 -21.5 -27 -60.5q0 -38 27 -59q27 -21 76 -21zt0 0zM454 582h-97l-59 73h-17l-58 -73h-96l112 145l104 0z" />
<glyph unicode="&#227;" horiz-adv-x="572" d="M395 49h-20q-23 -29 -60.5 -45.5q-37.5 -16.5 -90.5 -16.5q-44 0 -78.5 13.5q-34.5 13.5 -58 37q-23.5 23.5 -35.5 53.5q-12 30 -12 63q0 30 11 60.5q11 30.5 35 55q24 24.5 62.5 40q38.5 15.5 93.5 15.5h150v15q0 42 -25.5 67.5q-25.5 25.5 -81.5 25.5q-49 0 -74 -18q-25 -18 -28 -47l-112 0q2 36 18 64.5q16 28.5 44 48.5q28 20 65.5 30.5q37.5 10.5 82.5 10.5q49 0 90 -11q41 -11 69.5 -33.5q28.5 -22.5 44.5 -57.5q16 -35 16 -82v-338h-106zM257 79q28 0 53 9.5q25 9.5 43 26.5q18 17 28.5 39.5q10.5 22.5 10.5 48.5v38h-130q-54 0 -81 -21.5q-27 -21.5 -27 -60.5q0 -38 27 -59q27 -21 76 -21zt0 0zM360 661q21 0 28.5 18q7.5 18 7.5 44l61 0q0 -65 -24.5 -101q-24.5 -36 -73.5 -36q-27 0 -46 11.5q-19 11.5 -38 23.5q-15 10 -28 18.5q-13 8.5 -30 8.5q-21 0 -28.5 -18q-7.5 -18 -7.5 -44l-61 0q0 65 24.5 101q24.5 36 73.5 36q28 0 49.5 -12q21.5 -12 39.5 -25q14 -10 26.5 -17.5t26.5 -7.5z" />
<glyph unicode="&#228;" horiz-adv-x="572" d="M395 49h-20q-23 -29 -60.5 -45.5q-37.5 -16.5 -90.5 -16.5q-44 0 -78.5 13.5q-34.5 13.5 -58 37q-23.5 23.5 -35.5 53.5q-12 30 -12 63q0 30 11 60.5q11 30.5 35 55q24 24.5 62.5 40q38.5 15.5 93.5 15.5h150v15q0 42 -25.5 67.5q-25.5 25.5 -81.5 25.5q-49 0 -74 -18q-25 -18 -28 -47l-112 0q2 36 18 64.5q16 28.5 44 48.5q28 20 65.5 30.5q37.5 10.5 82.5 10.5q49 0 90 -11q41 -11 69.5 -33.5q28.5 -22.5 44.5 -57.5q16 -35 16 -82v-338h-106zM257 79q28 0 53 9.5q25 9.5 43 26.5q18 17 28.5 39.5q10.5 22.5 10.5 48.5v38h-130q-54 0 -81 -21.5q-27 -21.5 -27 -60.5q0 -38 27 -59q27 -21 76 -21zt0 0zM341 614v113h104v-113zM151 614v113h105l0 -113z" />
<glyph unicode="&#229;" horiz-adv-x="572" d="M395 49h-20q-23 -29 -60.5 -45.5q-37.5 -16.5 -90.5 -16.5q-44 0 -78.5 13.5q-34.5 13.5 -58 37q-23.5 23.5 -35.5 53.5q-12 30 -12 63q0 30 11 60.5q11 30.5 35 55q24 24.5 62.5 40q38.5 15.5 93.5 15.5h150v15q0 42 -25.5 67.5q-25.5 25.5 -81.5 25.5q-49 0 -74 -18q-25 -18 -28 -47l-112 0q2 36 18 64.5q16 28.5 44 48.5q28 20 65.5 30.5q37.5 10.5 82.5 10.5q49 0 90 -11q41 -11 69.5 -33.5q28.5 -22.5 44.5 -57.5q16 -35 16 -82v-338h-106zM257 79q28 0 53 9.5q25 9.5 43 26.5q18 17 28.5 39.5q10.5 22.5 10.5 48.5v38h-130q-54 0 -81 -21.5q-27 -21.5 -27 -60.5q0 -38 27 -59q27 -21 76 -21zt0 0zM291 798q24 0 44.5 -8.5q20.5 -8.5 35.5 -23.5q15 -15 24 -35.5q9 -20.5 9 -44.5q0 -23 -9 -43q-9 -20 -24 -35q-15 -15 -35.5 -24q-20.5 -9 -44.5 -9q-23 0 -44 9q-21 9 -36.5 24q-15.5 15 -24.5 35q-9 20 -9 43q0 24 9 44.5q9 20.5 24.5 35.5q15.5 15 36.5 23.5q21 8.5 44 8.5zt0 0zM291 634q22 0 37.5 15q15.5 15 15.5 37q0 23 -15.5 38.5q-15.5 15.5 -37.5 15.5q-22 0 -37.5 -15.5q-15.5 -15.5 -15.5 -38.5q0 -22 15.5 -37t37.5 -15z" />
<glyph unicode="&#230;" horiz-adv-x="908" d="M492 241q2 -71 36.5 -114.5q34.5 -43.5 102.5 -43.5q45 0 72 16.5q27 16.5 39 48.5l114 0q-15 -71 -70.5 -116q-55.5 -45 -154.5 -45q-63 0 -110 25q-47 25 -78 68l-20 0q-29 -40 -79 -66.5q-50 -26.5 -116 -26.5q-46 0 -81 13.5q-35 13.5 -59 36q-24 22.5 -36 51.5q-12 29 -12 61q0 87 56.5 131.5q56.5 44.5 150.5 44.5h137v15q0 43 -25 68q-25 25 -78 25q-45 0 -69.5 -17.5q-24.5 -17.5 -28.5 -47.5l-112 0q1 36 17.5 64.5q16.5 28.5 44 48.5q27.5 20 64.5 30.5q37 10.5 80 10.5q57 0 99 -18q42 -18 68 -52l20 0q29 32 71.5 51q42.5 19 96.5 19q54 0 96.5 -19q42.5 -19 72 -51.5q29.5 -32.5 45 -76.5q15.5 -44 15.5 -95v-39zM384 241h-121q-54 0 -81.5 -21q-27.5 -21 -27.5 -59q0 -40 27 -61q27 -21 74 -21q28 0 51.5 9.5q23.5 9.5 41 26q17.5 16.5 27 38.5q9.5 22 9.5 48zM627 432q-57 0 -88.5 -30.5q-31.5 -30.5 -40.5 -76.5l248 0q-5 47 -35 77t-84 30z" />
<glyph unicode="&#231;" horiz-adv-x="568" d="M524 163q-6 -39 -24.5 -71.5q-18.5 -32.5 -47 -55.5q-28.5 -23 -66.5 -36q-38 -13 -83 -13l-17 -45h13q12 9 36 9q29 0 49 -22q20 -22 20 -60q0 -17 -6 -33q-6 -16 -18.5 -28.5q-12.5 -12.5 -32 -20.5q-19.5 -8 -47.5 -8q-47 0 -71 23q-24 23 -26 52l63 0q3 -10 11.5 -17q8.5 -7 24.5 -7q16 0 26 9.5q10 9.5 10 26.5q0 17 -10 26.5q-10 9.5 -26 9.5q-19 0 -31 -12l-58 0l38 101q-97 16 -150 87q-53 71 -53 177q0 58 17 107.5q17 49.5 49.5 84.5q32.5 35 79.5 55q47 20 106 20q94 0 151.5 -46.5q57.5 -46.5 68.5 -121.5l-112 0q-11 33 -36.5 52.5q-25.5 19.5 -70.5 19.5q-38 0 -64.5 -14q-26.5 -14 -43.5 -37q-17 -23 -24.5 -54q-7.5 -31 -7.5 -65q0 -35 8 -66.5q8 -31.5 24.5 -55q16.5 -23.5 43 -37.5q26.5 -14 64.5 -14q48 0 75.5 21q27.5 21 35.5 59z" />
<glyph unicode="&#232;" horiz-adv-x="583" d="M536 245h-376q2 -78 38 -120q36 -42 105 -42q46 0 73 17q27 17 38 48l115 0q-14 -71 -71 -116q-57 -45 -156 -45q-60 0 -107 20q-47 20 -80 56q-33 36 -50 85.5q-17 49.5 -17 109.5q0 60 17.5 108.5q17.5 48.5 49.5 83q32 34.5 78.5 53.5q46.5 19 105.5 19q57 0 101 -19q44 -19 74 -51q30 -32 45.5 -76q15.5 -44 16.5 -93zM298 432q-60 0 -91.5 -29.5q-31.5 -29.5 -41.5 -73.5l255 0q-5 43 -35.5 73q-30.5 30 -86.5 30zt0 0zM159 727h123l89 -145l-100 0z" />
<glyph unicode="&#233;" horiz-adv-x="583" d="M536 245h-376q2 -78 38 -120q36 -42 105 -42q46 0 73 17q27 17 38 48l115 0q-14 -71 -71 -116q-57 -45 -156 -45q-60 0 -107 20q-47 20 -80 56q-33 36 -50 85.5q-17 49.5 -17 109.5q0 60 17.5 108.5q17.5 48.5 49.5 83q32 34.5 78.5 53.5q46.5 19 105.5 19q57 0 101 -19q44 -19 74 -51q30 -32 45.5 -76q15.5 -44 16.5 -93zM298 432q-60 0 -91.5 -29.5q-31.5 -29.5 -41.5 -73.5l255 0q-5 43 -35.5 73q-30.5 30 -86.5 30zt0 0zM340 582h-102l89 145l126 0z" />
<glyph unicode="&#234;" horiz-adv-x="583" d="M536 245h-376q2 -78 38 -120q36 -42 105 -42q46 0 73 17q27 17 38 48l115 0q-14 -71 -71 -116q-57 -45 -156 -45q-60 0 -107 20q-47 20 -80 56q-33 36 -50 85.5q-17 49.5 -17 109.5q0 60 17.5 108.5q17.5 48.5 49.5 83q32 34.5 78.5 53.5q46.5 19 105.5 19q57 0 101 -19q44 -19 74 -51q30 -32 45.5 -76q15.5 -44 16.5 -93zM298 432q-60 0 -91.5 -29.5q-31.5 -29.5 -41.5 -73.5l255 0q-5 43 -35.5 73q-30.5 30 -86.5 30zt0 0zM463 582h-97l-59 73h-17l-58 -73h-96l112 145l104 0z" />
<glyph unicode="&#235;" horiz-adv-x="583" d="M536 245h-376q2 -78 38 -120q36 -42 105 -42q46 0 73 17q27 17 38 48l115 0q-14 -71 -71 -116q-57 -45 -156 -45q-60 0 -107 20q-47 20 -80 56q-33 36 -50 85.5q-17 49.5 -17 109.5q0 60 17.5 108.5q17.5 48.5 49.5 83q32 34.5 78.5 53.5q46.5 19 105.5 19q57 0 101 -19q44 -19 74 -51q30 -32 45.5 -76q15.5 -44 16.5 -93zM298 432q-60 0 -91.5 -29.5q-31.5 -29.5 -41.5 -73.5l255 0q-5 43 -35.5 73q-30.5 30 -86.5 30zt0 0zM342 614v113h104v-113zM152 614v113h105l0 -113z" />
<glyph unicode="&#236;" horiz-adv-x="273" d="M192 0h-113v509h113zM-21 727h123l89 -145l-100 0z" />
<glyph unicode="&#237;" horiz-adv-x="272" d="M192 0h-113v509h113zM188 582h-102l89 145l126 0z" />
<glyph unicode="&#238;" horiz-adv-x="272" d="M192 0h-113v509h113zM300 582h-97l-59 73h-17l-58 -73h-96l112 145l104 0z" />
<glyph unicode="&#239;" horiz-adv-x="272" d="M192 0h-113v509h113zM179 614v113h104v-113zM-11 614v113h105l0 -113z" />
<glyph unicode="&#240;" horiz-adv-x="604" d="M139 618h150q-35 33 -70.5 60.5q-35.5 27.5 -65.5 48.5l138 0q28 -20 59.5 -47q31.5 -27 63.5 -62l128 0v-63h-78q39 -58 65.5 -130.5q26.5 -72.5 26.5 -162.5q0 -59 -16 -109.5q-16 -50.5 -48 -87q-32 -36.5 -80 -57.5q-48 -21 -112 -21q-59 0 -105.5 19.5q-46.5 19.5 -79 54q-32.5 34.5 -50 81q-17.5 46.5 -17.5 99.5q0 54 17 99.5q17 45.5 47 79q30 33.5 71 52q41 18.5 90 18.5q38 0 69.5 -10q31.5 -10 49.5 -27l20 0q-12 27 -28 52.5q-16 25.5 -36 49.5l-209 0zM302 83q37 0 63.5 12.5q26.5 12.5 44 34q17.5 21.5 25.5 50q8 28.5 8 60.5q0 32 -8 61q-8 29 -25.5 50.5q-17.5 21.5 -44 34q-26.5 12.5 -63.5 12.5q-37 0 -64 -12.5q-27 -12.5 -44 -34q-17 -21.5 -25.5 -50.5q-8.5 -29 -8.5 -61q0 -32 8.5 -60.5q8.5 -28.5 25.5 -50q17 -21.5 44 -34t64 -12.5z" />
<glyph unicode="&#241;" horiz-adv-x="620" d="M436 0v296q0 62 -29 93.5q-29 31.5 -85 31.5q-30 0 -54.5 -12q-24.5 -12 -41.5 -32q-17 -20 -26 -48q-9 -28 -9 -59v-270h-113v509h110v-50h20q20 26 55 44.5q35 18.5 89 18.5q94 0 145.5 -55q51.5 -55 51.5 -152v-315zM386 661q21 0 28.5 18q7.5 18 7.5 44l61 0q0 -65 -24.5 -101q-24.5 -36 -73.5 -36q-27 0 -46 11.5q-19 11.5 -38 23.5q-15 10 -28 18.5q-13 8.5 -30 8.5q-21 0 -28.5 -18q-7.5 -18 -7.5 -44l-61 0q0 65 24.5 101q24.5 36 73.5 36q28 0 49.5 -12q21.5 -12 39.5 -25q14 -10 26.5 -17.5t26.5 -7.5z" />
<glyph unicode="&#242;" horiz-adv-x="610" d="M305 522q60 0 107.5 -20q47.5 -20 81 -55.5q33.5 -35.5 51 -84.5q17.5 -49 17.5 -107q0 -59 -17.5 -108q-17.5 -49 -51 -84.5q-33.5 -35.5 -81 -55.5q-47.5 -20 -107.5 -20q-60 0 -107.5 20q-47.5 20 -81 55.5q-33.5 35.5 -51 84.5q-17.5 49 -17.5 108q0 58 17.5 107q17.5 49 51 84.5q33.5 35.5 81 55.5q47.5 20 107.5 20zt0 0zM305 83q37 0 64 14q27 14 45 38q18 24 26.5 55q8.5 31 8.5 65q0 33 -8.5 64q-8.5 31 -26.5 55q-18 24 -45 38q-27 14 -64 14q-37 0 -64 -14q-27 -14 -45 -38q-18 -24 -26.5 -55q-8.5 -31 -8.5 -64q0 -34 8.5 -65q8.5 -31 26.5 -55q18 -24 45 -38q27 -14 64 -14zt0 0zM150 727h123l89 -145l-100 0z" />
<glyph unicode="&#243;" horiz-adv-x="610" d="M305 522q60 0 107.5 -20q47.5 -20 81 -55.5q33.5 -35.5 51 -84.5q17.5 -49 17.5 -107q0 -59 -17.5 -108q-17.5 -49 -51 -84.5q-33.5 -35.5 -81 -55.5q-47.5 -20 -107.5 -20q-60 0 -107.5 20q-47.5 20 -81 55.5q-33.5 35.5 -51 84.5q-17.5 49 -17.5 108q0 58 17.5 107q17.5 49 51 84.5q33.5 35.5 81 55.5q47.5 20 107.5 20zt0 0zM305 83q37 0 64 14q27 14 45 38q18 24 26.5 55q8.5 31 8.5 65q0 33 -8.5 64q-8.5 31 -26.5 55q-18 24 -45 38q-27 14 -64 14q-37 0 -64 -14q-27 -14 -45 -38q-18 -24 -26.5 -55q-8.5 -31 -8.5 -64q0 -34 8.5 -65q8.5 -31 26.5 -55q18 -24 45 -38q27 -14 64 -14zt0 0zM352 582h-102l89 145l126 0z" />
<glyph unicode="&#244;" horiz-adv-x="610" d="M305 522q60 0 107.5 -20q47.5 -20 81 -55.5q33.5 -35.5 51 -84.5q17.5 -49 17.5 -107q0 -59 -17.5 -108q-17.5 -49 -51 -84.5q-33.5 -35.5 -81 -55.5q-47.5 -20 -107.5 -20q-60 0 -107.5 20q-47.5 20 -81 55.5q-33.5 35.5 -51 84.5q-17.5 49 -17.5 108q0 58 17.5 107q17.5 49 51 84.5q33.5 35.5 81 55.5q47.5 20 107.5 20zt0 0zM305 83q37 0 64 14q27 14 45 38q18 24 26.5 55q8.5 31 8.5 65q0 33 -8.5 64q-8.5 31 -26.5 55q-18 24 -45 38q-27 14 -64 14q-37 0 -64 -14q-27 -14 -45 -38q-18 -24 -26.5 -55q-8.5 -31 -8.5 -64q0 -34 8.5 -65q8.5 -31 26.5 -55q18 -24 45 -38q27 -14 64 -14zt0 0zM469 582h-97l-59 73h-17l-58 -73h-96l112 145l104 0z" />
<glyph unicode="&#245;" horiz-adv-x="610" d="M305 522q60 0 107.5 -20q47.5 -20 81 -55.5q33.5 -35.5 51 -84.5q17.5 -49 17.5 -107q0 -59 -17.5 -108q-17.5 -49 -51 -84.5q-33.5 -35.5 -81 -55.5q-47.5 -20 -107.5 -20q-60 0 -107.5 20q-47.5 20 -81 55.5q-33.5 35.5 -51 84.5q-17.5 49 -17.5 108q0 58 17.5 107q17.5 49 51 84.5q33.5 35.5 81 55.5q47.5 20 107.5 20zt0 0zM305 83q37 0 64 14q27 14 45 38q18 24 26.5 55q8.5 31 8.5 65q0 33 -8.5 64q-8.5 31 -26.5 55q-18 24 -45 38q-27 14 -64 14q-37 0 -64 -14q-27 -14 -45 -38q-18 -24 -26.5 -55q-8.5 -31 -8.5 -64q0 -34 8.5 -65q8.5 -31 26.5 -55q18 -24 45 -38q27 -14 64 -14zt0 0zM377 661q21 0 28.5 18q7.5 18 7.5 44l61 0q0 -65 -24.5 -101q-24.5 -36 -73.5 -36q-27 0 -46 11.5q-19 11.5 -38 23.5q-15 10 -28 18.5q-13 8.5 -30 8.5q-21 0 -28.5 -18q-7.5 -18 -7.5 -44l-61 0q0 65 24.5 101q24.5 36 73.5 36q28 0 49.5 -12q21.5 -12 39.5 -25q14 -10 26.5 -17.5t26.5 -7.5z" />
<glyph unicode="&#246;" horiz-adv-x="610" d="M305 522q60 0 107.5 -20q47.5 -20 81 -55.5q33.5 -35.5 51 -84.5q17.5 -49 17.5 -107q0 -59 -17.5 -108q-17.5 -49 -51 -84.5q-33.5 -35.5 -81 -55.5q-47.5 -20 -107.5 -20q-60 0 -107.5 20q-47.5 20 -81 55.5q-33.5 35.5 -51 84.5q-17.5 49 -17.5 108q0 58 17.5 107q17.5 49 51 84.5q33.5 35.5 81 55.5q47.5 20 107.5 20zt0 0zM305 83q37 0 64 14q27 14 45 38q18 24 26.5 55q8.5 31 8.5 65q0 33 -8.5 64q-8.5 31 -26.5 55q-18 24 -45 38q-27 14 -64 14q-37 0 -64 -14q-27 -14 -45 -38q-18 -24 -26.5 -55q-8.5 -31 -8.5 -64q0 -34 8.5 -65q8.5 -31 26.5 -55q18 -24 45 -38q27 -14 64 -14zt0 0zM348 614v113h104v-113zM158 614v113h105l0 -113z" />
<glyph unicode="&#247;" horiz-adv-x="686" d="M278 17v124h130v-124zM278 433v124h130v-124zM83 239v96h520l0 -96z" />
<glyph unicode="&#248;" horiz-adv-x="610" d="M305 522q83 0 145 -39l22 26h95l-63 -75q28 -35 43 -80q15 -45 15 -99q0 -59 -17.5 -108q-17.5 -49 -51 -84.5q-33.5 -35.5 -81 -55.5q-47.5 -20 -107.5 -20q-43 0 -79.5 10q-36.5 10 -65.5 29l-22 -26h-95l63 75q-58 70 -58 180q0 58 17.5 107q17.5 49 51 84.5q33.5 35.5 81 55.5q47.5 20 107.5 20zt0 0zM305 83q37 0 64 14q27 14 45 38q18 24 26.5 55q8.5 31 8.5 65q0 48 -19 91l-204 -241q33 -22 79 -22zt0 0zM161 255q0 -53 18 -93l204 241q-16 11 -35.5 17q-19.5 6 -42.5 6q-37 0 -64 -14q-27 -14 -45 -38q-18 -24 -26.5 -55t-8.5 -64z" />
<glyph unicode="&#249;" horiz-adv-x="617" d="M184 509v-296q0 -125 112 -125q30 0 54.5 12q24.5 12 41 32q16.5 20 25.5 47.5q9 27.5 9 59.5v270h113v-509h-110v50h-20q-20 -26 -54.5 -44.5q-34.5 -18.5 -88.5 -18.5q-94 0 -144.5 55q-50.5 55 -50.5 152v315zM148 727h123l89 -145l-100 0z" />
<glyph unicode="&#250;" horiz-adv-x="617" d="M184 509v-296q0 -125 112 -125q30 0 54.5 12q24.5 12 41 32q16.5 20 25.5 47.5q9 27.5 9 59.5v270h113v-509h-110v50h-20q-20 -26 -54.5 -44.5q-34.5 -18.5 -88.5 -18.5q-94 0 -144.5 55q-50.5 55 -50.5 152v315zM338 582h-102l89 145l126 0z" />
<glyph unicode="&#251;" horiz-adv-x="617" d="M184 509v-296q0 -125 112 -125q30 0 54.5 12q24.5 12 41 32q16.5 20 25.5 47.5q9 27.5 9 59.5v270h113v-509h-110v50h-20q-20 -26 -54.5 -44.5q-34.5 -18.5 -88.5 -18.5q-94 0 -144.5 55q-50.5 55 -50.5 152v315zM469 582h-97l-59 73h-17l-58 -73h-96l112 145l104 0z" />
<glyph unicode="&#252;" horiz-adv-x="617" d="M184 509v-296q0 -125 112 -125q30 0 54.5 12q24.5 12 41 32q16.5 20 25.5 47.5q9 27.5 9 59.5v270h113v-509h-110v50h-20q-20 -26 -54.5 -44.5q-34.5 -18.5 -88.5 -18.5q-94 0 -144.5 55q-50.5 55 -50.5 152v315zM348 614v113h104v-113zM158 614v113h105l0 -113z" />
<glyph unicode="&#253;" horiz-adv-x="566" d="M128 -200l105 250l-216 459h120l142 -307h26l129 307h119l-308 -709zM330 582h-102l89 145l126 0z" />
<glyph unicode="&#254;" horiz-adv-x="629" d="M581 254q0 -58 -16 -107q-16 -49 -45 -84.5q-29 -35.5 -71 -55.5q-42 -20 -94 -20q-56 0 -90 18q-34 18 -54 45l-20 0v-250h-113v927h113v-269h20q20 27 54 45q34 18 90 18q52 0 94 -20q42 -20 71 -55.5q29 -35.5 45 -84.5q16 -49 16 -107zt0 0zM468 254q0 37 -8.5 68q-8.5 31 -26 54q-17.5 23 -43.5 36q-26 13 -61 13q-37 0 -63.5 -14q-26.5 -14 -44 -38q-17.5 -24 -25.5 -55q-8 -31 -8 -64q0 -33 8 -64q8 -31 25.5 -55q17.5 -24 44 -38q26.5 -14 63.5 -14q35 0 61 13q26 13 43.5 36q17.5 23 26 54t8.5 68z" />
<glyph unicode="&#255;" horiz-adv-x="566" d="M128 -200l105 250l-216 459h120l142 -307h26l129 307h119l-308 -709zM330 614v113h104v-113zM140 614v113h105l0 -113z" />
<glyph unicode="&#256;" horiz-adv-x="706" d="M496 205h-291l-65 -205h-122l237 714h194l238 -714h-125zM239 312h222l-91 285h-41zM206 801v75h292l0 -75z" />
<glyph unicode="&#257;" horiz-adv-x="572" d="M395 49h-20q-23 -29 -60.5 -45.5q-37.5 -16.5 -90.5 -16.5q-44 0 -78.5 13.5q-34.5 13.5 -58 37q-23.5 23.5 -35.5 53.5q-12 30 -12 63q0 30 11 60.5q11 30.5 35 55q24 24.5 62.5 40q38.5 15.5 93.5 15.5h150v15q0 42 -25.5 67.5q-25.5 25.5 -81.5 25.5q-49 0 -74 -18q-25 -18 -28 -47l-112 0q2 36 18 64.5q16 28.5 44 48.5q28 20 65.5 30.5q37.5 10.5 82.5 10.5q49 0 90 -11q41 -11 69.5 -33.5q28.5 -22.5 44.5 -57.5q16 -35 16 -82v-338h-106zM257 79q28 0 53 9.5q25 9.5 43 26.5q18 17 28.5 39.5q10.5 22.5 10.5 48.5v38h-130q-54 0 -81 -21.5q-27 -21.5 -27 -60.5q0 -38 27 -59q27 -21 76 -21zt0 0zM146 628v77h292l0 -77z" />
<glyph unicode="&#259;" horiz-adv-x="572" d="M395 49h-20q-23 -29 -60.5 -45.5q-37.5 -16.5 -90.5 -16.5q-44 0 -78.5 13.5q-34.5 13.5 -58 37q-23.5 23.5 -35.5 53.5q-12 30 -12 63q0 30 11 60.5q11 30.5 35 55q24 24.5 62.5 40q38.5 15.5 93.5 15.5h150v15q0 42 -25.5 67.5q-25.5 25.5 -81.5 25.5q-49 0 -74 -18q-25 -18 -28 -47l-112 0q2 36 18 64.5q16 28.5 44 48.5q28 20 65.5 30.5q37.5 10.5 82.5 10.5q49 0 90 -11q41 -11 69.5 -33.5q28.5 -22.5 44.5 -57.5q16 -35 16 -82v-338h-106zM257 79q28 0 53 9.5q25 9.5 43 26.5q18 17 28.5 39.5q10.5 22.5 10.5 48.5v38h-130q-54 0 -81 -21.5q-27 -21.5 -27 -60.5q0 -38 27 -59q27 -21 76 -21zt0 0zM432 727q0 -68 -37 -106.5q-37 -38.5 -106 -38.5q-69 0 -106.5 38.5q-37.5 38.5 -37.5 106.5l79 0q0 -35 15.5 -53.5q15.5 -18.5 49.5 -18.5q33 0 49 18.5q16 18.5 16 53.5z" />
<glyph unicode="&#260;" horiz-adv-x="706" d="M497 205h-293l-65 -205h-120l237 714h192l238 -714q-28 -14 -46.5 -35q-18.5 -21 -18.5 -46q0 -22 17.5 -35q17.5 -13 49.5 -13l0 -71h-26q-66 0 -97.5 26q-31.5 26 -31.5 70q0 30 20.5 59q20.5 29 55.5 45l-46 0zM238 312h224l-91 285l-43 0z" />
<glyph unicode="&#261;" horiz-adv-x="572" d="M395 49h-20q-23 -29 -60.5 -45.5q-37.5 -16.5 -90.5 -16.5q-44 0 -78.5 13.5q-34.5 13.5 -58 37q-23.5 23.5 -35.5 53.5q-12 30 -12 63q0 30 11 60.5q11 30.5 35 55q24 24.5 62.5 40q38.5 15.5 93.5 15.5h150v15q0 42 -25.5 67.5q-25.5 25.5 -81.5 25.5q-49 0 -74 -18q-25 -18 -28 -47l-112 0q2 36 18 64.5q16 28.5 44 48.5q28 20 65.5 30.5q37.5 10.5 82.5 10.5q49 0 90 -11q41 -11 69.5 -33.5q28.5 -22.5 44.5 -57.5q16 -35 16 -82v-338q-28 -14 -46.5 -35q-18.5 -21 -18.5 -46q0 -22 17.5 -35q17.5 -13 49.5 -13l0 -71h-26q-66 0 -97.5 26q-31.5 26 -31.5 70q0 30 20.5 59q20.5 29 55.5 45l-29 0zM257 79q28 0 53 10q25 10 43 27q18 17 28.5 40q10.5 23 10.5 50v39h-130q-54 0 -81 -22q-27 -22 -27 -62q0 -39 27 -60.5t76 -21.5z" />
<glyph unicode="&#262;" horiz-adv-x="728" d="M679 216q-9 -51 -33 -93q-24 -42 -61 -72q-37 -30 -86.5 -47q-49.5 -17 -110.5 -17q-81 0 -143.5 27.5q-62.5 27.5 -105 77q-42.5 49.5 -65 117q-22.5 67.5 -22.5 148.5q0 81 22.5 148.5q22.5 67.5 65.5 117q43 49.5 105.5 77q62.5 27.5 143.5 27.5q57 0 104.5 -15q47.5 -15 83.5 -43q36 -28 60 -66.5q24 -38.5 34 -86.5l-126 0q-17 51 -55 76.5q-38 25.5 -101 25.5q-55 0 -95.5 -21q-40.5 -21 -67 -56.5q-26.5 -35.5 -39.5 -83q-13 -47.5 -13 -100.5q0 -53 13 -100.5q13 -47.5 39 -83q26 -35.5 66.5 -56.5q40.5 -21 95.5 -21q66 0 108.5 31.5q42.5 31.5 56.5 88.5zM434 767h-105l88 129l130 0z" />
<glyph unicode="&#263;" horiz-adv-x="568" d="M524 163q-6 -39 -24.5 -71.5q-18.5 -32.5 -47.5 -56q-29 -23.5 -67.5 -36q-38.5 -12.5 -84.5 -12.5q-59 0 -106 20q-47 20 -79.5 55.5q-32.5 35.5 -49.5 84.5q-17 49 -17 108q0 58 17 107.5q17 49.5 49.5 84.5q32.5 35 79.5 55q47 20 106 20q94 0 151.5 -46.5q57.5 -46.5 68.5 -121.5l-112 0q-11 33 -36.5 52.5q-25.5 19.5 -70.5 19.5q-38 0 -64.5 -14q-26.5 -14 -43.5 -37q-17 -23 -24.5 -54q-7.5 -31 -7.5 -65q0 -35 8 -66.5q8 -31.5 24.5 -55q16.5 -23.5 43 -37.5q26.5 -14 64.5 -14q48 0 75.5 21q27.5 21 35.5 59zM333 582h-102l89 145l126 0z" />
<glyph unicode="&#268;" horiz-adv-x="728" d="M679 216q-9 -51 -33 -93q-24 -42 -61 -72q-37 -30 -86.5 -47q-49.5 -17 -110.5 -17q-81 0 -143.5 27.5q-62.5 27.5 -105 77q-42.5 49.5 -65 117q-22.5 67.5 -22.5 148.5q0 81 22.5 148.5q22.5 67.5 65.5 117q43 49.5 105.5 77q62.5 27.5 143.5 27.5q57 0 104.5 -15q47.5 -15 83.5 -43q36 -28 60 -66.5q24 -38.5 34 -86.5l-126 0q-17 51 -55 76.5q-38 25.5 -101 25.5q-55 0 -95.5 -21q-40.5 -21 -67 -56.5q-26.5 -35.5 -39.5 -83q-13 -47.5 -13 -100.5q0 -53 13 -100.5q13 -47.5 39 -83q26 -35.5 66.5 -56.5q40.5 -21 95.5 -21q66 0 108.5 31.5q42.5 31.5 56.5 88.5zM223 896h100l54 -60h20l55 60h98l-111 -129l-105 0z" />
<glyph unicode="&#269;" horiz-adv-x="568" d="M524 163q-6 -39 -24.5 -71.5q-18.5 -32.5 -47.5 -56q-29 -23.5 -67.5 -36q-38.5 -12.5 -84.5 -12.5q-59 0 -106 20q-47 20 -79.5 55.5q-32.5 35.5 -49.5 84.5q-17 49 -17 108q0 58 17 107.5q17 49.5 49.5 84.5q32.5 35 79.5 55q47 20 106 20q94 0 151.5 -46.5q57.5 -46.5 68.5 -121.5l-112 0q-11 33 -36.5 52.5q-25.5 19.5 -70.5 19.5q-38 0 -64.5 -14q-26.5 -14 -43.5 -37q-17 -23 -24.5 -54q-7.5 -31 -7.5 -65q0 -35 8 -66.5q8 -31.5 24.5 -55q16.5 -23.5 43 -37.5q26.5 -14 64.5 -14q48 0 75.5 21q27.5 21 35.5 59zM136 727h97l58 -73h18l58 73h96l-112 -145l-104 0z" />
<glyph unicode="&#270;" horiz-adv-x="753" d="M370 714q82 0 144 -25.5q62 -25.5 103 -72.5q41 -47 62 -112.5q21 -65.5 21 -146.5q0 -80 -21 -146q-21 -66 -62 -113q-41 -47 -103 -72.5q-62 -25.5 -144 -25.5h-283v714zM360 109q60 0 101.5 19.5q41.5 19.5 67.5 53.5q26 34 37.5 79q11.5 45 11.5 96q0 51 -11.5 96.5q-11.5 45.5 -37.5 79q-26 33.5 -67.5 53q-41.5 19.5 -101.5 19.5h-153v-496zM181 896h100l54 -60h20l55 60h98l-111 -129l-105 0z" />
<glyph unicode="&#271;" horiz-adv-x="738" d="M274 522q56 0 90 -18q34 -18 54 -45l20 0v268h113v-727h-110v50h-20q-21 -26 -55.5 -44.5q-34.5 -18.5 -91.5 -18.5q-53 0 -94.5 20q-41.5 20 -71 56q-29.5 36 -45 85q-15.5 49 -15.5 107q0 58 16 107q16 49 45 84.5q29 35.5 71 55.5q42 20 94 20zt0 0zM300 83q37 0 63.5 14q26.5 14 44 38q17.5 24 25.5 55q8 31 8 65q0 33 -8 64q-8 31 -25.5 55q-17.5 24 -44 38q-26.5 14 -63.5 14q-35 0 -61 -13q-26 -13 -43.5 -36q-17.5 -23 -26 -54q-8.5 -31 -8.5 -68q0 -37 8.5 -68.5q8.5 -31.5 26 -54.5q17.5 -23 43.5 -36q26 -13 61 -13zt0 0zM638 616v111h131v-128l-64 -82h-73l64 82l0 17z" />
<glyph unicode="&#272;" horiz-adv-x="765" d="M20 412h80v302h283q82 0 144 -25.5q62 -25.5 103 -72.5q41 -47 62 -112.5q21 -65.5 21 -146.5q0 -80 -21 -146q-21 -66 -62 -113q-41 -47 -103 -72.5q-62 -25.5 -144 -25.5h-283v318h-80zM373 109q60 0 101.5 19.5q41.5 19.5 67.5 53.5q26 34 37.5 79q11.5 45 11.5 96q0 51 -11.5 96.5q-11.5 45.5 -37.5 79q-26 33.5 -67.5 53q-41.5 19.5 -101.5 19.5h-153v-193h205v-94h-205l0 -209z" />
<glyph unicode="&#273;" horiz-adv-x="642" d="M274 522q56 0 90 -18q34 -18 54 -45l20 0v116h-160v69h160v83h113v-83h77v-69h-77v-575h-110v50h-20q-21 -26 -55.5 -44.5q-34.5 -18.5 -91.5 -18.5q-53 0 -94.5 20q-41.5 20 -71 56q-29.5 36 -45 85q-15.5 49 -15.5 107q0 58 16 107q16 49 45 84.5q29 35.5 71 55.5q42 20 94 20zt0 0zM300 83q37 0 63.5 14q26.5 14 44 38q17.5 24 25.5 55q8 31 8 65q0 33 -8 64q-8 31 -25.5 55q-17.5 24 -44 38q-26.5 14 -63.5 14q-35 0 -61 -13q-26 -13 -43.5 -36q-17.5 -23 -26 -54q-8.5 -31 -8.5 -68q0 -37 8.5 -68.5q8.5 -31.5 26 -54.5q17.5 -23 43.5 -36t61 -13z" />
<glyph unicode="&#274;" horiz-adv-x="659" d="M613 109v-109h-526v714h513v-109h-393v-184h311v-107h-311v-205zM193 801v75h292l0 -75z" />
<glyph unicode="&#275;" horiz-adv-x="583" d="M536 245h-376q2 -78 38 -120q36 -42 105 -42q46 0 73 17q27 17 38 48l115 0q-14 -71 -71 -116q-57 -45 -156 -45q-60 0 -107 20q-47 20 -80 56q-33 36 -50 85.5q-17 49.5 -17 109.5q0 60 17.5 108.5q17.5 48.5 49.5 83q32 34.5 78.5 53.5q46.5 19 105.5 19q57 0 101 -19q44 -19 74 -51q30 -32 45.5 -76q15.5 -44 16.5 -93zM298 432q-60 0 -91.5 -29.5q-31.5 -29.5 -41.5 -73.5l255 0q-5 43 -35.5 73q-30.5 30 -86.5 30zt0 0zM149 628v77h292l0 -77z" />
<glyph unicode="&#278;" horiz-adv-x="659" d="M613 109v-109h-526v714h513v-109h-393v-184h311v-107h-311v-205zM289 790v106h120l0 -106z" />
<glyph unicode="&#279;" horiz-adv-x="583" d="M536 245h-376q2 -78 38 -120q36 -42 105 -42q46 0 73 17q27 17 38 48l115 0q-14 -71 -71 -116q-57 -45 -156 -45q-60 0 -107 20q-47 20 -80 56q-33 36 -50 85.5q-17 49.5 -17 109.5q0 60 17.5 108.5q17.5 48.5 49.5 83q32 34.5 78.5 53.5q46.5 19 105.5 19q57 0 101 -19q44 -19 74 -51q30 -32 45.5 -76q15.5 -44 16.5 -93zM298 432q-60 0 -91.5 -29.5q-31.5 -29.5 -41.5 -73.5l255 0q-5 43 -35.5 73q-30.5 30 -86.5 30zt0 0zM240 627v113h120l0 -113z" />
<glyph unicode="&#280;" horiz-adv-x="659" d="M613 109v-109q-28 -14 -46.5 -35q-18.5 -21 -18.5 -46q0 -22 17.5 -35q17.5 -13 49.5 -13l0 -71h-26q-66 0 -97.5 26q-31.5 26 -31.5 70q0 30 20.5 59q20.5 29 55.5 45l-449 0v714h513v-109h-393v-184h311v-107h-311l0 -205z" />
<glyph unicode="&#281;" horiz-adv-x="583" d="M536 245h-376q2 -78 38 -120q36 -42 105 -42q46 0 73 17q27 17 38 48l115 0q-11 -51 -37 -82.5q-26 -31.5 -68 -53.5q-35 -18 -53 -38.5q-18 -20.5 -18 -51.5q0 -24 17.5 -37.5q17.5 -13.5 49.5 -13.5l0 -71h-26q-66 0 -97.5 26q-31.5 26 -31.5 70q0 27 15 50.5q15 23.5 40 40.5l-18 0q-60 0 -107 20q-47 20 -80 56q-33 36 -50 85.5q-17 49.5 -17 109.5q0 60 17.5 108.5q17.5 48.5 49.5 83q32 34.5 78.5 53.5q46.5 19 105.5 19q57 0 101 -19q44 -19 74 -51q30 -32 45.5 -76q15.5 -44 16.5 -93zM298 432q-60 0 -91.5 -29.5q-31.5 -29.5 -41.5 -73.5l255 0q-5 43 -35.5 73t-86.5 30z" />
<glyph unicode="&#282;" horiz-adv-x="659" d="M613 109v-109h-526v714h513v-109h-393v-184h311v-107h-311v-205zM187 896h100l54 -60h20l55 60h98l-111 -129l-105 0z" />
<glyph unicode="&#283;" horiz-adv-x="583" d="M536 245h-376q2 -78 38 -120q36 -42 105 -42q46 0 73 17q27 17 38 48l115 0q-14 -71 -71 -116q-57 -45 -156 -45q-60 0 -107 20q-47 20 -80 56q-33 36 -50 85.5q-17 49.5 -17 109.5q0 60 17.5 108.5q17.5 48.5 49.5 83q32 34.5 78.5 53.5q46.5 19 105.5 19q57 0 101 -19q44 -19 74 -51q30 -32 45.5 -76q15.5 -44 16.5 -93zM298 432q-60 0 -91.5 -29.5q-31.5 -29.5 -41.5 -73.5l255 0q-5 43 -35.5 73q-30.5 30 -86.5 30zt0 0zM138 727h97l58 -73h18l58 73h96l-112 -145l-104 0z" />
<glyph unicode="&#290;" horiz-adv-x="757" d="M697 388v-78q0 -62 -17 -120q-17 -58 -53.5 -103q-36.5 -45 -95 -72.5q-58.5 -27.5 -141.5 -27.5q-83 0 -146 28q-63 28 -105.5 77.5q-42.5 49.5 -64.5 117q-22 67.5 -22 147.5q0 80 22 147.5q22 67.5 65 117q43 49.5 106.5 77.5q63.5 28 145.5 28q118 0 191.5 -56.5q73.5 -56.5 93.5 -151.5l-125 0q-14 47 -53 73q-39 26 -107 26q-56 0 -96.5 -20.5q-40.5 -20.5 -67.5 -55.5q-27 -35 -40 -83q-13 -48 -13 -102q0 -54 13 -101.5q13 -47.5 39.5 -83.5q26.5 -36 67.5 -56.5q41 -20.5 97 -20.5q46 0 80.5 13.5q34.5 13.5 57.5 38.5q23 25 34.5 60.5q11.5 35.5 12.5 78.5l-195 0v102zM322 -226l62 64v17h-52v89h125v-106l-61 -64z" />
<glyph unicode="&#291;" horiz-adv-x="630" d="M552 509v-484q0 -54 -17.5 -97.5q-17.5 -43.5 -49.5 -73.5q-32 -30 -77.5 -46.5q-45.5 -16.5 -101.5 -16.5q-101 0 -165 42q-64 42 -73 122l112 0q8 -38 40 -54.5q32 -16.5 84 -16.5q72 0 103.5 41q31.5 41 31.5 108v35h-20q-18 -26 -52 -44.5q-34 -18.5 -89 -18.5q-53 0 -95 19q-42 19 -72 53.5q-30 34.5 -46 82q-16 47.5 -16 103.5q0 57 16 104.5q16 47.5 46 82q30 34.5 72.5 53.5q42.5 19 94.5 19q57 0 92 -19.5q35 -19.5 52 -43.5l20 0v50zM301 101q36 0 62.5 13q26.5 13 44 35.5q17.5 22.5 26.5 51.5q9 29 9 62q0 33 -9 62.5q-9 29.5 -26.5 52q-17.5 22.5 -44 35.5q-26.5 13 -62.5 13q-66 0 -102.5 -45.5q-36.5 -45.5 -36.5 -117.5q0 -36 9.5 -65.5q9.5 -29.5 27 -51q17.5 -21.5 43.5 -33.5q26 -12 59 -12zt0 0zM377 746l-62 -64v-17h52v-89h-125v106l61 64z" />
<glyph unicode="&#296;" horiz-adv-x="305" d="M212 714v-714h-120v714zM225 838q21 0 28.5 18q7.5 18 7.5 44l61 0q0 -65 -24.5 -101q-24.5 -36 -73.5 -36q-27 0 -46 11.5q-19 11.5 -38 23.5q-15 10 -28 18.5q-13 8.5 -30 8.5q-21 0 -28.5 -18q-7.5 -18 -7.5 -44l-61 0q0 65 24.5 101q24.5 36 73.5 36q28 0 49.5 -12q21.5 -12 39.5 -25q14 -10 26.5 -17.5t26.5 -7.5z" />
<glyph unicode="&#297;" horiz-adv-x="272" d="M192 0h-113v509h113zM208 661q21 0 28.5 18q7.5 18 7.5 44l61 0q0 -65 -24.5 -101q-24.5 -36 -73.5 -36q-27 0 -46 11.5q-19 11.5 -38 23.5q-15 10 -28 18.5q-13 8.5 -30 8.5q-21 0 -28.5 -18q-7.5 -18 -7.5 -44l-61 0q0 65 24.5 101q24.5 36 73.5 36q28 0 49.5 -12q21.5 -12 39.5 -25q14 -10 26.5 -17.5t26.5 -7.5z" />
<glyph unicode="&#298;" horiz-adv-x="305" d="M212 714v-714h-120v714zM6 801v75h292l0 -75z" />
<glyph unicode="&#299;" horiz-adv-x="272" d="M192 0h-113v509h113zM-11 628v77h292l0 -77z" />
<glyph unicode="&#302;" horiz-adv-x="305" d="M212 714v-714q-28 -14 -46.5 -35q-18.5 -21 -18.5 -46q0 -22 17.5 -35q17.5 -13 49.5 -13l0 -71h-26q-66 0 -97.5 26q-31.5 26 -31.5 70q0 30 20.5 59q20.5 29 55.5 45l-43 0l0 714z" />
<glyph unicode="&#303;" horiz-adv-x="272" d="M192 0q-28 -14 -46.5 -35q-18.5 -21 -18.5 -46q0 -22 17.5 -35q17.5 -13 49.5 -13l0 -71h-26q-66 0 -97.5 26q-31.5 26 -31.5 70q0 30 20.5 59q20.5 29 55.5 45l-36 0v509h113zM76 614v113h120l0 -113z" />
<glyph unicode="&#305;" horiz-adv-x="272" d="M192 0h-113v509l113 0z" />
<glyph unicode="&#310;" horiz-adv-x="736" d="M87 714h120v-324l327 324h145l-217 -225l246 -489h-129l-199 385h-20l-153 -150v-235h-120zM320 -226l62 64v17h-52v89h125v-106l-61 -64z" />
<glyph unicode="&#311;" horiz-adv-x="576" d="M442 0l-131 256h-20l-100 -111v-145h-113v727h113v-443l212 225h132l-148 -161l177 -348zM247 -226l62 64v17h-52v89h125v-106l-61 -64z" />
<glyph unicode="&#312;" horiz-adv-x="576" d="M444 0l-133 257h-20l-100 -111v-146h-113v509h113v-227l214 227h129l-148 -160l178 -349z" />
<glyph unicode="&#313;" horiz-adv-x="637" d="M596 113v-113h-509v714h120v-601zM199 767h-105l88 129l130 0z" />
<glyph unicode="&#314;" horiz-adv-x="269" d="M191 727v-727h-113v727zM187 767h-105l88 129l130 0z" />
<glyph unicode="&#315;" horiz-adv-x="637" d="M596 113v-113h-509v714h120v-601zM272 -226l62 64v17h-52v89h125v-106l-61 -64z" />
<glyph unicode="&#316;" horiz-adv-x="269" d="M191 727v-727h-113v727zM66 -226l62 64v17h-52v89h125v-106l-61 -64z" />
<glyph unicode="&#317;" horiz-adv-x="637" d="M596 113v-113h-509v714h120v-601zM374 603v111h131v-128l-64 -82h-73l64 82l0 17z" />
<glyph unicode="&#318;" horiz-adv-x="377" d="M191 727v-727h-113v727zM277 616v111h131v-128l-64 -82h-73l64 82l0 17z" />
<glyph unicode="&#321;" horiz-adv-x="659" d="M618 113v-113h-509v287l-89 -36v102l89 35v326h120v-278l175 71v-101l-175 -71l0 -222z" />
<glyph unicode="&#322;" horiz-adv-x="355" d="M234 727v-281l98 44v-103l-98 -44v-343h-113v292l-98 -44v103l98 44l0 332z" />
<glyph unicode="&#323;" horiz-adv-x="774" d="M688 714v-714h-167l-300 542h-20v-542h-114v714h167l300 -542h20v542zM431 767h-105l88 129l130 0z" />
<glyph unicode="&#324;" horiz-adv-x="620" d="M436 0v296q0 62 -29 93.5q-29 31.5 -85 31.5q-30 0 -54.5 -12q-24.5 -12 -41.5 -32q-17 -20 -26 -48q-9 -28 -9 -59v-270h-113v509h110v-50h20q20 26 55 44.5q35 18.5 89 18.5q94 0 145.5 -55q51.5 -55 51.5 -152v-315zM360 582h-102l89 145l126 0z" />
<glyph unicode="&#325;" horiz-adv-x="774" d="M688 714v-714h-167l-300 542h-20v-542h-114v714h167l300 -542h20v542zM315 -226l62 64v17h-52v89h125v-106l-61 -64z" />
<glyph unicode="&#326;" horiz-adv-x="620" d="M436 0v296q0 62 -29 93.5q-29 31.5 -85 31.5q-30 0 -54.5 -12q-24.5 -12 -41.5 -32q-17 -20 -26 -48q-9 -28 -9 -59v-270h-113v509h110v-50h20q20 26 55 44.5q35 18.5 89 18.5q94 0 145.5 -55q51.5 -55 51.5 -152v-315zM244 -226l62 64v17h-52v89h125v-106l-61 -64z" />
<glyph unicode="&#327;" horiz-adv-x="774" d="M688 714v-714h-167l-300 542h-20v-542h-114v714h167l300 -542h20v542zM224 896h100l54 -60h20l55 60h98l-111 -129l-105 0z" />
<glyph unicode="&#328;" horiz-adv-x="620" d="M436 0v296q0 62 -29 93.5q-29 31.5 -85 31.5q-30 0 -54.5 -12q-24.5 -12 -41.5 -32q-17 -20 -26 -48q-9 -28 -9 -59v-270h-113v509h110v-50h20q20 26 55 44.5q35 18.5 89 18.5q94 0 145.5 -55q51.5 -55 51.5 -152v-315zM152 727h97l58 -73h18l58 73h96l-112 -145l-104 0z" />
<glyph unicode="&#330;" horiz-adv-x="774" d="M688 714v-694q0 -108 -60.5 -164q-60.5 -56 -163.5 -56h-48v101h44q53 0 82 22q29 22 34 77l-53 0l-302 540h-20v-540h-114v714h165l302 -540h20l0 540z" />
<glyph unicode="&#331;" horiz-adv-x="620" d="M436 296q0 62 -29 93.5q-29 31.5 -85 31.5q-30 0 -54.5 -12q-24.5 -12 -41.5 -32q-17 -20 -26 -48q-9 -28 -9 -59v-270h-113v509h110v-50h20q20 26 55 44.5q35 18.5 89 18.5q94 0 145.5 -55q51.5 -55 51.5 -152v-336q0 -46 -13 -80q-13 -34 -37 -56q-24 -22 -57 -32.5q-33 -10.5 -73 -10.5h-64v96h46q47 0 66 24q19 24 19 66l0 310z" />
<glyph unicode="&#332;" horiz-adv-x="786" d="M393 727q83 0 146.5 -28.5q63.5 -28.5 106.5 -78.5q43 -50 65 -117.5q22 -67.5 22 -145.5q0 -78 -22 -145.5q-22 -67.5 -65 -117.5q-43 -50 -106.5 -78.5q-63.5 -28.5 -146.5 -28.5q-83 0 -147 28.5q-64 28.5 -107 78.5q-43 50 -65 117.5q-22 67.5 -22 145.5q0 78 22 145.5q22 67.5 65 117.5q43 50 107 78.5q64 28.5 147 28.5zt0 0zM393 96q57 0 98 21q41 21 67.5 56.5q26.5 35.5 39.5 83q13 47.5 13 100.5q0 53 -13 100.5q-13 47.5 -39.5 83q-26.5 35.5 -67.5 56.5q-41 21 -98 21q-57 0 -98.5 -21q-41.5 -21 -68 -56.5q-26.5 -35.5 -39.5 -83q-13 -47.5 -13 -100.5q0 -53 13 -100.5q13 -47.5 39.5 -83q26.5 -35.5 68 -56.5q41.5 -21 98.5 -21zt0 0zM247 801v75h292l0 -75z" />
<glyph unicode="&#333;" horiz-adv-x="610" d="M305 522q60 0 107.5 -20q47.5 -20 81 -55.5q33.5 -35.5 51 -84.5q17.5 -49 17.5 -107q0 -59 -17.5 -108q-17.5 -49 -51 -84.5q-33.5 -35.5 -81 -55.5q-47.5 -20 -107.5 -20q-60 0 -107.5 20q-47.5 20 -81 55.5q-33.5 35.5 -51 84.5q-17.5 49 -17.5 108q0 58 17.5 107q17.5 49 51 84.5q33.5 35.5 81 55.5q47.5 20 107.5 20zt0 0zM305 83q37 0 64 14q27 14 45 38q18 24 26.5 55q8.5 31 8.5 65q0 33 -8.5 64q-8.5 31 -26.5 55q-18 24 -45 38q-27 14 -64 14q-37 0 -64 -14q-27 -14 -45 -38q-18 -24 -26.5 -55q-8.5 -31 -8.5 -64q0 -34 8.5 -65q8.5 -31 26.5 -55q18 -24 45 -38q27 -14 64 -14zt0 0zM159 628v77h292l0 -77z" />
<glyph unicode="&#336;" horiz-adv-x="785" d="M393 727q83 0 146.5 -28.5q63.5 -28.5 106.5 -78.5q43 -50 65 -117.5q22 -67.5 22 -145.5q0 -78 -22 -145.5q-22 -67.5 -65 -117.5q-43 -50 -106.5 -78.5q-63.5 -28.5 -146.5 -28.5q-83 0 -147 28.5q-64 28.5 -107 78.5q-43 50 -65 117.5q-22 67.5 -22 145.5q0 78 22 145.5q22 67.5 65 117.5q43 50 107 78.5q64 28.5 147 28.5zt0 0zM393 96q57 0 98 21q41 21 67.5 56.5q26.5 35.5 39.5 83q13 47.5 13 100.5q0 53 -13 100.5q-13 47.5 -39.5 83q-26.5 35.5 -67.5 56.5q-41 21 -98 21q-57 0 -98.5 -21q-41.5 -21 -68 -56.5q-26.5 -35.5 -39.5 -83q-13 -47.5 -13 -100.5q0 -53 13 -100.5q13 -47.5 39.5 -83q26.5 -35.5 68 -56.5q41.5 -21 98.5 -21zt0 0zM339 767h-92l77 129h115zM510 767h-91l78 129l114 0z" />
<glyph unicode="&#337;" horiz-adv-x="610" d="M305 522q60 0 107.5 -20q47.5 -20 81 -55.5q33.5 -35.5 51 -84.5q17.5 -49 17.5 -107q0 -59 -17.5 -108q-17.5 -49 -51 -84.5q-33.5 -35.5 -81 -55.5q-47.5 -20 -107.5 -20q-60 0 -107.5 20q-47.5 20 -81 55.5q-33.5 35.5 -51 84.5q-17.5 49 -17.5 108q0 58 17.5 107q17.5 49 51 84.5q33.5 35.5 81 55.5q47.5 20 107.5 20zt0 0zM305 83q37 0 64 14q27 14 45 38q18 24 26.5 55q8.5 31 8.5 65q0 33 -8.5 64q-8.5 31 -26.5 55q-18 24 -45 38q-27 14 -64 14q-37 0 -64 -14q-27 -14 -45 -38q-18 -24 -26.5 -55q-8.5 -31 -8.5 -64q0 -34 8.5 -65q8.5 -31 26.5 -55q18 -24 45 -38q27 -14 64 -14zt0 0zM249 582h-91l75 145h113zM421 582h-90l75 145l114 0z" />
<glyph unicode="&#338;" horiz-adv-x="1088" d="M1042 109v-109h-475v46h-20q-32 -29 -77.5 -44q-45.5 -15 -94.5 -15q-75 0 -135 27q-60 27 -101.5 76q-41.5 49 -64 117q-22.5 68 -22.5 150q0 82 22.5 150q22.5 68 64 117q41.5 49 101.5 76q60 27 135 27q49 0 94.5 -15q45.5 -15 77.5 -44l20 0v46h462v-109h-342v-184h260v-106h-260v-206zM392 96q69 0 112 28q43 28 63 68l0 330q-20 40 -63 68q-43 28 -112 28q-56 0 -97 -21q-41 -21 -68 -56.5q-27 -35.5 -40 -83q-13 -47.5 -13 -100.5q0 -53 13 -100.5q13 -47.5 40 -83q27 -35.5 68 -56.5t97 -21z" />
<glyph unicode="&#339;" horiz-adv-x="972" d="M555 245q2 -74 36 -118q34 -44 102 -44q45 0 72 16.5q27 16.5 39 48.5l114 0q-14 -71 -70 -116q-56 -45 -155 -45q-60 0 -107.5 24q-47.5 24 -76.5 64l-20 0q-30 -41 -78 -64.5q-48 -23.5 -110 -23.5q-59 0 -106 20q-47 20 -79.5 56q-32.5 36 -50 85q-17.5 49 -17.5 107q0 57 17.5 106q17.5 49 50 85q32.5 36 79.5 56q47 20 106 20q61 0 109 -23.5q48 -23.5 79 -63.5l20 0q28 39 76 63q48 24 111 24q54 0 96.5 -19q42.5 -19 72 -51q29.5 -32 45 -76q15.5 -44 15.5 -93v-38zM302 83q36 0 63 14q27 14 44 38q17 24 25.5 55q8.5 31 8.5 65q0 33 -8.5 64q-8.5 31 -25.5 55q-17 24 -44 38q-27 14 -63 14q-36 0 -63 -14q-27 -14 -44 -38q-17 -24 -25.5 -55q-8.5 -31 -8.5 -64q0 -34 8.5 -65q8.5 -31 25.5 -55q17 -24 44 -38q27 -14 63 -14zt0 0zM691 432q-58 0 -89.5 -29q-31.5 -29 -41.5 -74l248 0q-4 44 -33.5 73.5t-83.5 29.5z" />
<glyph unicode="&#340;" horiz-adv-x="718" d="M413 714q116 0 179.5 -57q63.5 -57 63.5 -158q0 -66 -27.5 -113.5q-27.5 -47.5 -79.5 -73.5l110 -312h-122l-101 286q-16 -2 -31.5 -2q-15.5 0 -31.5 0h-166v-284h-120v714zM207 388h189q76 0 107 29.5q31 29.5 31 80.5q0 53 -31 81.5q-31 28.5 -107 28.5h-189zM378 767h-105l88 129l130 0z" />
<glyph unicode="&#341;" horiz-adv-x="424" d="M391 404h-43q-78 0 -117.5 -43q-39.5 -43 -39.5 -123v-238h-113v509h110v-60h20q16 21 49 40.5q33 19.5 92 19.5h42zM250 582h-102l89 145l126 0z" />
<glyph unicode="&#342;" horiz-adv-x="718" d="M413 714q116 0 179.5 -57q63.5 -57 63.5 -158q0 -66 -27.5 -113.5q-27.5 -47.5 -79.5 -73.5l110 -312h-122l-101 286q-16 -2 -31.5 -2q-15.5 0 -31.5 0h-166v-284h-120v714zM207 388h189q76 0 107 29.5q31 29.5 31 80.5q0 53 -31 81.5q-31 28.5 -107 28.5h-189zM291 -226l62 64v17h-52v89h125v-106l-61 -64z" />
<glyph unicode="&#343;" horiz-adv-x="424" d="M391 404h-43q-78 0 -117.5 -43q-39.5 -43 -39.5 -123v-238h-113v509h110v-60h20q16 21 49 40.5q33 19.5 92 19.5h42zM65 -226l62 64v17h-52v89h125v-106l-61 -64z" />
<glyph unicode="&#344;" horiz-adv-x="718" d="M413 714q116 0 179.5 -57q63.5 -57 63.5 -158q0 -66 -27.5 -113.5q-27.5 -47.5 -79.5 -73.5l110 -312h-122l-101 286q-16 -2 -31.5 -2q-15.5 0 -31.5 0h-166v-284h-120v714zM207 388h189q76 0 107 29.5q31 29.5 31 80.5q0 53 -31 81.5q-31 28.5 -107 28.5h-189zM191 896h100l54 -60h20l55 60h98l-111 -129l-105 0z" />
<glyph unicode="&#345;" horiz-adv-x="424" d="M391 404h-43q-78 0 -117.5 -43q-39.5 -43 -39.5 -123v-238h-113v509h110v-60h20q16 21 49 40.5q33 19.5 92 19.5h42zM70 727h97l58 -73h18l58 73h96l-112 -145l-104 0z" />
<glyph unicode="&#346;" horiz-adv-x="677" d="M483 526q-11 48 -47 72q-36 24 -103 24q-28 0 -53 -6q-25 -6 -43.5 -18q-18.5 -12 -29.5 -30q-11 -18 -11 -43q0 -22 8.5 -37q8.5 -15 23 -25q14.5 -10 33 -16q18.5 -6 39.5 -10q8 -2 26.5 -5.5q18.5 -3.5 39 -7q20.5 -3.5 39.5 -7.5q19 -4 29 -6q41 -9 75.5 -24.5q34.5 -15.5 59 -40.5q24.5 -25 38.5 -59.5q14 -34.5 14 -80.5q0 -44 -17 -83.5q-17 -39.5 -52 -69.5q-35 -30 -87.5 -48q-52.5 -18 -122.5 -18q-65 0 -117.5 16q-52.5 16 -90.5 45.5q-38 29.5 -60.5 70q-22.5 40.5 -27.5 90.5l122 0q6 -33 22 -55.5q16 -22.5 40 -36q24 -13.5 54 -19.5q30 -6 63 -6q67 0 110 28q43 28 43 81q0 25 -8 43q-8 18 -22 30q-14 12 -34 20q-20 8 -44 13q-9 2 -28.5 6q-19.5 4 -41 8q-21.5 4 -41 7.5q-19.5 3.5 -28.5 5.5q-83 16 -130.5 62q-47.5 46 -47.5 126q0 43 17 80q17 37 50 65q33 28 81.5 44q48.5 16 111.5 16q57 0 104 -14.5q47 -14.5 82 -40.5q35 -26 56.5 -63q21.5 -37 27.5 -83zM369 767h-105l88 129l130 0z" />
<glyph unicode="&#347;" horiz-adv-x="531" d="M329 308q37 -6 66.5 -18q29.5 -12 50.5 -31q21 -19 32.5 -46q11.5 -27 11.5 -64q0 -32 -14 -61q-14 -29 -41.5 -51.5q-27.5 -22.5 -68.5 -36q-41 -13.5 -95 -13.5q-111 0 -168 45.5q-57 45.5 -65 121.5l113 0q7 -39 39.5 -56q32.5 -17 78.5 -17q46 0 77 15.5q31 15.5 31 50.5q0 29 -20.5 43q-20.5 14 -65.5 23q-3 1 -17 3.5q-14 2.5 -30.5 5.5q-16.5 3 -31 5.5q-14.5 2.5 -18.5 3.5q-29 6 -54 16.5q-25 10.5 -43 27q-18 16.5 -28.5 39q-10.5 22.5 -10.5 53.5q0 32 12.5 60q12.5 28 38 49q25.5 21 64.5 33.5q39 12.5 93 12.5q92 0 146.5 -41q54.5 -41 62.5 -108l-113 0q-5 31 -35.5 43q-30.5 12 -65.5 12q-35 0 -62.5 -12.5q-27.5 -12.5 -27.5 -40.5q0 -24 18.5 -35q18.5 -11 54.5 -17zM300 582h-102l89 145l126 0z" />
<glyph unicode="&#352;" horiz-adv-x="677" d="M483 526q-11 48 -47 72q-36 24 -103 24q-28 0 -53 -6q-25 -6 -43.5 -18q-18.5 -12 -29.5 -30q-11 -18 -11 -43q0 -22 8.5 -37q8.5 -15 23 -25q14.5 -10 33 -16q18.5 -6 39.5 -10q8 -2 26.5 -5.5q18.5 -3.5 39 -7q20.5 -3.5 39.5 -7.5q19 -4 29 -6q41 -9 75.5 -24.5q34.5 -15.5 59 -40.5q24.5 -25 38.5 -59.5q14 -34.5 14 -80.5q0 -44 -17 -83.5q-17 -39.5 -52 -69.5q-35 -30 -87.5 -48q-52.5 -18 -122.5 -18q-65 0 -117.5 16q-52.5 16 -90.5 45.5q-38 29.5 -60.5 70q-22.5 40.5 -27.5 90.5l122 0q6 -33 22 -55.5q16 -22.5 40 -36q24 -13.5 54 -19.5q30 -6 63 -6q67 0 110 28q43 28 43 81q0 25 -8 43q-8 18 -22 30q-14 12 -34 20q-20 8 -44 13q-9 2 -28.5 6q-19.5 4 -41 8q-21.5 4 -41 7.5q-19.5 3.5 -28.5 5.5q-83 16 -130.5 62q-47.5 46 -47.5 126q0 43 17 80q17 37 50 65q33 28 81.5 44q48.5 16 111.5 16q57 0 104 -14.5q47 -14.5 82 -40.5q35 -26 56.5 -63q21.5 -37 27.5 -83zM172 896h100l54 -60h20l55 60h98l-111 -129l-105 0z" />
<glyph unicode="&#353;" horiz-adv-x="531" d="M329 308q37 -6 66.5 -18q29.5 -12 50.5 -31q21 -19 32.5 -46q11.5 -27 11.5 -64q0 -32 -14 -61q-14 -29 -41.5 -51.5q-27.5 -22.5 -68.5 -36q-41 -13.5 -95 -13.5q-111 0 -168 45.5q-57 45.5 -65 121.5l113 0q7 -39 39.5 -56q32.5 -17 78.5 -17q46 0 77 15.5q31 15.5 31 50.5q0 29 -20.5 43q-20.5 14 -65.5 23q-3 1 -17 3.5q-14 2.5 -30.5 5.5q-16.5 3 -31 5.5q-14.5 2.5 -18.5 3.5q-29 6 -54 16.5q-25 10.5 -43 27q-18 16.5 -28.5 39q-10.5 22.5 -10.5 53.5q0 32 12.5 60q12.5 28 38 49q25.5 21 64.5 33.5q39 12.5 93 12.5q92 0 146.5 -41q54.5 -41 62.5 -108l-113 0q-5 31 -35.5 43q-30.5 12 -65.5 12q-35 0 -62.5 -12.5q-27.5 -12.5 -27.5 -40.5q0 -24 18.5 -35q18.5 -11 54.5 -17zM106 727h97l58 -73h18l58 73h96l-112 -145l-104 0z" />
<glyph unicode="&#356;" horiz-adv-x="611" d="M594 608h-228v-608h-120v608h-229v106h577zM142 896h100l54 -60h20l55 60h98l-111 -129l-105 0z" />
<glyph unicode="&#357;" horiz-adv-x="458" d="M365 509v-96h-134v-251q0 -31 17 -47.5q17 -16.5 59 -16.5h58v-98h-62q-43 0 -77 6q-34 6 -58 22q-24 16 -37 44.5q-13 28.5 -13 72.5v268h-93v96h93v148h113v-148zM354 657v111h131v-128l-64 -82h-73l64 82l0 17z" />
<glyph unicode="&#358;" horiz-adv-x="611" d="M594 608h-228v-196h152v-94h-152v-318h-120v318h-154v94h154v196h-229v106l577 0z" />
<glyph unicode="&#359;" horiz-adv-x="421" d="M25 329h93v88h-93v92h93v148h113v-148h134v-92h-134v-88h134v-92h-134v-75q0 -31 17 -47.5q17 -16.5 59 -16.5h58v-98h-62q-43 0 -77 6q-34 6 -58 22q-24 16 -37 44.5q-13 28.5 -13 72.5v92l-93 0z" />
<glyph unicode="&#360;" horiz-adv-x="750" d="M665 714v-455q0 -130 -75 -201q-75 -71 -215 -71q-140 0 -215 71q-75 71 -75 201v455h120v-452q0 -75 43.5 -120.5q43.5 -45.5 126.5 -45.5q84 0 127 45.5q43 45.5 43 120.5v452zM447 838q21 0 28.5 18q7.5 18 7.5 44l61 0q0 -65 -24.5 -101q-24.5 -36 -73.5 -36q-27 0 -46 11.5q-19 11.5 -38 23.5q-15 10 -28 18.5q-13 8.5 -30 8.5q-21 0 -28.5 -18q-7.5 -18 -7.5 -44l-61 0q0 65 24.5 101q24.5 36 73.5 36q28 0 49.5 -12q21.5 -12 39.5 -25q14 -10 26.5 -17.5t26.5 -7.5z" />
<glyph unicode="&#361;" horiz-adv-x="617" d="M184 509v-296q0 -125 112 -125q30 0 54.5 12q24.5 12 41 32q16.5 20 25.5 47.5q9 27.5 9 59.5v270h113v-509h-110v50h-20q-20 -26 -54.5 -44.5q-34.5 -18.5 -88.5 -18.5q-94 0 -144.5 55q-50.5 55 -50.5 152v315zM376 661q21 0 28.5 18q7.5 18 7.5 44l61 0q0 -65 -24.5 -101q-24.5 -36 -73.5 -36q-27 0 -46 11.5q-19 11.5 -38 23.5q-15 10 -28 18.5q-13 8.5 -30 8.5q-21 0 -28.5 -18q-7.5 -18 -7.5 -44l-61 0q0 65 24.5 101q24.5 36 73.5 36q28 0 49.5 -12q21.5 -12 39.5 -25q14 -10 26.5 -17.5t26.5 -7.5z" />
<glyph unicode="&#362;" horiz-adv-x="750" d="M665 714v-455q0 -130 -75 -201q-75 -71 -215 -71q-140 0 -215 71q-75 71 -75 201v455h120v-452q0 -75 43.5 -120.5q43.5 -45.5 126.5 -45.5q84 0 127 45.5q43 45.5 43 120.5v452zM229 801v75h292l0 -75z" />
<glyph unicode="&#363;" horiz-adv-x="617" d="M184 509v-296q0 -125 112 -125q30 0 54.5 12q24.5 12 41 32q16.5 20 25.5 47.5q9 27.5 9 59.5v270h113v-509h-110v50h-20q-20 -26 -54.5 -44.5q-34.5 -18.5 -88.5 -18.5q-94 0 -144.5 55q-50.5 55 -50.5 152v315zM158 628v77h292l0 -77z" />
<glyph unicode="&#366;" horiz-adv-x="750" d="M665 714v-455q0 -130 -75 -201q-75 -71 -215 -71q-140 0 -215 71q-75 71 -75 201v455h120v-452q0 -75 43.5 -120.5q43.5 -45.5 126.5 -45.5q84 0 127 45.5q43 45.5 43 120.5v452zM375 974q24 0 44.5 -8.5q20.5 -8.5 35.5 -23.5q15 -15 24 -35.5q9 -20.5 9 -44.5q0 -23 -9 -43q-9 -20 -24 -35q-15 -15 -35.5 -24q-20.5 -9 -44.5 -9q-23 0 -44 9q-21 9 -36.5 24q-15.5 15 -24.5 35q-9 20 -9 43q0 24 9 44.5q9 20.5 24.5 35.5q15.5 15 36.5 23.5q21 8.5 44 8.5zt0 0zM375 810q22 0 37.5 15q15.5 15 15.5 37q0 23 -15.5 38.5q-15.5 15.5 -37.5 15.5q-22 0 -37.5 -15.5q-15.5 -15.5 -15.5 -38.5q0 -22 15.5 -37t37.5 -15z" />
<glyph unicode="&#367;" horiz-adv-x="617" d="M184 509v-296q0 -125 112 -125q30 0 54.5 12q24.5 12 41 32q16.5 20 25.5 47.5q9 27.5 9 59.5v270h113v-509h-110v50h-20q-20 -26 -54.5 -44.5q-34.5 -18.5 -88.5 -18.5q-94 0 -144.5 55q-50.5 55 -50.5 152v315zM304 798q24 0 44.5 -8.5q20.5 -8.5 35.5 -23.5q15 -15 24 -35.5q9 -20.5 9 -44.5q0 -23 -9 -43q-9 -20 -24 -35q-15 -15 -35.5 -24q-20.5 -9 -44.5 -9q-23 0 -44 9q-21 9 -36.5 24q-15.5 15 -24.5 35q-9 20 -9 43q0 24 9 44.5q9 20.5 24.5 35.5q15.5 15 36.5 23.5q21 8.5 44 8.5zt0 0zM304 634q22 0 37.5 15q15.5 15 15.5 37q0 23 -15.5 38.5q-15.5 15.5 -37.5 15.5q-22 0 -37.5 -15.5q-15.5 -15.5 -15.5 -38.5q0 -22 15.5 -37t37.5 -15z" />
<glyph unicode="&#368;" horiz-adv-x="750" d="M665 714v-455q0 -130 -75 -201q-75 -71 -215 -71q-140 0 -215 71q-75 71 -75 201v455h120v-452q0 -75 43.5 -120.5q43.5 -45.5 126.5 -45.5q84 0 127 45.5q43 45.5 43 120.5v452zM325 767h-92l77 129h115zM496 767h-91l78 129l114 0z" />
<glyph unicode="&#369;" horiz-adv-x="617" d="M184 509v-296q0 -125 112 -125q30 0 54.5 12q24.5 12 41 32q16.5 20 25.5 47.5q9 27.5 9 59.5v270h113v-509h-110v50h-20q-20 -26 -54.5 -44.5q-34.5 -18.5 -88.5 -18.5q-94 0 -144.5 55q-50.5 55 -50.5 152v315zM237 582h-91l75 145h113zM409 582h-90l75 145l114 0z" />
<glyph unicode="&#370;" horiz-adv-x="750" d="M375 96q84 0 127 45.5q43 45.5 43 120.5v452h120v-455q0 -51 -11 -90.5q-11 -39.5 -31 -69.5q-20 -30 -47 -51.5q-27 -21.5 -60 -35.5q-48 -21 -74 -41q-26 -20 -26 -52q0 -22 17.5 -35q17.5 -13 49.5 -13l0 -71h-26q-66 0 -97.5 26q-31.5 26 -31.5 70q0 28 15.5 51q15.5 23 39.5 40l-8 0q-140 0 -215 71q-75 71 -75 201v455h120v-452q0 -75 43.5 -120.5t126.5 -45.5z" />
<glyph unicode="&#371;" horiz-adv-x="617" d="M184 509v-296q0 -125 112 -125q30 0 54.5 12q24.5 12 41 32q16.5 20 25.5 47.5q9 27.5 9 59.5v270h113v-509q-28 -14 -46.5 -35q-18.5 -21 -18.5 -46q0 -22 17.5 -35q17.5 -13 49.5 -13l0 -71h-26q-66 0 -97.5 26q-31.5 26 -31.5 70q0 30 20.5 59q20.5 29 55.5 45l-33 0v50h-20q-20 -26 -54.5 -44.5q-34.5 -18.5 -88.5 -18.5q-94 0 -144.5 55q-50.5 55 -50.5 152l0 315z" />
<glyph unicode="&#376;" horiz-adv-x="661" d="M343 409l171 305h131l-255 -452v-262h-120v262l-255 452h131l171 -305zM374 790v106h104v-106zM184 790v106h105l0 -106z" />
<glyph unicode="&#377;" horiz-adv-x="656" d="M594 584l-397 -454v-21h412v-109h-563v130l398 454v21h-371v109h521zM371 767h-105l88 129l130 0z" />
<glyph unicode="&#378;" horiz-adv-x="535" d="M49 0v116l283 277v20h-266v96h414v-115l-282 -278v-20h288v-96zM304 582h-102l89 145l126 0z" />
<glyph unicode="&#379;" horiz-adv-x="656" d="M594 584l-397 -454v-21h412v-109h-563v130l398 454v21h-371v109h521zM268 790v106h120l0 -106z" />
<glyph unicode="&#380;" horiz-adv-x="535" d="M49 0v116l283 277v20h-266v96h414v-115l-282 -278v-20h288v-96zM212 614v113h120l0 -113z" />
<glyph unicode="&#381;" horiz-adv-x="656" d="M594 584l-397 -454v-21h412v-109h-563v130l398 454v21h-371v109h521zM165 896h100l54 -60h20l55 60h98l-111 -129l-105 0z" />
<glyph unicode="&#382;" horiz-adv-x="535" d="M49 0v116l283 277v20h-266v96h414v-115l-282 -278v-20h288v-96zM111 727h97l58 -73h18l58 73h96l-112 -145l-104 0z" />
<glyph unicode="&#402;" horiz-adv-x="432" d="M30 -200l95 540h-91v96h108l17 97q19 106 73 150q54 44 146 44h44v-96h-42q-52 0 -75.5 -29q-23.5 -29 -34.5 -83l-16 -83h113v-96h-129l-95 -540z" />
<glyph unicode="&#710;" horiz-adv-x="399" d="M363 582h-97l-59 73h-17l-58 -73h-96l112 145l104 0z" />
<glyph unicode="&#711;" horiz-adv-x="399" d="M36 727h97l58 -73h18l58 73h96l-112 -145l-104 0z" />
<glyph unicode="&#728;" horiz-adv-x="363" d="M325 727q0 -68 -37 -106.5q-37 -38.5 -106 -38.5q-69 0 -106.5 38.5q-37.5 38.5 -37.5 106.5l79 0q0 -35 15.5 -53.5q15.5 -18.5 49.5 -18.5q33 0 49 18.5q16 18.5 16 53.5z" />
<glyph unicode="&#729;" horiz-adv-x="196" d="M38 614v113h120l0 -113z" />
<glyph unicode="&#730;" horiz-adv-x="307" d="M154 798q24 0 44.5 -8.5q20.5 -8.5 35.5 -23.5q15 -15 24 -35.5q9 -20.5 9 -44.5q0 -23 -9 -43q-9 -20 -24 -35q-15 -15 -35.5 -24q-20.5 -9 -44.5 -9q-23 0 -44 9q-21 9 -36.5 24q-15.5 15 -24.5 35q-9 20 -9 43q0 24 9 44.5q9 20.5 24.5 35.5q15.5 15 36.5 23.5q21 8.5 44 8.5zt0 0zM154 634q22 0 37.5 15q15.5 15 15.5 37q0 23 -15.5 38.5q-15.5 15.5 -37.5 15.5q-22 0 -37.5 -15.5q-15.5 -15.5 -15.5 -38.5q0 -22 15.5 -37t37.5 -15z" />
<glyph unicode="&#731;" horiz-adv-x="234" d="M183 0q-28 -14 -46.5 -35q-18.5 -21 -18.5 -46q0 -22 17.5 -35q17.5 -13 49.5 -13l0 -71h-26q-66 0 -97.5 26q-31.5 26 -31.5 70q0 35 25.5 67.5q25.5 32.5 70.5 44.5z" />
<glyph unicode="&#732;" horiz-adv-x="410" d="M277 661q21 0 28.5 18q7.5 18 7.5 44l61 0q0 -65 -24.5 -101q-24.5 -36 -73.5 -36q-27 0 -46 11.5q-19 11.5 -38 23.5q-15 10 -28 18.5q-13 8.5 -30 8.5q-21 0 -28.5 -18q-7.5 -18 -7.5 -44l-61 0q0 65 24.5 101q24.5 36 73.5 36q28 0 49.5 -12q21.5 -12 39.5 -25q14 -10 26.5 -17.5t26.5 -7.5z" />
<glyph unicode="&#733;" horiz-adv-x="440" d="M130 582h-91l75 145h113zM302 582h-90l75 145l114 0z" />
<glyph unicode="&#937;" horiz-adv-x="765" d="M588 98h123v-98h-284v96q31 20 60 47.5q29 27.5 52 62q23 34.5 37 77.5q14 43 14 95q0 56 -15 100.5q-15 44.5 -42.5 75.5q-27.5 31 -66 47.5q-38.5 16.5 -84.5 16.5q-46 0 -84.5 -16.5q-38.5 -16.5 -66 -47.5q-27.5 -31 -42.5 -75.5q-15 -44.5 -15 -100.5q0 -52 14 -95q14 -43 37 -77.5q23 -34.5 52 -62q29 -27.5 60 -47.5l0 -96h-284v98h124v19q-23 19 -45 45q-22 26 -40 59.5q-18 33.5 -29 75q-11 41.5 -11 90.5q0 74 22.5 136.5q22.5 62.5 65.5 107.5q43 45 104 70.5q61 25.5 138 25.5q77 0 138.5 -25.5q61.5 -25.5 104 -70.5q42.5 -45 65 -107.5q22.5 -62.5 22.5 -136.5q0 -49 -11 -90.5q-11 -41.5 -28.5 -75q-17.5 -33.5 -40 -59.5q-22.5 -26 -44.5 -45z" />
<glyph unicode="&#960;" horiz-adv-x="631" d="M546 0q-50 0 -82.5 11.5q-32.5 11.5 -51 33q-18.5 21.5 -25.5 52q-7 30.5 -7 68.5v248h-163v-413h-113v413h-79v96h558v-96h-90v-248q0 -33 12.5 -51q12.5 -18 40.5 -18h37l0 -96z" />
<glyph unicode="&#1025;" horiz-adv-x="659" d="M613 109v-109h-526v714h513v-109h-393v-184h311v-107h-311v-205zM383 790v106h104v-106zM193 790v106h105l0 -106z" />
<glyph unicode="&#1026;" horiz-adv-x="813" d="M763 207q0 -57 -17 -98.5q-17 -41.5 -48.5 -68.5q-31.5 -27 -75.5 -40q-44 -13 -98 -13q-11 0 -28.5 1q-17.5 1 -24.5 3l0 109q5 -2 17 -3q12 -1 26 -1q69 0 99 29.5q30 29.5 30 80.5q0 25 -8 46q-8 21 -27.5 36q-19.5 15 -51.5 23.5q-32 8.5 -80 8.5q-32 0 -71 -4q-39 -4 -73 -12l0 -304h-120v608h-195v106h566v-106h-251v-195q38 8 81.5 12q43.5 4 85.5 4q74 0 124.5 -18q50.5 -18 81.5 -48.5q31 -30.5 44.5 -71t13.5 -84.5z" />
<glyph unicode="&#1027;" horiz-adv-x="631" d="M207 605v-605h-120v714h502v-109zM363 767h-105l88 129l130 0z" />
</font>
</defs>
</svg>
